<svg width="319" height="172" viewBox="0 0 319 172" fill="none" xmlns="http://www.w3.org/2000/svg">
<path d="M319 0H0V172H319V0Z" fill="#3F3D56"/>
<path d="M60.7367 24.3446H57.5679V28.5785H60.7367V24.3446Z" fill="#BF00FF"/>
<path d="M70.2433 23.2861H67.0745V27.52H70.2433V23.2861Z" fill="#BF00FF"/>
<path d="M74.9967 23.2861H72.356V27.52H74.9967V23.2861Z" fill="#BF00FF"/>
<path d="M74.9967 36.5169H72.356V41.28H74.9967V36.5169Z" fill="#BF00FF"/>
<path d="M80.8063 29.637H78.1655V34.4H80.8063V29.637Z" fill="#BF00FF"/>
<path d="M80.8063 37.0462H78.1655V41.8093H80.8063V37.0462Z" fill="#BF00FF"/>
<path d="M74.9967 51.3354H72.356V55.5692H74.9967V51.3354Z" fill="#BF00FF"/>
<path d="M80.8063 58.7446H78.1655V62.9785H80.8063V58.7446Z" fill="#BF00FF"/>
<path d="M74.9967 86.2646H72.356V91.0277H74.9967V86.2646Z" fill="#BF00FF"/>
<path d="M70.2433 58.7446H67.0745V62.9785H70.2433V58.7446Z" fill="#BF00FF"/>
<path d="M60.7367 31.7538H57.5679V35.9877H60.7367V31.7538Z" fill="#BF00FF"/>
<path d="M60.7367 102.142H57.5679V106.375H60.7367V102.142Z" fill="#BF00FF"/>
<path d="M60.7367 116.96H57.5679V121.194H60.7367V116.96Z" fill="#BF00FF"/>
<path d="M60.7367 123.84H57.5679V128.603H60.7367V123.84Z" fill="#BF00FF"/>
<path d="M60.7366 39.6923H56.5115V40.2216H60.7366V39.6923Z" fill="#BF00FF"/>
<path d="M75.5247 46.043H71.8276V46.5723H75.5247V46.043Z" fill="#BF00FF"/>
<path d="M60.7366 75.68H56.5115V76.2092H60.7366V75.68Z" fill="#BF00FF"/>
<path d="M60.7366 82.0308H56.5115V82.56H60.7366V82.0308Z" fill="#BF00FF"/>
<path d="M75.5247 118.018H71.8276V118.548H75.5247V118.018Z" fill="#BF00FF"/>
<path d="M71.2996 131.249H67.0745V131.778H71.2996V131.249Z" fill="#BF00FF"/>
<path d="M57.5679 44.4554V45.6461H58.8353V48.0278H57.5679V49.2185H60.7367V44.4554H57.5679Z" fill="#BF00FF"/>
<path d="M67.0745 36.5169V37.7076H68.3418V40.0893H67.0745V41.28H70.2433V36.5169H67.0745Z" fill="#BF00FF"/>
<path d="M78.1655 43.9261V45.1171H79.2217V47.4986H78.1655V48.6892H80.8063V43.9261H78.1655Z" fill="#BF00FF"/>
<path d="M78.1655 66.1539V67.2122H79.2217V69.3293H78.1655V70.3877H80.8063V66.1539H78.1655Z" fill="#BF00FF"/>
<path d="M78.1655 73.5631V74.6217H79.2217V76.7387H78.1655V77.797H80.8063V73.5631H78.1655Z" fill="#BF00FF"/>
<path d="M78.1655 50.8062V51.8644H79.2217V53.9814H78.1655V55.04H80.8063V50.8062H78.1655Z" fill="#BF00FF"/>
<path d="M72.356 29.637V30.8279H73.4123V33.2091H72.356V34.4H74.9967V29.637H72.356Z" fill="#BF00FF"/>
<path d="M74.9967 66.1539H72.356V70.3877H74.9967V66.1539Z" fill="#BF00FF"/>
<path d="M74.9967 79.3846H72.356V84.1477H74.9967V79.3846Z" fill="#BF00FF"/>
<path d="M72.356 72.5046V73.6952H73.4123V76.0767H72.356V77.2677H74.9967V72.5046H72.356Z" fill="#BF00FF"/>
<path d="M67.0745 43.9261V45.1171H68.3418V47.4986H67.0745V48.6892H70.2433V43.9261H67.0745Z" fill="#BF00FF"/>
<path d="M67.0745 51.3354V52.394H68.3418V54.5106H67.0745V55.5692H70.2433V51.3354H67.0745Z" fill="#BF00FF"/>
<path d="M70.2433 73.5631H67.0745V77.797H70.2433V73.5631Z" fill="#BF00FF"/>
<path d="M67.0745 66.1539V67.2122H68.3418V69.3293H67.0745V70.3877H70.2433V66.1539H67.0745Z" fill="#BF00FF"/>
<path d="M70.2433 87.8523H67.0745V92.6154H70.2433V87.8523Z" fill="#BF00FF"/>
<path d="M67.0745 80.4431V81.6337H68.3418V84.0152H67.0745V85.2062H70.2433V80.4431H67.0745Z" fill="#BF00FF"/>
<path d="M70.2433 102.671H67.0745V106.905H70.2433V102.671Z" fill="#BF00FF"/>
<path d="M74.9967 101.612H72.356V105.846H74.9967V101.612Z" fill="#BF00FF"/>
<path d="M67.0745 95.2615V96.4525H68.3418V98.834H67.0745V100.025H70.2433V95.2615H67.0745Z" fill="#BF00FF"/>
<path d="M78.1655 95.2615V96.4525H79.2217V98.834H78.1655V100.025H80.8063V95.2615H78.1655Z" fill="#BF00FF"/>
<path d="M109.326 29.637H106.686V34.4H109.326V29.637Z" fill="#BF00FF"/>
<path d="M109.326 37.0462H106.686V41.8093H109.326V37.0462Z" fill="#BF00FF"/>
<path d="M109.326 58.7446H106.686V62.9785H109.326V58.7446Z" fill="#BF00FF"/>
<path d="M106.686 43.9261V45.1171H107.742V47.4986H106.686V48.6892H109.326V43.9261H106.686Z" fill="#BF00FF"/>
<path d="M106.686 66.1539V67.2122H107.742V69.3293H106.686V70.3877H109.326V66.1539H106.686Z" fill="#BF00FF"/>
<path d="M106.686 73.5631V74.6217H107.742V76.7387H106.686V77.797H109.326V73.5631H106.686Z" fill="#BF00FF"/>
<path d="M106.686 50.8062V51.8644H107.742V53.9814H106.686V55.04H109.326V50.8062H106.686Z" fill="#BF00FF"/>
<path d="M106.686 95.2615V96.4525H107.742V98.834H106.686V100.025H109.326V95.2615H106.686Z" fill="#BF00FF"/>
<path d="M70.2433 117.489H67.0745V121.723H70.2433V117.489Z" fill="#BF00FF"/>
<path d="M74.9967 109.022H72.356V113.255H74.9967V109.022Z" fill="#BF00FF"/>
<path d="M70.2433 136.542H67.0745V140.775H70.2433V136.542Z" fill="#BF00FF"/>
<path d="M74.9967 122.782H72.356V127.545H74.9967V122.782Z" fill="#BF00FF"/>
<path d="M67.0745 110.08V111.138H68.3418V113.255H67.0745V114.314H70.2433V110.08H67.0745Z" fill="#BF00FF"/>
<path d="M67.0745 144.48V145.538H68.3418V147.655H67.0745V148.714H70.2433V144.48H67.0745Z" fill="#BF00FF"/>
<path d="M100.876 23.2861H98.2351V27.52H100.876V23.2861Z" fill="#BF00FF"/>
<path d="M100.876 58.7446H98.2351V62.9785H100.876V58.7446Z" fill="#BF00FF"/>
<path d="M101.932 131.249H98.2351V131.778H101.932V131.249Z" fill="#BF00FF"/>
<path d="M98.2351 36.5169V37.7076H99.2916V40.0893H98.2351V41.28H100.876V36.5169H98.2351Z" fill="#BF00FF"/>
<path d="M98.2351 43.9261V45.1171H99.2916V47.4986H98.2351V48.6892H100.876V43.9261H98.2351Z" fill="#BF00FF"/>
<path d="M98.2351 51.3354V52.394H99.2916V54.5106H98.2351V55.5692H100.876V51.3354H98.2351Z" fill="#BF00FF"/>
<path d="M100.876 73.5631H98.2351V77.797H100.876V73.5631Z" fill="#BF00FF"/>
<path d="M98.2351 66.1539V67.2122H99.2916V69.3293H98.2351V70.3877H100.876V66.1539H98.2351Z" fill="#BF00FF"/>
<path d="M100.876 87.8523H98.2351V92.6154H100.876V87.8523Z" fill="#BF00FF"/>
<path d="M98.2351 80.4431V81.6337H99.2916V84.0152H98.2351V85.2062H100.876V80.4431H98.2351Z" fill="#BF00FF"/>
<path d="M100.876 102.671H98.2351V106.905H100.876V102.671Z" fill="#BF00FF"/>
<path d="M98.2351 95.2615V96.4525H99.2916V98.834H98.2351V100.025H100.876V95.2615H98.2351Z" fill="#BF00FF"/>
<path d="M100.876 117.489H98.2351V121.723H100.876V117.489Z" fill="#BF00FF"/>
<path d="M100.876 136.542H98.2351V140.775H100.876V136.542Z" fill="#BF00FF"/>
<path d="M98.2351 110.08V111.138H99.2916V113.255H98.2351V114.314H100.876V110.08H98.2351Z" fill="#BF00FF"/>
<path d="M98.2351 144.48V145.538H99.2916V147.655H98.2351V148.714H100.876V144.48H98.2351Z" fill="#BF00FF"/>
<path d="M114.608 23.2861H111.967V27.52H114.608V23.2861Z" fill="#BF00FF"/>
<path d="M114.608 58.7446H111.967V62.9785H114.608V58.7446Z" fill="#BF00FF"/>
<path d="M115.664 131.249H111.967V131.778H115.664V131.249Z" fill="#BF00FF"/>
<path d="M111.967 36.5169V37.7076H113.023V40.0893H111.967V41.28H114.608V36.5169H111.967Z" fill="#BF00FF"/>
<path d="M111.967 43.9261V45.1171H113.023V47.4986H111.967V48.6892H114.608V43.9261H111.967Z" fill="#BF00FF"/>
<path d="M111.967 51.3354V52.394H113.023V54.5106H111.967V55.5692H114.608V51.3354H111.967Z" fill="#BF00FF"/>
<path d="M114.608 73.5631H111.967V77.797H114.608V73.5631Z" fill="#BF00FF"/>
<path d="M111.967 66.1539V67.2122H113.023V69.3293H111.967V70.3877H114.608V66.1539H111.967Z" fill="#BF00FF"/>
<path d="M114.608 87.8523H111.967V92.6154H114.608V87.8523Z" fill="#BF00FF"/>
<path d="M111.967 80.4431V81.6337H113.023V84.0152H111.967V85.2062H114.608V80.4431H111.967Z" fill="#BF00FF"/>
<path d="M114.608 102.671H111.967V106.905H114.608V102.671Z" fill="#BF00FF"/>
<path d="M111.967 95.2615V96.4525H113.023V98.834H111.967V100.025H114.608V95.2615H111.967Z" fill="#BF00FF"/>
<path d="M114.608 117.489H111.967V121.723H114.608V117.489Z" fill="#BF00FF"/>
<path d="M114.608 136.542H111.967V140.775H114.608V136.542Z" fill="#BF00FF"/>
<path d="M111.967 110.08V111.138H113.023V113.255H111.967V114.314H114.608V110.08H111.967Z" fill="#BF00FF"/>
<path d="M111.967 144.48V145.538H113.023V147.655H111.967V148.714H114.608V144.48H111.967Z" fill="#BF00FF"/>
<path d="M72.356 136.542V137.6H73.4123V139.717H72.356V140.775H74.9967V136.542H72.356Z" fill="#BF00FF"/>
<path d="M72.356 143.951V145.009H73.4123V147.126H72.356V148.185H74.9967V143.951H72.356Z" fill="#BF00FF"/>
<path d="M57.5679 58.7446V59.8029H58.8353V61.9198H57.5679V62.9785H60.7367V58.7446H57.5679Z" fill="#BF00FF"/>
<path d="M57.5679 87.3231V88.5137H58.8353V90.8955H57.5679V92.0861H60.7367V87.3231H57.5679Z" fill="#BF00FF"/>
<path d="M57.5679 94.7323V95.9233H58.8353V98.3048H57.5679V99.4954H60.7367V94.7323H57.5679Z" fill="#BF00FF"/>
<path d="M57.5679 109.551V110.609H58.8353V112.726H57.5679V113.785H60.7367V109.551H57.5679Z" fill="#BF00FF"/>
<path d="M57.5679 130.191V131.382H58.8353V133.763H57.5679V134.954H60.7367V130.191H57.5679Z" fill="#BF00FF"/>
<path d="M57.5679 136.542V137.6H58.8353V139.717H57.5679V140.775H60.7367V136.542H57.5679Z" fill="#BF00FF"/>
<path d="M89.7848 24.3446H87.144V28.5785H89.7848V24.3446Z" fill="#BF00FF"/>
<path d="M89.7848 31.7538H87.144V35.9877H89.7848V31.7538Z" fill="#BF00FF"/>
<path d="M89.7847 39.6923H86.0876V40.2216H89.7847V39.6923Z" fill="#BF00FF"/>
<path d="M89.7847 75.68H86.0876V76.2092H89.7847V75.68Z" fill="#BF00FF"/>
<path d="M89.7847 82.0308H86.0876V82.56H89.7847V82.0308Z" fill="#BF00FF"/>
<path d="M87.144 44.4554V45.6461H88.2002V48.0278H87.144V49.2185H89.7848V44.4554H87.144Z" fill="#BF00FF"/>
<path d="M87.144 58.7446V59.8029H88.2002V61.9198H87.144V62.9785H89.7848V58.7446H87.144Z" fill="#BF00FF"/>
<path d="M87.144 87.3231V88.5137H88.2002V90.8955H87.144V92.0861H89.7848V87.3231H87.144Z" fill="#BF00FF"/>
<path d="M122.002 73.5631H118.833V77.797H122.002V73.5631Z" fill="#BF00FF"/>
<path d="M122.002 80.4431H118.833V85.2062H122.002V80.4431Z" fill="#BF00FF"/>
<path d="M122.002 88.3815H117.776V88.9108H122.002V88.3815Z" fill="#BF00FF"/>
<path d="M122.002 124.369H117.776V125.428H122.002V124.369Z" fill="#BF00FF"/>
<path d="M122.002 130.72H117.776V131.249H122.002V130.72Z" fill="#BF00FF"/>
<path d="M118.833 93.6738V94.7321H120.1V96.849H118.833V97.9077H122.002V93.6738H118.833Z" fill="#BF00FF"/>
<path d="M118.833 107.963V109.022H120.1V111.138H118.833V112.197H122.002V107.963H118.833Z" fill="#BF00FF"/>
<path d="M118.833 136.542V137.6H120.1V139.717H118.833V140.775H122.002V136.542H118.833Z" fill="#BF00FF"/>
<path d="M130.98 24.3446H127.811V28.5785H130.98V24.3446Z" fill="#BF00FF"/>
<path d="M140.487 23.2861H137.846V27.52H140.487V23.2861Z" fill="#BF00FF"/>
<path d="M145.24 23.2861H142.599V27.52H145.24V23.2861Z" fill="#BF00FF"/>
<path d="M145.24 36.5169H142.599V41.28H145.24V36.5169Z" fill="#BF00FF"/>
<path d="M151.05 29.637H148.409V34.4H151.05V29.637Z" fill="#BF00FF"/>
<path d="M151.05 37.0462H148.409V41.8093H151.05V37.0462Z" fill="#BF00FF"/>
<path d="M145.24 51.3354H142.599V55.5692H145.24V51.3354Z" fill="#BF00FF"/>
<path d="M151.05 58.7446H148.409V62.9785H151.05V58.7446Z" fill="#BF00FF"/>
<path d="M145.24 86.2646H142.599V91.0277H145.24V86.2646Z" fill="#BF00FF"/>
<path d="M140.487 58.7446H137.846V62.9785H140.487V58.7446Z" fill="#BF00FF"/>
<path d="M130.98 31.7538H127.811V35.9877H130.98V31.7538Z" fill="#BF00FF"/>
<path d="M130.98 102.142H127.811V106.375H130.98V102.142Z" fill="#BF00FF"/>
<path d="M130.98 116.96H127.811V121.194H130.98V116.96Z" fill="#BF00FF"/>
<path d="M130.98 123.84H127.811V128.603H130.98V123.84Z" fill="#BF00FF"/>
<path d="M130.98 39.6923H126.755V40.2216H130.98V39.6923Z" fill="#BF00FF"/>
<path d="M146.296 46.043H142.071V46.5723H146.296V46.043Z" fill="#BF00FF"/>
<path d="M130.98 75.68H126.755V76.2092H130.98V75.68Z" fill="#BF00FF"/>
<path d="M130.98 82.0308H126.755V82.56H130.98V82.0308Z" fill="#BF00FF"/>
<path d="M146.296 118.018H142.071V118.548H146.296V118.018Z" fill="#BF00FF"/>
<path d="M141.543 131.249H137.846V131.778H141.543V131.249Z" fill="#BF00FF"/>
<path d="M127.811 44.4554V45.6461H129.079V48.0278H127.811V49.2185H130.98V44.4554H127.811Z" fill="#BF00FF"/>
<path d="M137.846 36.5169V37.7076H138.902V40.0893H137.846V41.28H140.487V36.5169H137.846Z" fill="#BF00FF"/>
<path d="M148.409 43.9261V45.1171H149.465V47.4986H148.409V48.6892H151.05V43.9261H148.409Z" fill="#BF00FF"/>
<path d="M148.409 66.1539V67.2122H149.465V69.3293H148.409V70.3877H151.05V66.1539H148.409Z" fill="#BF00FF"/>
<path d="M148.409 73.5631V74.6217H149.465V76.7387H148.409V77.797H151.05V73.5631H148.409Z" fill="#BF00FF"/>
<path d="M148.409 50.8062V51.8644H149.465V53.9814H148.409V55.04H151.05V50.8062H148.409Z" fill="#BF00FF"/>
<path d="M142.599 29.637V30.8279H143.656V33.2091H142.599V34.4H145.24V29.637H142.599Z" fill="#BF00FF"/>
<path d="M145.24 66.1539H142.599V70.3877H145.24V66.1539Z" fill="#BF00FF"/>
<path d="M145.24 79.3846H142.599V84.1477H145.24V79.3846Z" fill="#BF00FF"/>
<path d="M142.599 72.5046V73.6952H143.656V76.0767H142.599V77.2677H145.24V72.5046H142.599Z" fill="#BF00FF"/>
<path d="M137.846 43.9261V45.1171H138.902V47.4986H137.846V48.6892H140.487V43.9261H137.846Z" fill="#BF00FF"/>
<path d="M137.846 51.3354V52.394H138.902V54.5106H137.846V55.5692H140.487V51.3354H137.846Z" fill="#BF00FF"/>
<path d="M140.487 73.5631H137.846V77.797H140.487V73.5631Z" fill="#BF00FF"/>
<path d="M137.846 66.1539V67.2122H138.902V69.3293H137.846V70.3877H140.487V66.1539H137.846Z" fill="#BF00FF"/>
<path d="M140.487 87.8523H137.846V92.6154H140.487V87.8523Z" fill="#BF00FF"/>
<path d="M137.846 80.4431V81.6337H138.902V84.0152H137.846V85.2062H140.487V80.4431H137.846Z" fill="#BF00FF"/>
<path d="M140.487 102.671H137.846V106.905H140.487V102.671Z" fill="#BF00FF"/>
<path d="M145.24 101.612H142.599V105.846H145.24V101.612Z" fill="#BF00FF"/>
<path d="M137.846 95.2615V96.4525H138.902V98.834H137.846V100.025H140.487V95.2615H137.846Z" fill="#BF00FF"/>
<path d="M148.409 95.2615V96.4525H149.465V98.834H148.409V100.025H151.05V95.2615H148.409Z" fill="#BF00FF"/>
<path d="M179.57 29.637H176.929V34.4H179.57V29.637Z" fill="#BF00FF"/>
<path d="M179.57 37.0462H176.929V41.8093H179.57V37.0462Z" fill="#BF00FF"/>
<path d="M179.57 58.7446H176.929V62.9785H179.57V58.7446Z" fill="#BF00FF"/>
<path d="M176.929 43.9261V45.1171H177.985V47.4986H176.929V48.6892H179.57V43.9261H176.929Z" fill="#BF00FF"/>
<path d="M176.929 66.1539V67.2122H177.985V69.3293H176.929V70.3877H179.57V66.1539H176.929Z" fill="#BF00FF"/>
<path d="M176.929 73.5631V74.6217H177.985V76.7387H176.929V77.797H179.57V73.5631H176.929Z" fill="#BF00FF"/>
<path d="M176.929 50.8062V51.8644H177.985V53.9814H176.929V55.04H179.57V50.8062H176.929Z" fill="#BF00FF"/>
<path d="M176.929 95.2615V96.4525H177.985V98.834H176.929V100.025H179.57V95.2615H176.929Z" fill="#BF00FF"/>
<path d="M140.487 117.489H137.846V121.723H140.487V117.489Z" fill="#BF00FF"/>
<path d="M145.24 109.022H142.599V113.255H145.24V109.022Z" fill="#BF00FF"/>
<path d="M140.487 136.542H137.846V140.775H140.487V136.542Z" fill="#BF00FF"/>
<path d="M145.24 122.782H142.599V127.545H145.24V122.782Z" fill="#BF00FF"/>
<path d="M137.846 110.08V111.138H138.902V113.255H137.846V114.314H140.487V110.08H137.846Z" fill="#BF00FF"/>
<path d="M137.846 144.48V145.538H138.902V147.655H137.846V148.714H140.487V144.48H137.846Z" fill="#BF00FF"/>
<path d="M171.119 23.2861H168.478V27.52H171.119V23.2861Z" fill="#BF00FF"/>
<path d="M171.119 58.7446H168.478V62.9785H171.119V58.7446Z" fill="#BF00FF"/>
<path d="M172.704 131.249H168.478V131.778H172.704V131.249Z" fill="#BF00FF"/>
<path d="M168.478 36.5169V37.7076H169.535V40.0893H168.478V41.28H171.119V36.5169H168.478Z" fill="#BF00FF"/>
<path d="M168.478 43.9261V45.1171H169.535V47.4986H168.478V48.6892H171.119V43.9261H168.478Z" fill="#BF00FF"/>
<path d="M168.478 51.3354V52.394H169.535V54.5106H168.478V55.5692H171.119V51.3354H168.478Z" fill="#BF00FF"/>
<path d="M171.119 73.5631H168.478V77.797H171.119V73.5631Z" fill="#BF00FF"/>
<path d="M168.478 66.1539V67.2122H169.535V69.3293H168.478V70.3877H171.119V66.1539H168.478Z" fill="#BF00FF"/>
<path d="M171.119 87.8523H168.478V92.6154H171.119V87.8523Z" fill="#BF00FF"/>
<path d="M168.478 80.4431V81.6337H169.535V84.0152H168.478V85.2062H171.119V80.4431H168.478Z" fill="#BF00FF"/>
<path d="M171.119 102.671H168.478V106.905H171.119V102.671Z" fill="#BF00FF"/>
<path d="M168.478 95.2615V96.4525H169.535V98.834H168.478V100.025H171.119V95.2615H168.478Z" fill="#BF00FF"/>
<path d="M171.119 117.489H168.478V121.723H171.119V117.489Z" fill="#BF00FF"/>
<path d="M171.119 136.542H168.478V140.775H171.119V136.542Z" fill="#BF00FF"/>
<path d="M168.478 110.08V111.138H169.535V113.255H168.478V114.314H171.119V110.08H168.478Z" fill="#BF00FF"/>
<path d="M168.478 144.48V145.538H169.535V147.655H168.478V148.714H171.119V144.48H168.478Z" fill="#BF00FF"/>
<path d="M184.851 23.2861H182.21V27.52H184.851V23.2861Z" fill="#BF00FF"/>
<path d="M184.851 58.7446H182.21V62.9785H184.851V58.7446Z" fill="#BF00FF"/>
<path d="M185.907 131.249H182.21V131.778H185.907V131.249Z" fill="#BF00FF"/>
<path d="M182.21 36.5169V37.7076H183.267V40.0893H182.21V41.28H184.851V36.5169H182.21Z" fill="#BF00FF"/>
<path d="M182.21 43.9261V45.1171H183.267V47.4986H182.21V48.6892H184.851V43.9261H182.21Z" fill="#BF00FF"/>
<path d="M182.21 51.3354V52.394H183.267V54.5106H182.21V55.5692H184.851V51.3354H182.21Z" fill="#BF00FF"/>
<path d="M184.851 73.5631H182.21V77.797H184.851V73.5631Z" fill="#BF00FF"/>
<path d="M182.21 66.1539V67.2122H183.267V69.3293H182.21V70.3877H184.851V66.1539H182.21Z" fill="#BF00FF"/>
<path d="M184.851 87.8523H182.21V92.6154H184.851V87.8523Z" fill="#BF00FF"/>
<path d="M182.21 80.4431V81.6337H183.267V84.0152H182.21V85.2062H184.851V80.4431H182.21Z" fill="#BF00FF"/>
<path d="M184.851 102.671H182.21V106.905H184.851V102.671Z" fill="#BF00FF"/>
<path d="M182.21 95.2615V96.4525H183.267V98.834H182.21V100.025H184.851V95.2615H182.21Z" fill="#BF00FF"/>
<path d="M184.851 117.489H182.21V121.723H184.851V117.489Z" fill="#BF00FF"/>
<path d="M184.851 136.542H182.21V140.775H184.851V136.542Z" fill="#BF00FF"/>
<path d="M182.21 110.08V111.138H183.267V113.255H182.21V114.314H184.851V110.08H182.21Z" fill="#BF00FF"/>
<path d="M182.21 144.48V145.538H183.267V147.655H182.21V148.714H184.851V144.48H182.21Z" fill="#BF00FF"/>
<path d="M142.599 136.542V137.6H143.656V139.717H142.599V140.775H145.24V136.542H142.599Z" fill="#BF00FF"/>
<path d="M142.599 143.951V145.009H143.656V147.126H142.599V148.185H145.24V143.951H142.599Z" fill="#BF00FF"/>
<path d="M127.811 58.7446V59.8029H129.079V61.9198H127.811V62.9785H130.98V58.7446H127.811Z" fill="#BF00FF"/>
<path d="M127.811 87.3231V88.5137H129.079V90.8955H127.811V92.0861H130.98V87.3231H127.811Z" fill="#BF00FF"/>
<path d="M127.811 94.7323V95.9233H129.079V98.3048H127.811V99.4954H130.98V94.7323H127.811Z" fill="#BF00FF"/>
<path d="M127.811 109.551V110.609H129.079V112.726H127.811V113.785H130.98V109.551H127.811Z" fill="#BF00FF"/>
<path d="M127.811 130.191V131.382H129.079V133.763H127.811V134.954H130.98V130.191H127.811Z" fill="#BF00FF"/>
<path d="M127.811 136.542V137.6H129.079V139.717H127.811V140.775H130.98V136.542H127.811Z" fill="#BF00FF"/>
<path d="M160.028 24.3446H157.387V28.5785H160.028V24.3446Z" fill="#BF00FF"/>
<path d="M160.028 31.7538H157.387V35.9877H160.028V31.7538Z" fill="#BF00FF"/>
<path d="M160.028 39.6923H156.331V40.2216H160.028V39.6923Z" fill="#BF00FF"/>
<path d="M160.028 75.68H156.331V76.2092H160.028V75.68Z" fill="#BF00FF"/>
<path d="M160.028 82.0308H156.331V82.56H160.028V82.0308Z" fill="#BF00FF"/>
<path d="M157.387 44.4554V45.6461H158.444V48.0278H157.387V49.2185H160.028V44.4554H157.387Z" fill="#BF00FF"/>
<path d="M157.387 58.7446V59.8029H158.444V61.9198H157.387V62.9785H160.028V58.7446H157.387Z" fill="#BF00FF"/>
<path d="M157.387 87.3231V88.5137H158.444V90.8955H157.387V92.0861H160.028V87.3231H157.387Z" fill="#BF00FF"/>
<path d="M192.245 73.5631H189.604V77.797H192.245V73.5631Z" fill="#BF00FF"/>
<path d="M192.245 80.4431H189.604V85.2062H192.245V80.4431Z" fill="#BF00FF"/>
<path d="M192.245 88.3815H188.02V88.9108H192.245V88.3815Z" fill="#BF00FF"/>
<path d="M192.245 124.369H188.02V125.428H192.245V124.369Z" fill="#BF00FF"/>
<path d="M192.245 130.72H188.02V131.249H192.245V130.72Z" fill="#BF00FF"/>
<path d="M189.604 93.6738V94.7321H190.661V96.849H189.604V97.9077H192.245V93.6738H189.604Z" fill="#BF00FF"/>
<path d="M189.604 107.963V109.022H190.661V111.138H189.604V112.197H192.245V107.963H189.604Z" fill="#BF00FF"/>
<path d="M189.604 136.542V137.6H190.661V139.717H189.604V140.775H192.245V136.542H189.604Z" fill="#BF00FF"/>
<path d="M201.223 24.3446H198.583V28.5785H201.223V24.3446Z" fill="#BF00FF"/>
<path d="M210.73 23.2861H208.089V27.52H210.73V23.2861Z" fill="#BF00FF"/>
<path d="M216.012 23.2861H212.843V27.52H216.012V23.2861Z" fill="#BF00FF"/>
<path d="M216.012 36.5169H212.843V41.28H216.012V36.5169Z" fill="#BF00FF"/>
<path d="M221.293 29.637H218.652V34.4H221.293V29.637Z" fill="#BF00FF"/>
<path d="M221.293 37.0462H218.652V41.8093H221.293V37.0462Z" fill="#BF00FF"/>
<path d="M216.012 51.3354H212.843V55.5692H216.012V51.3354Z" fill="#BF00FF"/>
<path d="M221.293 58.7446H218.652V62.9785H221.293V58.7446Z" fill="#BF00FF"/>
<path d="M216.012 86.2646H212.843V91.0277H216.012V86.2646Z" fill="#BF00FF"/>
<path d="M210.73 58.7446H208.089V62.9785H210.73V58.7446Z" fill="#BF00FF"/>
<path d="M201.223 31.7538H198.583V35.9877H201.223V31.7538Z" fill="#BF00FF"/>
<path d="M201.223 102.142H198.583V106.375H201.223V102.142Z" fill="#BF00FF"/>
<path d="M201.223 116.96H198.583V121.194H201.223V116.96Z" fill="#BF00FF"/>
<path d="M201.223 123.84H198.583V128.603H201.223V123.84Z" fill="#BF00FF"/>
<path d="M201.223 39.6923H196.998V40.2216H201.223V39.6923Z" fill="#BF00FF"/>
<path d="M216.54 46.043H212.315V46.5723H216.54V46.043Z" fill="#BF00FF"/>
<path d="M201.223 75.68H196.998V76.2092H201.223V75.68Z" fill="#BF00FF"/>
<path d="M201.223 82.0308H196.998V82.56H201.223V82.0308Z" fill="#BF00FF"/>
<path d="M216.54 118.018H212.315V118.548H216.54V118.018Z" fill="#BF00FF"/>
<path d="M211.786 131.249H208.089V131.778H211.786V131.249Z" fill="#BF00FF"/>
<path d="M198.583 44.4554V45.6461H199.639V48.0278H198.583V49.2185H201.223V44.4554H198.583Z" fill="#BF00FF"/>
<path d="M208.089 36.5169V37.7076H209.146V40.0893H208.089V41.28H210.73V36.5169H208.089Z" fill="#BF00FF"/>
<path d="M218.652 43.9261V45.1171H219.708V47.4986H218.652V48.6892H221.293V43.9261H218.652Z" fill="#BF00FF"/>
<path d="M218.652 66.1539V67.2122H219.708V69.3293H218.652V70.3877H221.293V66.1539H218.652Z" fill="#BF00FF"/>
<path d="M218.652 73.5631V74.6217H219.708V76.7387H218.652V77.797H221.293V73.5631H218.652Z" fill="#BF00FF"/>
<path d="M218.652 50.8062V51.8644H219.708V53.9814H218.652V55.04H221.293V50.8062H218.652Z" fill="#BF00FF"/>
<path d="M212.843 29.637V30.8279H214.11V33.2091H212.843V34.4H216.012V29.637H212.843Z" fill="#BF00FF"/>
<path d="M216.012 66.1539H212.843V70.3877H216.012V66.1539Z" fill="#BF00FF"/>
<path d="M216.012 79.3846H212.843V84.1477H216.012V79.3846Z" fill="#BF00FF"/>
<path d="M212.843 72.5046V73.6952H214.11V76.0767H212.843V77.2677H216.012V72.5046H212.843Z" fill="#BF00FF"/>
<path d="M208.089 43.9261V45.1171H209.146V47.4986H208.089V48.6892H210.73V43.9261H208.089Z" fill="#BF00FF"/>
<path d="M208.089 51.3354V52.394H209.146V54.5106H208.089V55.5692H210.73V51.3354H208.089Z" fill="#BF00FF"/>
<path d="M210.73 73.5631H208.089V77.797H210.73V73.5631Z" fill="#BF00FF"/>
<path d="M208.089 66.1539V67.2122H209.146V69.3293H208.089V70.3877H210.73V66.1539H208.089Z" fill="#BF00FF"/>
<path d="M210.73 87.8523H208.089V92.6154H210.73V87.8523Z" fill="#BF00FF"/>
<path d="M208.089 80.4431V81.6337H209.146V84.0152H208.089V85.2062H210.73V80.4431H208.089Z" fill="#BF00FF"/>
<path d="M210.73 102.671H208.089V106.905H210.73V102.671Z" fill="#BF00FF"/>
<path d="M216.012 101.612H212.843V105.846H216.012V101.612Z" fill="#BF00FF"/>
<path d="M208.089 95.2615V96.4525H209.146V98.834H208.089V100.025H210.73V95.2615H208.089Z" fill="#BF00FF"/>
<path d="M218.652 95.2615V96.4525H219.708V98.834H218.652V100.025H221.293V95.2615H218.652Z" fill="#BF00FF"/>
<path d="M250.341 29.637H247.172V34.4H250.341V29.637Z" fill="#BF00FF"/>
<path d="M250.341 37.0462H247.172V41.8093H250.341V37.0462Z" fill="#BF00FF"/>
<path d="M250.341 58.7446H247.172V62.9785H250.341V58.7446Z" fill="#BF00FF"/>
<path d="M247.172 43.9261V45.1171H248.44V47.4986H247.172V48.6892H250.341V43.9261H247.172Z" fill="#BF00FF"/>
<path d="M247.172 66.1539V67.2122H248.44V69.3293H247.172V70.3877H250.341V66.1539H247.172Z" fill="#BF00FF"/>
<path d="M247.172 73.5631V74.6217H248.44V76.7387H247.172V77.797H250.341V73.5631H247.172Z" fill="#BF00FF"/>
<path d="M247.172 50.8062V51.8644H248.44V53.9814H247.172V55.04H250.341V50.8062H247.172Z" fill="#BF00FF"/>
<path d="M247.172 95.2615V96.4525H248.44V98.834H247.172V100.025H250.341V95.2615H247.172Z" fill="#BF00FF"/>
<path d="M210.73 117.489H208.089V121.723H210.73V117.489Z" fill="#BF00FF"/>
<path d="M216.012 109.022H212.843V113.255H216.012V109.022Z" fill="#BF00FF"/>
<path d="M210.73 136.542H208.089V140.775H210.73V136.542Z" fill="#BF00FF"/>
<path d="M216.012 122.782H212.843V127.545H216.012V122.782Z" fill="#BF00FF"/>
<path d="M208.089 110.08V111.138H209.146V113.255H208.089V114.314H210.73V110.08H208.089Z" fill="#BF00FF"/>
<path d="M208.089 144.48V145.538H209.146V147.655H208.089V148.714H210.73V144.48H208.089Z" fill="#BF00FF"/>
<path d="M241.891 23.2861H238.722V27.52H241.891V23.2861Z" fill="#BF00FF"/>
<path d="M241.891 58.7446H238.722V62.9785H241.891V58.7446Z" fill="#BF00FF"/>
<path d="M242.947 131.249H238.722V131.778H242.947V131.249Z" fill="#BF00FF"/>
<path d="M238.722 36.5169V37.7076H239.989V40.0893H238.722V41.28H241.891V36.5169H238.722Z" fill="#BF00FF"/>
<path d="M238.722 43.9261V45.1171H239.989V47.4986H238.722V48.6892H241.891V43.9261H238.722Z" fill="#BF00FF"/>
<path d="M238.722 51.3354V52.394H239.989V54.5106H238.722V55.5692H241.891V51.3354H238.722Z" fill="#BF00FF"/>
<path d="M241.891 73.5631H238.722V77.797H241.891V73.5631Z" fill="#BF00FF"/>
<path d="M238.722 66.1539V67.2122H239.989V69.3293H238.722V70.3877H241.891V66.1539H238.722Z" fill="#BF00FF"/>
<path d="M241.891 87.8523H238.722V92.6154H241.891V87.8523Z" fill="#BF00FF"/>
<path d="M238.722 80.4431V81.6337H239.989V84.0152H238.722V85.2062H241.891V80.4431H238.722Z" fill="#BF00FF"/>
<path d="M241.891 102.671H238.722V106.905H241.891V102.671Z" fill="#BF00FF"/>
<path d="M238.722 95.2615V96.4525H239.989V98.834H238.722V100.025H241.891V95.2615H238.722Z" fill="#BF00FF"/>
<path d="M241.891 117.489H238.722V121.723H241.891V117.489Z" fill="#BF00FF"/>
<path d="M241.891 136.542H238.722V140.775H241.891V136.542Z" fill="#BF00FF"/>
<path d="M238.722 110.08V111.138H239.989V113.255H238.722V114.314H241.891V110.08H238.722Z" fill="#BF00FF"/>
<path d="M238.722 144.48V145.538H239.989V147.655H238.722V148.714H241.891V144.48H238.722Z" fill="#BF00FF"/>
<path d="M255.094 23.2861H252.454V27.52H255.094V23.2861Z" fill="#BF00FF"/>
<path d="M255.094 58.7446H252.454V62.9785H255.094V58.7446Z" fill="#BF00FF"/>
<path d="M256.151 131.249H252.454V131.778H256.151V131.249Z" fill="#BF00FF"/>
<path d="M252.454 36.5169V37.7076H253.51V40.0893H252.454V41.28H255.094V36.5169H252.454Z" fill="#BF00FF"/>
<path d="M252.454 43.9261V45.1171H253.51V47.4986H252.454V48.6892H255.094V43.9261H252.454Z" fill="#BF00FF"/>
<path d="M252.454 51.3354V52.394H253.51V54.5106H252.454V55.5692H255.094V51.3354H252.454Z" fill="#BF00FF"/>
<path d="M255.094 73.5631H252.454V77.797H255.094V73.5631Z" fill="#BF00FF"/>
<path d="M252.454 66.1539V67.2122H253.51V69.3293H252.454V70.3877H255.094V66.1539H252.454Z" fill="#BF00FF"/>
<path d="M255.094 87.8523H252.454V92.6154H255.094V87.8523Z" fill="#BF00FF"/>
<path d="M252.454 80.4431V81.6337H253.51V84.0152H252.454V85.2062H255.094V80.4431H252.454Z" fill="#BF00FF"/>
<path d="M255.094 102.671H252.454V106.905H255.094V102.671Z" fill="#BF00FF"/>
<path d="M252.454 95.2615V96.4525H253.51V98.834H252.454V100.025H255.094V95.2615H252.454Z" fill="#BF00FF"/>
<path d="M255.094 117.489H252.454V121.723H255.094V117.489Z" fill="#BF00FF"/>
<path d="M255.094 136.542H252.454V140.775H255.094V136.542Z" fill="#BF00FF"/>
<path d="M252.454 110.08V111.138H253.51V113.255H252.454V114.314H255.094V110.08H252.454Z" fill="#BF00FF"/>
<path d="M252.454 144.48V145.538H253.51V147.655H252.454V148.714H255.094V144.48H252.454Z" fill="#BF00FF"/>
<path d="M212.843 136.542V137.6H214.11V139.717H212.843V140.775H216.012V136.542H212.843Z" fill="#BF00FF"/>
<path d="M212.843 143.951V145.009H214.11V147.126H212.843V148.185H216.012V143.951H212.843Z" fill="#BF00FF"/>
<path d="M198.583 58.7446V59.8029H199.639V61.9198H198.583V62.9785H201.223V58.7446H198.583Z" fill="#BF00FF"/>
<path d="M198.583 87.3231V88.5137H199.639V90.8955H198.583V92.0861H201.223V87.3231H198.583Z" fill="#BF00FF"/>
<path d="M198.583 94.7323V95.9233H199.639V98.3048H198.583V99.4954H201.223V94.7323H198.583Z" fill="#BF00FF"/>
<path d="M198.583 109.551V110.609H199.639V112.726H198.583V113.785H201.223V109.551H198.583Z" fill="#BF00FF"/>
<path d="M198.583 130.191V131.382H199.639V133.763H198.583V134.954H201.223V130.191H198.583Z" fill="#BF00FF"/>
<path d="M198.583 136.542V137.6H199.639V139.717H198.583V140.775H201.223V136.542H198.583Z" fill="#BF00FF"/>
<path d="M230.271 24.3446H227.631V28.5785H230.271V24.3446Z" fill="#BF00FF"/>
<path d="M230.271 31.7538H227.631V35.9877H230.271V31.7538Z" fill="#BF00FF"/>
<path d="M230.271 39.6923H226.574V40.2216H230.271V39.6923Z" fill="#BF00FF"/>
<path d="M230.271 75.68H226.574V76.2092H230.271V75.68Z" fill="#BF00FF"/>
<path d="M230.271 82.0308H226.574V82.56H230.271V82.0308Z" fill="#BF00FF"/>
<path d="M227.631 44.4554V45.6461H228.687V48.0278H227.631V49.2185H230.271V44.4554H227.631Z" fill="#BF00FF"/>
<path d="M227.631 58.7446V59.8029H228.687V61.9198H227.631V62.9785H230.271V58.7446H227.631Z" fill="#BF00FF"/>
<path d="M227.631 87.3231V88.5137H228.687V90.8955H227.631V92.0861H230.271V87.3231H227.631Z" fill="#BF00FF"/>
<path d="M262.488 73.5631H259.848V77.797H262.488V73.5631Z" fill="#BF00FF"/>
<path d="M262.488 80.4431H259.848V85.2062H262.488V80.4431Z" fill="#BF00FF"/>
<path d="M262.488 88.3815H258.791V88.9108H262.488V88.3815Z" fill="#BF00FF"/>
<path d="M262.488 124.369H258.791V125.428H262.488V124.369Z" fill="#BF00FF"/>
<path d="M262.488 130.72H258.791V131.249H262.488V130.72Z" fill="#BF00FF"/>
<path d="M259.848 93.6738V94.7321H260.904V96.849H259.848V97.9077H262.488V93.6738H259.848Z" fill="#BF00FF"/>
<path d="M259.848 107.963V109.022H260.904V111.138H259.848V112.197H262.488V107.963H259.848Z" fill="#BF00FF"/>
<path d="M259.848 136.542V137.6H260.904V139.717H259.848V140.775H262.488V136.542H259.848Z" fill="#BF00FF"/>
<path d="M175.08 84.1477C175.809 84.1477 176.401 83.6738 176.401 83.0892C176.401 82.5047 175.809 82.0308 175.08 82.0308C174.351 82.0308 173.76 82.5047 173.76 83.0892C173.76 83.6738 174.351 84.1477 175.08 84.1477Z" fill="#F2F2F2"/>
<path d="M175.344 83.0892H174.816V100.025H175.344V83.0892Z" fill="#3F3D56"/>
</svg>
