<svg width="306" height="251" viewBox="0 0 306 251" fill="none" xmlns="http://www.w3.org/2000/svg">
<g clip-path="url(#clip0_19:1282)">
<path opacity="0.3" d="M289.28 79.7776C298.514 79.7776 306 72.2953 306 63.0653C306 53.8354 298.514 46.353 289.28 46.353C280.046 46.353 272.561 53.8354 272.561 63.0653C272.561 72.2953 280.046 79.7776 289.28 79.7776Z" fill="#18FFFF" fill-opacity="0.52"/>
<path d="M289.28 72.5251C294.507 72.5251 298.744 68.2898 298.744 63.0653C298.744 57.8408 294.507 53.6055 289.28 53.6055C284.054 53.6055 279.817 57.8408 279.817 63.0653C279.817 68.2898 284.054 72.5251 289.28 72.5251Z" fill="#BF00FF"/>
<path opacity="0.3" d="M278.239 33.4246C287.473 33.4246 294.959 25.9423 294.959 16.7123C294.959 7.48236 287.473 0 278.239 0C269.005 0 261.52 7.48236 261.52 16.7123C261.52 25.9423 269.005 33.4246 278.239 33.4246Z" fill="#18FFFF" fill-opacity="0.52"/>
<path d="M278.239 26.1722C283.466 26.1722 287.703 21.9369 287.703 16.7124C287.703 11.4879 283.466 7.25256 278.239 7.25256C273.012 7.25256 268.775 11.4879 268.775 16.7124C268.775 21.9369 273.012 26.1722 278.239 26.1722Z" fill="#BF00FF"/>
<path opacity="0.3" d="M16.7196 96.4899C25.9536 96.4899 33.4392 89.0076 33.4392 79.7776C33.4392 70.5477 25.9536 63.0653 16.7196 63.0653C7.48561 63.0653 0 70.5477 0 79.7776C0 89.0076 7.48561 96.4899 16.7196 96.4899Z" fill="#18FFFF" fill-opacity="0.52"/>
<path d="M16.7195 89.2375C21.9463 89.2375 26.1834 85.0022 26.1834 79.7777C26.1834 74.5532 21.9463 70.3179 16.7195 70.3179C11.4928 70.3179 7.25562 74.5532 7.25562 79.7777C7.25562 85.0022 11.4928 89.2375 16.7195 89.2375Z" fill="#BF00FF"/>
<path opacity="0.3" d="M31.5464 226.405C40.7803 226.405 48.266 218.922 48.266 209.692C48.266 200.462 40.7803 192.98 31.5464 192.98C22.3124 192.98 14.8268 200.462 14.8268 209.692C14.8268 218.922 22.3124 226.405 31.5464 226.405Z" fill="#18FFFF" fill-opacity="0.52"/>
<path d="M31.5464 219.152C36.7732 219.152 41.0104 214.917 41.0104 209.692C41.0104 204.468 36.7732 200.232 31.5464 200.232C26.3197 200.232 22.0825 204.468 22.0825 209.692C22.0825 214.917 26.3197 219.152 31.5464 219.152Z" fill="#BF00FF"/>
<path opacity="0.3" d="M54.2597 48.2449C63.4937 48.2449 70.9793 40.7626 70.9793 31.5326C70.9793 22.3027 63.4937 14.8203 54.2597 14.8203C45.0258 14.8203 37.5402 22.3027 37.5402 31.5326C37.5402 40.7626 45.0258 48.2449 54.2597 48.2449Z" fill="#18FFFF" fill-opacity="0.52"/>
<path d="M54.2598 40.9925C59.4866 40.9925 63.7237 36.7572 63.7237 31.5327C63.7237 26.3082 59.4866 22.0729 54.2598 22.0729C49.033 22.0729 44.7959 26.3082 44.7959 31.5327C44.7959 36.7572 49.033 40.9925 54.2598 40.9925Z" fill="#BF00FF"/>
<path d="M273.823 135.906C273.823 192.141 233.472 238.958 180.13 249.004C179.922 249.045 179.71 249.083 179.499 249.121C176.183 249.729 172.819 250.191 169.404 250.505C169.193 250.527 168.985 250.546 168.773 250.562C165.448 250.852 162.083 250.998 158.678 251C158.467 251 158.259 251 158.047 250.997C154.647 250.981 151.282 250.817 147.953 250.505C147.741 250.489 147.533 250.467 147.322 250.445C143.912 250.114 140.547 249.634 137.227 249.004C137.016 248.966 136.804 248.925 136.596 248.884C83.5664 238.589 43.5341 191.92 43.5341 135.906C43.5341 72.3422 95.0871 20.8115 158.678 20.8115C222.27 20.8115 273.823 72.3422 273.823 135.906Z" fill="#3F3D56"/>
<path d="M180.445 86.5571H179.814V180.051H180.445V86.5571Z" fill="#BF00FF"/>
<path d="M180.445 46.4799H179.814V74.062H180.445V46.4799Z" fill="#BF00FF"/>
<path d="M137.227 43.6018H136.596V180.052H137.227V43.6018Z" fill="#BF00FF"/>
<path d="M147.953 31.5327H147.322V62.2634H147.953V31.5327Z" fill="#BF00FF"/>
<path d="M147.953 76.9397H147.322V170.477H147.953V76.9397Z" fill="#BF00FF"/>
<path d="M147.953 185.018V250.505C147.741 250.489 147.533 250.467 147.322 250.445V185.018H147.953Z" fill="#BF00FF"/>
<path d="M158.678 21.4423H158.047V108.266H158.678V21.4423Z" fill="#BF00FF"/>
<path d="M158.678 120.303V251C158.467 251 158.259 251 158.047 250.997V120.303H158.678Z" fill="#BF00FF"/>
<path d="M169.404 31.5327H168.773V151.987H169.404V31.5327Z" fill="#BF00FF"/>
<path d="M169.404 164.916H168.773V232.45H169.404V164.916Z" fill="#BF00FF"/>
<path d="M169.404 246.753V250.505C169.193 250.527 168.985 250.546 168.773 250.562V246.753H169.404Z" fill="#BF00FF"/>
<path d="M180.13 196.448V249.004C179.922 249.045 179.71 249.083 179.499 249.121V196.448H180.13Z" fill="#BF00FF"/>
<path d="M137.227 196.448V249.004C137.016 248.966 136.804 248.925 136.596 248.884V196.448H137.227Z" fill="#BF00FF"/>
<path d="M126.501 55.8127H125.87V75.4922H126.501V55.8127Z" fill="#BF00FF"/>
<path d="M126.501 90.2703H125.87V180.051H126.501V90.2703Z" fill="#BF00FF"/>
<path d="M115.775 63.0653H115.144V180.051H115.775V63.0653Z" fill="#BF00FF"/>
<path d="M105.049 72.5251H104.419V110.65H105.049V72.5251Z" fill="#BF00FF"/>
<path d="M105.049 123.283H104.419V180.052H105.049V123.283Z" fill="#BF00FF"/>
<path d="M94.3237 82.6156H93.6927V146.165H94.3237V82.6156Z" fill="#BF00FF"/>
<path d="M94.3237 157.979H93.6927V180.051H94.3237V157.979Z" fill="#BF00FF"/>
<path d="M83.598 92.0754H82.967V113.391H83.598V92.0754Z" fill="#BF00FF"/>
<path d="M83.598 127.335H82.967V180.051H83.598V127.335Z" fill="#BF00FF"/>
<path d="M72.8721 97.1206H72.2412V180.051H72.8721V97.1206Z" fill="#BF00FF"/>
<path d="M62.1464 119.824H61.5155V147.238H62.1464V119.824Z" fill="#BF00FF"/>
<path d="M62.1464 159.751H61.5155V180.052H62.1464V159.751Z" fill="#BF00FF"/>
<path d="M186.569 55.8127H186.242V174.691H186.569V55.8127Z" fill="#BF00FF"/>
<path d="M201.581 63.0653H200.951V81.8086H201.581V63.0653Z" fill="#BF00FF"/>
<path d="M201.581 94.3224H200.951V180.051H201.581V94.3224Z" fill="#BF00FF"/>
<path d="M212.307 81.0389H211.676V92.0754H212.307V81.0389Z" fill="#BF00FF"/>
<path d="M212.307 104.453H211.676V159.275H212.307V104.453Z" fill="#BF00FF"/>
<path d="M212.307 170.477H211.676V180.051H212.307V170.477Z" fill="#BF00FF"/>
<path d="M223.033 82.6156H222.402V180.051H223.033V82.6156Z" fill="#BF00FF"/>
<path d="M233.759 92.0754H233.128V123.283H233.759V92.0754Z" fill="#BF00FF"/>
<path d="M233.759 135.081H233.128V180.051H233.759V135.081Z" fill="#BF00FF"/>
<path d="M244.485 97.1206H243.854V180.051H244.485V97.1206Z" fill="#BF00FF"/>
<path d="M136.911 196.764C136.287 196.764 135.678 196.579 135.159 196.232C134.64 195.886 134.236 195.393 133.997 194.817C133.758 194.241 133.696 193.607 133.817 192.995C133.939 192.384 134.24 191.822 134.681 191.381C135.122 190.94 135.684 190.64 136.296 190.518C136.908 190.396 137.542 190.459 138.119 190.697C138.695 190.936 139.188 191.34 139.534 191.859C139.881 192.377 140.066 192.987 140.066 193.611C140.065 194.447 139.732 195.248 139.141 195.839C138.55 196.43 137.748 196.763 136.911 196.764ZM136.911 191.088C136.412 191.088 135.924 191.236 135.509 191.513C135.094 191.79 134.771 192.184 134.58 192.645C134.389 193.106 134.339 193.613 134.436 194.103C134.534 194.592 134.774 195.042 135.127 195.394C135.48 195.747 135.929 195.987 136.419 196.085C136.909 196.182 137.416 196.132 137.877 195.941C138.338 195.75 138.732 195.427 139.01 195.012C139.287 194.597 139.435 194.109 139.435 193.611C139.434 192.942 139.168 192.301 138.695 191.828C138.222 191.355 137.58 191.089 136.911 191.088Z" fill="#BF00FF"/>
<path d="M147.637 180.367C147.013 180.367 146.403 180.182 145.884 179.835C145.366 179.489 144.961 178.996 144.723 178.42C144.484 177.844 144.421 177.21 144.543 176.598C144.665 175.987 144.965 175.425 145.406 174.984C145.848 174.543 146.41 174.243 147.022 174.121C147.634 173.999 148.268 174.062 148.844 174.3C149.421 174.539 149.913 174.943 150.26 175.462C150.607 175.98 150.792 176.59 150.792 177.214C150.791 178.05 150.458 178.851 149.867 179.442C149.275 180.033 148.473 180.366 147.637 180.367ZM147.637 174.691C147.138 174.691 146.65 174.839 146.235 175.116C145.82 175.393 145.496 175.787 145.305 176.248C145.114 176.709 145.064 177.216 145.162 177.706C145.259 178.195 145.5 178.645 145.853 178.997C146.205 179.35 146.655 179.59 147.145 179.688C147.634 179.785 148.142 179.735 148.603 179.544C149.064 179.353 149.458 179.03 149.735 178.615C150.013 178.2 150.161 177.712 150.161 177.214C150.16 176.545 149.894 175.904 149.421 175.431C148.948 174.958 148.306 174.692 147.637 174.691Z" fill="#BF00FF"/>
<path d="M180.13 196.764C179.506 196.764 178.896 196.579 178.377 196.232C177.858 195.886 177.454 195.393 177.215 194.817C176.977 194.241 176.914 193.607 177.036 192.995C177.158 192.384 177.458 191.822 177.899 191.381C178.34 190.94 178.902 190.64 179.514 190.518C180.126 190.396 180.761 190.459 181.337 190.697C181.914 190.936 182.406 191.34 182.753 191.859C183.099 192.377 183.285 192.987 183.285 193.611C183.284 194.447 182.951 195.248 182.359 195.839C181.768 196.43 180.966 196.763 180.13 196.764ZM180.13 191.088C179.631 191.088 179.143 191.236 178.728 191.513C178.313 191.79 177.989 192.184 177.798 192.645C177.607 193.106 177.557 193.613 177.655 194.103C177.752 194.592 177.992 195.042 178.345 195.394C178.698 195.747 179.148 195.987 179.638 196.085C180.127 196.182 180.635 196.132 181.096 195.941C181.557 195.75 181.951 195.427 182.228 195.012C182.506 194.597 182.654 194.109 182.654 193.611C182.653 192.942 182.387 192.301 181.914 191.828C181.44 191.355 180.799 191.089 180.13 191.088Z" fill="#BF00FF"/>
<path d="M169.089 236.18C168.465 236.18 167.855 236.365 167.336 236.711C166.817 237.058 166.413 237.55 166.174 238.126C165.935 238.702 165.873 239.336 165.995 239.948C166.116 240.56 166.417 241.122 166.858 241.563C167.299 242.004 167.861 242.304 168.473 242.426C169.085 242.547 169.72 242.485 170.296 242.246C170.872 242.008 171.365 241.603 171.712 241.085C172.058 240.566 172.243 239.957 172.243 239.333C172.242 238.497 171.909 237.696 171.318 237.105C170.727 236.514 169.925 236.181 169.089 236.18ZM169.089 241.856C168.59 241.856 168.102 241.708 167.687 241.43C167.272 241.153 166.948 240.759 166.757 240.298C166.566 239.837 166.516 239.33 166.614 238.841C166.711 238.351 166.951 237.902 167.304 237.549C167.657 237.196 168.107 236.956 168.596 236.859C169.086 236.761 169.593 236.811 170.054 237.002C170.516 237.193 170.91 237.517 171.187 237.931C171.464 238.346 171.612 238.834 171.612 239.333C171.612 240.002 171.345 240.643 170.872 241.116C170.399 241.589 169.758 241.855 169.089 241.856Z" fill="#BF00FF"/>
<path d="M169.089 161.132C168.465 161.132 167.855 160.947 167.336 160.601C166.817 160.254 166.413 159.762 166.174 159.185C165.935 158.609 165.873 157.975 165.995 157.364C166.116 156.752 166.417 156.19 166.858 155.749C167.299 155.308 167.861 155.008 168.473 154.886C169.085 154.764 169.72 154.827 170.296 155.065C170.872 155.304 171.365 155.708 171.712 156.227C172.058 156.745 172.243 157.355 172.243 157.979C172.242 158.815 171.91 159.616 171.318 160.207C170.727 160.798 169.925 161.131 169.089 161.132ZM169.089 155.456C168.59 155.456 168.102 155.604 167.687 155.881C167.272 156.158 166.948 156.552 166.757 157.013C166.566 157.474 166.516 157.981 166.614 158.471C166.711 158.96 166.951 159.41 167.304 159.762C167.657 160.115 168.107 160.355 168.596 160.453C169.086 160.55 169.593 160.5 170.054 160.309C170.516 160.118 170.91 159.795 171.187 159.38C171.464 158.965 171.612 158.478 171.612 157.979C171.612 157.31 171.346 156.669 170.872 156.196C170.399 155.723 169.758 155.457 169.089 155.456Z" fill="#BF00FF"/>
<path d="M158.363 117.302C157.739 117.302 157.129 117.117 156.61 116.77C156.091 116.424 155.687 115.931 155.448 115.355C155.21 114.779 155.147 114.145 155.269 113.533C155.391 112.921 155.691 112.36 156.132 111.919C156.573 111.478 157.136 111.177 157.747 111.056C158.359 110.934 158.994 110.996 159.57 111.235C160.147 111.474 160.639 111.878 160.986 112.396C161.333 112.915 161.518 113.525 161.518 114.148C161.517 114.984 161.184 115.786 160.593 116.377C160.001 116.968 159.199 117.301 158.363 117.302Z" fill="#BF00FF"/>
<path d="M179.814 82.931C179.19 82.931 178.581 82.746 178.062 82.3995C177.543 82.053 177.139 81.5606 176.9 80.9844C176.661 80.4082 176.599 79.7742 176.72 79.1625C176.842 78.5508 177.143 77.989 177.584 77.548C178.025 77.107 178.587 76.8067 179.199 76.685C179.811 76.5633 180.445 76.6258 181.022 76.8644C181.598 77.1031 182.091 77.5073 182.437 78.0258C182.784 78.5444 182.969 79.154 182.969 79.7777C182.968 80.6137 182.635 81.4152 182.044 82.0063C181.453 82.5975 180.651 82.93 179.814 82.931ZM179.814 77.255C179.315 77.255 178.827 77.403 178.412 77.6802C177.997 77.9574 177.674 78.3514 177.483 78.8123C177.292 79.2733 177.242 79.7805 177.339 80.2698C177.437 80.7592 177.677 81.2086 178.03 81.5614C178.383 81.9142 178.833 82.1545 179.322 82.2518C179.812 82.3492 180.319 82.2992 180.78 82.1083C181.241 81.9173 181.635 81.594 181.913 81.1792C182.19 80.7643 182.338 80.2766 182.338 79.7777C182.337 79.1089 182.071 78.4677 181.598 77.9948C181.125 77.5218 180.484 77.2558 179.814 77.255Z" fill="#BF00FF"/>
<path d="M104.734 120.139C104.11 120.139 103.5 119.954 102.981 119.608C102.463 119.262 102.058 118.769 101.819 118.193C101.581 117.617 101.518 116.983 101.64 116.371C101.762 115.759 102.062 115.197 102.503 114.756C102.945 114.315 103.507 114.015 104.119 113.893C104.73 113.772 105.365 113.834 105.941 114.073C106.518 114.312 107.01 114.716 107.357 115.234C107.704 115.753 107.889 116.362 107.889 116.986C107.888 117.822 107.555 118.624 106.964 119.215C106.372 119.806 105.57 120.138 104.734 120.139ZM104.734 114.464C104.235 114.464 103.747 114.611 103.332 114.889C102.917 115.166 102.593 115.56 102.402 116.021C102.211 116.482 102.161 116.989 102.259 117.478C102.356 117.968 102.597 118.417 102.949 118.77C103.302 119.123 103.752 119.363 104.242 119.46C104.731 119.558 105.239 119.508 105.7 119.317C106.161 119.126 106.555 118.802 106.832 118.388C107.11 117.973 107.258 117.485 107.258 116.986C107.257 116.317 106.991 115.676 106.518 115.203C106.045 114.73 105.403 114.464 104.734 114.464Z" fill="#BF00FF"/>
<path d="M83.2824 122.977C82.6585 122.977 82.0486 122.793 81.5298 122.446C81.011 122.1 80.6067 121.607 80.3679 121.031C80.1292 120.455 80.0667 119.821 80.1884 119.209C80.3101 118.597 80.6106 118.035 81.0518 117.594C81.493 117.153 82.0551 116.853 82.667 116.731C83.2789 116.61 83.9132 116.672 84.4897 116.911C85.0661 117.15 85.5588 117.554 85.9054 118.072C86.252 118.591 86.4371 119.201 86.4371 119.824C86.4361 120.66 86.1034 121.462 85.512 122.053C84.9206 122.644 84.1188 122.976 83.2824 122.977ZM83.2824 117.302C82.7833 117.302 82.2954 117.45 81.8803 117.727C81.4653 118.004 81.1419 118.398 80.9508 118.859C80.7598 119.32 80.7099 119.827 80.8072 120.316C80.9046 120.806 81.145 121.255 81.4979 121.608C81.8509 121.961 82.3005 122.201 82.7901 122.298C83.2796 122.396 83.7871 122.346 84.2482 122.155C84.7094 121.964 85.1035 121.641 85.3808 121.226C85.6581 120.811 85.8061 120.323 85.8061 119.824C85.8054 119.155 85.5392 118.514 85.0661 118.041C84.593 117.568 83.9515 117.302 83.2824 117.302Z" fill="#BF00FF"/>
<path d="M94.0083 155.141C93.3844 155.141 92.7744 154.956 92.2557 154.609C91.7369 154.263 91.3325 153.77 91.0938 153.194C90.855 152.618 90.7925 151.984 90.9143 151.372C91.036 150.761 91.3364 150.199 91.7776 149.758C92.2188 149.317 92.7809 149.016 93.3928 148.895C94.0048 148.773 94.6391 148.836 95.2155 149.074C95.792 149.313 96.2846 149.717 96.6313 150.236C96.9779 150.754 97.1629 151.364 97.1629 151.987C97.162 152.823 96.8293 153.625 96.2379 154.216C95.6465 154.807 94.8447 155.14 94.0083 155.141Z" fill="#BF00FF"/>
<path d="M180.13 46.6683C179.506 46.6683 178.896 46.4834 178.377 46.1369C177.858 45.7904 177.454 45.298 177.215 44.7218C176.977 44.1456 176.914 43.5116 177.036 42.8999C177.158 42.2882 177.458 41.7264 177.899 41.2854C178.34 40.8444 178.902 40.5441 179.514 40.4224C180.126 40.3007 180.761 40.3632 181.337 40.6018C181.914 40.8405 182.406 41.2447 182.753 41.7632C183.099 42.2818 183.285 42.8914 183.285 43.5151C183.284 44.3511 182.951 45.1526 182.359 45.7437C181.768 46.3349 180.966 46.6674 180.13 46.6683ZM180.13 40.9925C179.631 40.9925 179.143 41.1404 178.728 41.4176C178.313 41.6948 177.989 42.0888 177.798 42.5497C177.607 43.0107 177.557 43.5179 177.655 44.0072C177.752 44.4966 177.992 44.946 178.345 45.2988C178.698 45.6516 179.148 45.8919 179.638 45.9892C180.127 46.0866 180.635 46.0366 181.096 45.8457C181.557 45.6547 181.951 45.3314 182.228 44.9166C182.506 44.5017 182.654 44.014 182.654 43.5151C182.653 42.8463 182.387 42.2051 181.914 41.7322C181.44 41.2593 180.799 40.9932 180.13 40.9925Z" fill="#BF00FF"/>
<path d="M126.186 85.7688C125.562 85.7688 124.952 85.5839 124.433 85.2374C123.914 84.8909 123.51 84.3984 123.271 83.8223C123.032 83.2461 122.97 82.6121 123.092 82.0004C123.213 81.3887 123.514 80.8268 123.955 80.3859C124.396 79.9449 124.958 79.6445 125.57 79.5229C126.182 79.4012 126.816 79.4636 127.393 79.7023C127.969 79.941 128.462 80.3451 128.808 80.8637C129.155 81.3822 129.34 81.9919 129.34 82.6155C129.339 83.4516 129.007 84.253 128.415 84.8442C127.824 85.4353 127.022 85.7679 126.186 85.7688ZM126.186 80.0929C125.686 80.0929 125.198 80.2409 124.783 80.5181C124.368 80.7953 124.045 81.1892 123.854 81.6502C123.663 82.1111 123.613 82.6184 123.71 83.1077C123.808 83.597 124.048 84.0465 124.401 84.3993C124.754 84.7521 125.204 84.9924 125.693 85.0897C126.183 85.187 126.69 85.1371 127.151 84.9461C127.612 84.7552 128.007 84.4319 128.284 84.017C128.561 83.6022 128.709 83.1145 128.709 82.6155C128.708 81.9467 128.442 81.3056 127.969 80.8326C127.496 80.3597 126.855 80.0937 126.186 80.0929Z" fill="#BF00FF"/>
<path d="M115.46 63.3806C114.836 63.3806 114.226 63.1957 113.707 62.8492C113.188 62.5027 112.784 62.0102 112.545 61.4341C112.307 60.8579 112.244 60.2239 112.366 59.6122C112.488 59.0005 112.788 58.4387 113.229 57.9977C113.67 57.5567 114.232 57.2564 114.844 57.1347C115.456 57.013 116.091 57.0755 116.667 57.3141C117.243 57.5528 117.736 57.9569 118.083 58.4755C118.429 58.994 118.614 59.6037 118.614 60.2274C118.613 61.0634 118.281 61.8648 117.689 62.456C117.098 63.0471 116.296 63.3797 115.46 63.3806ZM115.46 57.7047C114.961 57.7047 114.473 57.8527 114.058 58.1299C113.643 58.4071 113.319 58.8011 113.128 59.262C112.937 59.7229 112.887 60.2302 112.985 60.7195C113.082 61.2088 113.322 61.6583 113.675 62.0111C114.028 62.3639 114.478 62.6042 114.967 62.7015C115.457 62.7988 115.964 62.7489 116.426 62.5579C116.887 62.367 117.281 62.0437 117.558 61.6288C117.836 61.214 117.984 60.7263 117.984 60.2274C117.983 59.5586 117.717 58.9174 117.244 58.4444C116.77 57.9715 116.129 57.7055 115.46 57.7047Z" fill="#BF00FF"/>
<path d="M61.8309 156.717C61.207 156.717 60.5971 156.532 60.0783 156.186C59.5595 155.839 59.1552 155.347 58.9164 154.771C58.6776 154.195 58.6152 153.561 58.7369 152.949C58.8586 152.337 59.1591 151.775 59.6002 151.334C60.0414 150.893 60.6035 150.593 61.2155 150.471C61.8274 150.35 62.4617 150.412 63.0381 150.651C63.6146 150.89 64.1073 151.294 64.4539 151.812C64.8005 152.331 64.9856 152.94 64.9856 153.564C64.9846 154.4 64.6519 155.202 64.0605 155.793C63.4691 156.384 62.6673 156.716 61.8309 156.717ZM61.8309 151.042C61.3318 151.042 60.8438 151.189 60.4288 151.467C60.0138 151.744 59.6903 152.138 59.4993 152.599C59.3083 153.06 59.2583 153.567 59.3557 154.056C59.4531 154.546 59.6934 154.995 60.0464 155.348C60.3993 155.701 60.849 155.941 61.3386 156.038C61.8281 156.136 62.3355 156.086 62.7967 155.895C63.2578 155.704 63.652 155.38 63.9293 154.966C64.2066 154.551 64.3546 154.063 64.3546 153.564C64.3539 152.895 64.0877 152.254 63.6146 151.781C63.1415 151.308 62.5 151.042 61.8309 151.042Z" fill="#BF00FF"/>
<path d="M254.264 119.824H253.633V147.238H254.264V119.824Z" fill="#BF00FF"/>
<path d="M254.264 159.751H253.633V180.052H254.264V159.751Z" fill="#BF00FF"/>
<path d="M253.948 156.717C253.325 156.717 252.715 156.532 252.196 156.186C251.677 155.839 251.273 155.347 251.034 154.771C250.795 154.195 250.733 153.561 250.854 152.949C250.976 152.337 251.277 151.775 251.718 151.334C252.159 150.893 252.721 150.593 253.333 150.471C253.945 150.35 254.579 150.412 255.156 150.651C255.732 150.89 256.225 151.294 256.571 151.812C256.918 152.331 257.103 152.94 257.103 153.564C257.102 154.4 256.769 155.202 256.178 155.793C255.587 156.384 254.785 156.716 253.948 156.717ZM253.948 151.042C253.449 151.042 252.961 151.189 252.546 151.467C252.131 151.744 251.808 152.138 251.617 152.599C251.426 153.06 251.376 153.567 251.473 154.056C251.571 154.546 251.811 154.995 252.164 155.348C252.517 155.701 252.967 155.941 253.456 156.038C253.946 156.136 254.453 156.086 254.914 155.895C255.375 155.704 255.77 155.38 256.047 154.966C256.324 154.551 256.472 154.063 256.472 153.564C256.471 152.895 256.205 152.254 255.732 151.781C255.259 151.308 254.618 151.042 253.948 151.042Z" fill="#BF00FF"/>
<path d="M233.443 131.807C232.819 131.807 232.209 131.622 231.691 131.275C231.172 130.929 230.768 130.436 230.529 129.86C230.29 129.284 230.228 128.65 230.349 128.038C230.471 127.426 230.771 126.865 231.213 126.424C231.654 125.983 232.216 125.682 232.828 125.561C233.44 125.439 234.074 125.501 234.651 125.74C235.227 125.979 235.72 126.383 236.066 126.901C236.413 127.42 236.598 128.03 236.598 128.653C236.597 129.489 236.264 130.291 235.673 130.882C235.082 131.473 234.28 131.806 233.443 131.807ZM233.443 126.131C232.944 126.131 232.456 126.279 232.041 126.556C231.626 126.833 231.303 127.227 231.112 127.688C230.921 128.149 230.871 128.656 230.968 129.145C231.066 129.635 231.306 130.084 231.659 130.437C232.012 130.79 232.461 131.03 232.951 131.127C233.441 131.225 233.948 131.175 234.409 130.984C234.87 130.793 235.264 130.47 235.542 130.055C235.819 129.64 235.967 129.152 235.967 128.653C235.966 127.984 235.7 127.343 235.227 126.87C234.754 126.397 234.112 126.131 233.443 126.131Z" fill="#BF00FF"/>
<path d="M211.992 168.069C211.368 168.069 210.758 167.884 210.239 167.538C209.72 167.191 209.316 166.699 209.077 166.123C208.839 165.546 208.776 164.912 208.898 164.301C209.019 163.689 209.32 163.127 209.761 162.686C210.202 162.245 210.764 161.945 211.376 161.823C211.988 161.701 212.623 161.764 213.199 162.003C213.775 162.241 214.268 162.645 214.615 163.164C214.961 163.683 215.146 164.292 215.146 164.916C215.145 165.752 214.813 166.553 214.221 167.144C213.63 167.736 212.828 168.068 211.992 168.069ZM211.992 162.393C211.493 162.393 211.005 162.541 210.59 162.818C210.175 163.096 209.851 163.49 209.66 163.95C209.469 164.411 209.419 164.919 209.517 165.408C209.614 165.897 209.854 166.347 210.207 166.7C210.56 167.052 211.01 167.293 211.499 167.39C211.989 167.487 212.496 167.437 212.958 167.246C213.419 167.056 213.813 166.732 214.09 166.317C214.367 165.902 214.516 165.415 214.516 164.916C214.515 164.247 214.249 163.606 213.775 163.133C213.302 162.66 212.661 162.394 211.992 162.393Z" fill="#BF00FF"/>
<path d="M147.637 72.8405C147.013 72.8405 146.403 72.6555 145.884 72.3091C145.366 71.9626 144.961 71.4701 144.723 70.8939C144.484 70.3177 144.421 69.6837 144.543 69.072C144.665 68.4604 144.965 67.8985 145.406 67.4575C145.848 67.0165 146.41 66.7162 147.022 66.5945C147.634 66.4729 148.268 66.5353 148.844 66.774C149.421 67.0126 149.913 67.4168 150.26 67.9354C150.607 68.4539 150.792 69.0636 150.792 69.6872C150.791 70.5232 150.458 71.3247 149.867 71.9159C149.275 72.507 148.473 72.8395 147.637 72.8405Z" fill="#BF00FF"/>
<path d="M211.992 101.535C211.368 101.535 210.758 101.35 210.239 101.004C209.72 100.657 209.316 100.165 209.077 99.5886C208.839 99.0124 208.776 98.3784 208.898 97.7667C209.019 97.1551 209.32 96.5932 209.761 96.1522C210.202 95.7112 210.764 95.4109 211.376 95.2892C211.988 95.1676 212.623 95.23 213.199 95.4687C213.775 95.7073 214.268 96.1115 214.615 96.6301C214.961 97.1486 215.146 97.7583 215.146 98.3819C215.145 99.2179 214.813 100.019 214.221 100.611C213.63 101.202 212.828 101.534 211.992 101.535ZM211.992 95.8593C211.493 95.8593 211.005 96.0072 210.59 96.2844C210.175 96.5616 209.851 96.9556 209.66 97.4165C209.469 97.8775 209.419 98.3847 209.517 98.8741C209.614 99.3634 209.854 99.8129 210.207 100.166C210.56 100.518 211.01 100.759 211.499 100.856C211.989 100.953 212.496 100.903 212.958 100.712C213.419 100.522 213.813 100.198 214.09 99.7834C214.367 99.3686 214.516 98.8808 214.516 98.3819C214.515 97.7131 214.249 97.0719 213.775 96.599C213.302 96.1261 212.661 95.8601 211.992 95.8593Z" fill="#BF00FF"/>
<path d="M233.443 92.3907C232.819 92.3907 232.209 92.2058 231.691 91.8593C231.172 91.5128 230.768 91.0204 230.529 90.4442C230.29 89.868 230.228 89.234 230.349 88.6223C230.471 88.0106 230.771 87.4488 231.213 87.0078C231.654 86.5668 232.216 86.2665 232.828 86.1448C233.44 86.0231 234.074 86.0856 234.651 86.3243C235.227 86.5629 235.72 86.9671 236.066 87.4856C236.413 88.0042 236.598 88.6138 236.598 89.2375C236.597 90.0735 236.264 90.875 235.673 91.4661C235.082 92.0573 234.28 92.3898 233.443 92.3907Z" fill="#BF00FF"/>
<path d="M201.266 90.8141C200.642 90.8141 200.032 90.6292 199.513 90.2827C198.995 89.9362 198.59 89.4437 198.351 88.8676C198.113 88.2914 198.05 87.6573 198.172 87.0457C198.294 86.434 198.594 85.8721 199.035 85.4311C199.476 84.9901 200.039 84.6898 200.651 84.5682C201.262 84.4465 201.897 84.5089 202.473 84.7476C203.05 84.9863 203.542 85.3904 203.889 85.909C204.236 86.4275 204.421 87.0372 204.421 87.6608C204.42 88.4969 204.087 89.2983 203.496 89.8895C202.904 90.4806 202.102 90.8132 201.266 90.8141Z" fill="#BF00FF"/>
<path d="M289.596 90.8194L233.122 89.8681L233.133 89.2374L288.965 90.178V63.0653H289.596V90.8194Z" fill="#18FFFF"/>
<path d="M201.557 87.7825L200.975 87.5391L230.71 16.397H278.239V17.0276H231.13L201.557 87.7825Z" fill="#18FFFF"/>
<path d="M158.678 114.464H16.4042V80.093H17.0351V113.833H158.678V114.464Z" fill="#18FFFF"/>
<path d="M147.637 70.0026H53.3134V31.5327H53.9443V69.3719H147.637V70.0026Z" fill="#18FFFF"/>
<path d="M94.3237 210.008H31.5464V209.377H93.6928V151.672H94.3237V210.008Z" fill="#18FFFF"/>
</g>
<defs>
<clipPath id="clip0_19:1282">
<rect width="306" height="251" fill="white"/>
</clipPath>
</defs>
</svg>
