<svg width="1000" height="600" viewBox="0 0 1000 600" fill="none" xmlns="http://www.w3.org/2000/svg">
<line y1="293.75" x2="1000" y2="293.75" stroke="#43CFFB" stroke-width="2.5"/>
<g clip-path="url(#clip0_40:307)">
<path d="M151.077 366.178C190.332 366.178 222.154 334.363 222.154 295.117C222.154 255.871 190.332 224.056 151.077 224.056C111.822 224.056 80 255.871 80 295.117C80 334.363 111.822 366.178 151.077 366.178Z" fill="#BF00FF"/>
<path d="M137.516 225.225L151.077 212.368L164.638 225.225H137.516Z" fill="#BF00FF"/>
<path d="M151.077 92.4529C159.212 92.4529 165.807 85.8596 165.807 77.7264C165.807 69.5933 159.212 63 151.077 63C142.942 63 136.347 69.5933 136.347 77.7264C136.347 85.8596 142.942 92.4529 151.077 92.4529Z" fill="#BF00FF"/>
<path d="M151.077 85.9079C155.597 85.9079 159.26 82.245 159.26 77.7265C159.26 73.2081 155.597 69.5452 151.077 69.5452C146.558 69.5452 142.894 73.2081 142.894 77.7265C142.894 82.245 146.558 85.9079 151.077 85.9079Z" fill="white"/>
<path d="M151.077 228.731V89.8816" stroke="#BF00FF" stroke-width="1.5" stroke-miterlimit="10" stroke-linecap="round"/>
<path d="M616.818 92.4529C624.953 92.4529 631.548 85.8596 631.548 77.7264C631.548 69.5933 624.953 63 616.818 63C608.683 63 602.089 69.5933 602.089 77.7264C602.089 85.8596 608.683 92.4529 616.818 92.4529Z" fill="#BF00FF"/>
<path d="M616.818 366.178C656.073 366.178 687.895 334.363 687.895 295.117C687.895 255.871 656.073 224.056 616.818 224.056C577.564 224.056 545.741 255.871 545.741 295.117C545.741 334.363 577.564 366.178 616.818 366.178Z" fill="#BF00FF"/>
<path d="M603.491 225.225L616.818 212.368L630.379 225.225H603.491Z" fill="#BF00FF"/>
<path d="M616.818 232.705V77.7265" stroke="#BF00FF" stroke-width="1.5" stroke-miterlimit="10" stroke-linecap="round"/>
<path d="M616.818 85.674C621.338 85.674 625.002 82.0111 625.002 77.4926C625.002 72.9742 621.338 69.3113 616.818 69.3113C612.299 69.3113 608.635 72.9742 608.635 77.4926C608.635 82.0111 612.299 85.674 616.818 85.674Z" fill="white"/>
<path d="M383.948 527.234C392.083 527.234 398.677 520.64 398.677 512.507C398.677 504.374 392.083 497.781 383.948 497.781C375.813 497.781 369.218 504.374 369.218 512.507C369.218 520.64 375.813 527.234 383.948 527.234Z" fill="#BF00FF"/>
<path d="M383.948 366.178C423.202 366.178 455.025 334.363 455.025 295.117C455.025 255.871 423.202 224.056 383.948 224.056C344.693 224.056 312.871 255.871 312.871 295.117C312.871 334.363 344.693 366.178 383.948 366.178Z" fill="#BF00FF"/>
<path d="M370.153 364.775L383.48 377.632L397.041 364.775H370.153Z" fill="#BF00FF"/>
<path d="M383.948 512.507V343.27" stroke="#BF00FF" stroke-width="1.5" stroke-miterlimit="10"/>
<path d="M383.948 520.689C388.467 520.689 392.131 517.026 392.131 512.507C392.131 507.989 388.467 504.326 383.948 504.326C379.428 504.326 375.765 507.989 375.765 512.507C375.765 517.026 379.428 520.689 383.948 520.689Z" fill="white"/>
<path d="M849.923 527.234C858.058 527.234 864.653 520.64 864.653 512.507C864.653 504.374 858.058 497.781 849.923 497.781C841.788 497.781 835.193 504.374 835.193 512.507C835.193 520.64 841.788 527.234 849.923 527.234Z" fill="#BF00FF"/>
<path d="M849.923 366.178C889.178 366.178 921 334.363 921 295.117C921 255.871 889.178 224.056 849.923 224.056C810.668 224.056 778.846 255.871 778.846 295.117C778.846 334.363 810.668 366.178 849.923 366.178Z" fill="#BF00FF"/>
<path d="M835.895 364.775L849.455 377.632L862.782 364.775H835.895Z" fill="#BF00FF"/>
<path d="M849.923 512.507V323.401" stroke="#BF00FF" stroke-width="1.5" stroke-miterlimit="10" stroke-linecap="round"/>
<path d="M849.689 520.455C854.209 520.455 857.872 516.792 857.872 512.274C857.872 507.755 854.209 504.092 849.689 504.092C845.17 504.092 841.506 507.755 841.506 512.274C841.506 516.792 845.17 520.455 849.689 520.455Z" fill="white"/>
<path d="M151.077 377.865C152.497 377.865 153.649 376.714 153.649 375.294C153.649 373.874 152.497 372.723 151.077 372.723C149.657 372.723 148.505 373.874 148.505 375.294C148.505 376.714 149.657 377.865 151.077 377.865Z" fill="#D8D8D8"/>
<path d="M151.077 390.722C152.497 390.722 153.649 389.571 153.649 388.151C153.649 386.731 152.497 385.579 151.077 385.579C149.657 385.579 148.505 386.731 148.505 388.151C148.505 389.571 149.657 390.722 151.077 390.722Z" fill="#D8D8D8"/>
<path d="M151.077 403.345C152.497 403.345 153.649 402.193 153.649 400.773C153.649 399.353 152.497 398.202 151.077 398.202C149.657 398.202 148.505 399.353 148.505 400.773C148.505 402.193 149.657 403.345 151.077 403.345Z" fill="#D8D8D8"/>
<path d="M151.077 415.967C152.497 415.967 153.649 414.816 153.649 413.396C153.649 411.976 152.497 410.825 151.077 410.825C149.657 410.825 148.505 411.976 148.505 413.396C148.505 414.816 149.657 415.967 151.077 415.967Z" fill="#D8D8D8"/>
<path d="M151.077 428.59C152.497 428.59 153.649 427.439 153.649 426.019C153.649 424.598 152.497 423.447 151.077 423.447C149.657 423.447 148.505 424.598 148.505 426.019C148.505 427.439 149.657 428.59 151.077 428.59Z" fill="#D8D8D8"/>
<path d="M620.092 377.865C621.512 377.865 622.664 376.714 622.664 375.294C622.664 373.874 621.512 372.723 620.092 372.723C618.671 372.723 617.52 373.874 617.52 375.294C617.52 376.714 618.671 377.865 620.092 377.865Z" fill="#D8D8D8"/>
<path d="M620.092 390.722C621.512 390.722 622.664 389.571 622.664 388.151C622.664 386.731 621.512 385.579 620.092 385.579C618.671 385.579 617.52 386.731 617.52 388.151C617.52 389.571 618.671 390.722 620.092 390.722Z" fill="#D8D8D8"/>
<path d="M620.092 403.345C621.512 403.345 622.664 402.193 622.664 400.773C622.664 399.353 621.512 398.202 620.092 398.202C618.671 398.202 617.52 399.353 617.52 400.773C617.52 402.193 618.671 403.345 620.092 403.345Z" fill="#D8D8D8"/>
<path d="M620.092 415.967C621.512 415.967 622.664 414.816 622.664 413.396C622.664 411.976 621.512 410.825 620.092 410.825C618.671 410.825 617.52 411.976 617.52 413.396C617.52 414.816 618.671 415.967 620.092 415.967Z" fill="#D8D8D8"/>
<path d="M620.092 428.59C621.512 428.59 622.664 427.439 622.664 426.019C622.664 424.598 621.512 423.447 620.092 423.447C618.671 423.447 617.52 424.598 617.52 426.019C617.52 427.439 618.671 428.59 620.092 428.59Z" fill="#D8D8D8"/>
<path d="M383.948 166.786C385.368 166.786 386.52 165.635 386.52 164.215C386.52 162.795 385.368 161.644 383.948 161.644C382.527 161.644 381.376 162.795 381.376 164.215C381.376 165.635 382.527 166.786 383.948 166.786Z" fill="#D8D8D8"/>
<path d="M383.948 179.409C385.368 179.409 386.52 178.258 386.52 176.838C386.52 175.418 385.368 174.266 383.948 174.266C382.527 174.266 381.376 175.418 381.376 176.838C381.376 178.258 382.527 179.409 383.948 179.409Z" fill="#D8D8D8"/>
<path d="M383.948 192.032C385.368 192.032 386.52 190.881 386.52 189.461C386.52 188.04 385.368 186.889 383.948 186.889C382.527 186.889 381.376 188.04 381.376 189.461C381.376 190.881 382.527 192.032 383.948 192.032Z" fill="#D8D8D8"/>
<path d="M383.948 204.654C385.368 204.654 386.52 203.503 386.52 202.083C386.52 200.663 385.368 199.512 383.948 199.512C382.527 199.512 381.376 200.663 381.376 202.083C381.376 203.503 382.527 204.654 383.948 204.654Z" fill="#D8D8D8"/>
<path d="M383.948 217.277C385.368 217.277 386.52 216.126 386.52 214.706C386.52 213.286 385.368 212.134 383.948 212.134C382.527 212.134 381.376 213.286 381.376 214.706C381.376 216.126 382.527 217.277 383.948 217.277Z" fill="#D8D8D8"/>
<path d="M849.689 166.786C851.11 166.786 852.261 165.635 852.261 164.215C852.261 162.795 851.11 161.644 849.689 161.644C848.269 161.644 847.117 162.795 847.117 164.215C847.117 165.635 848.269 166.786 849.689 166.786Z" fill="#D8D8D8"/>
<path d="M849.689 179.409C851.11 179.409 852.261 178.258 852.261 176.838C852.261 175.418 851.11 174.266 849.689 174.266C848.269 174.266 847.117 175.418 847.117 176.838C847.117 178.258 848.269 179.409 849.689 179.409Z" fill="#D8D8D8"/>
<path d="M849.689 192.032C851.11 192.032 852.261 190.881 852.261 189.461C852.261 188.04 851.11 186.889 849.689 186.889C848.269 186.889 847.117 188.04 847.117 189.461C847.117 190.881 848.269 192.032 849.689 192.032Z" fill="#D8D8D8"/>
<path d="M849.689 204.654C851.11 204.654 852.261 203.503 852.261 202.083C852.261 200.663 851.11 199.512 849.689 199.512C848.269 199.512 847.117 200.663 847.117 202.083C847.117 203.503 848.269 204.654 849.689 204.654Z" fill="#D8D8D8"/>
<path d="M849.689 217.277C851.11 217.277 852.261 216.126 852.261 214.706C852.261 213.286 851.11 212.134 849.689 212.134C848.269 212.134 847.117 213.286 847.117 214.706C847.117 216.126 848.269 217.277 849.689 217.277Z" fill="#D8D8D8"/>
</g>
<path d="M128.078 287H124.297V268.734L118.719 270.641V267.438L127.594 264.172H128.078V287ZM137 275.719L138.234 264.25H150.453V267.531H141.391L140.766 272.969C141.818 272.365 143.005 272.062 144.328 272.062C146.495 272.062 148.177 272.755 149.375 274.141C150.583 275.526 151.188 277.391 151.188 279.734C151.188 282.047 150.521 283.891 149.188 285.266C147.854 286.63 146.026 287.312 143.703 287.312C141.62 287.312 139.891 286.724 138.516 285.547C137.151 284.359 136.411 282.797 136.297 280.859H139.969C140.115 281.964 140.51 282.812 141.156 283.406C141.802 283.99 142.646 284.281 143.688 284.281C144.854 284.281 145.76 283.865 146.406 283.031C147.062 282.198 147.391 281.062 147.391 279.625C147.391 278.24 147.031 277.146 146.312 276.344C145.594 275.531 144.604 275.125 143.344 275.125C142.656 275.125 142.073 275.219 141.594 275.406C141.115 275.583 140.594 275.938 140.031 276.469L137 275.719ZM159.172 265.984V270.094H162.156V272.906H159.172V282.344C159.172 282.99 159.297 283.458 159.547 283.75C159.807 284.031 160.266 284.172 160.922 284.172C161.359 284.172 161.802 284.12 162.25 284.016V286.953C161.385 287.193 160.552 287.312 159.75 287.312C156.833 287.312 155.375 285.703 155.375 282.484V272.906H152.594V270.094H155.375V265.984H159.172ZM168.812 271.938C170.052 270.5 171.62 269.781 173.516 269.781C177.12 269.781 178.948 271.839 179 275.953V287H175.203V276.094C175.203 274.927 174.948 274.104 174.438 273.625C173.938 273.135 173.198 272.891 172.219 272.891C170.698 272.891 169.562 273.568 168.812 274.922V287H165.016V263H168.812V271.938ZM144.219 314.219C144.219 316.448 143.833 318.406 143.062 320.094C142.292 321.771 141.188 323.062 139.75 323.969C138.323 324.865 136.677 325.312 134.812 325.312C132.969 325.312 131.323 324.865 129.875 323.969C128.438 323.062 127.323 321.776 126.531 320.109C125.75 318.443 125.354 316.521 125.344 314.344V313.062C125.344 310.844 125.734 308.885 126.516 307.188C127.307 305.49 128.417 304.193 129.844 303.297C131.281 302.391 132.927 301.938 134.781 301.938C136.635 301.938 138.276 302.385 139.703 303.281C141.141 304.167 142.25 305.448 143.031 307.125C143.812 308.792 144.208 310.734 144.219 312.953V314.219ZM140.266 313.031C140.266 310.51 139.786 308.578 138.828 307.234C137.88 305.891 136.531 305.219 134.781 305.219C133.073 305.219 131.734 305.891 130.766 307.234C129.807 308.568 129.318 310.458 129.297 312.906V314.219C129.297 316.719 129.781 318.651 130.75 320.016C131.729 321.38 133.083 322.062 134.812 322.062C136.562 322.062 137.906 321.396 138.844 320.062C139.792 318.729 140.266 316.781 140.266 314.219V313.031ZM154.734 322.281C155.682 322.281 156.469 322.005 157.094 321.453C157.719 320.901 158.052 320.219 158.094 319.406H161.672C161.63 320.458 161.302 321.443 160.688 322.359C160.073 323.266 159.24 323.984 158.188 324.516C157.135 325.047 156 325.312 154.781 325.312C152.417 325.312 150.542 324.547 149.156 323.016C147.771 321.484 147.078 319.37 147.078 316.672V316.281C147.078 313.708 147.766 311.651 149.141 310.109C150.516 308.557 152.391 307.781 154.766 307.781C156.776 307.781 158.411 308.37 159.672 309.547C160.943 310.714 161.609 312.25 161.672 314.156H158.094C158.052 313.188 157.719 312.391 157.094 311.766C156.479 311.141 155.693 310.828 154.734 310.828C153.505 310.828 152.557 311.276 151.891 312.172C151.224 313.057 150.885 314.406 150.875 316.219V316.828C150.875 318.661 151.203 320.031 151.859 320.938C152.526 321.833 153.484 322.281 154.734 322.281ZM169.297 303.984V308.094H172.281V310.906H169.297V320.344C169.297 320.99 169.422 321.458 169.672 321.75C169.932 322.031 170.391 322.172 171.047 322.172C171.484 322.172 171.927 322.12 172.375 322.016V324.953C171.51 325.193 170.677 325.312 169.875 325.312C166.958 325.312 165.5 323.703 165.5 320.484V310.906H162.719V308.094H165.5V303.984H169.297Z" fill="white"/>
<path d="M597.078 287H593.297V268.734L587.719 270.641V267.438L596.594 264.172H597.078V287ZM620.125 266.359L611.031 287H607.047L616.125 267.297H604.359V264.25H620.125V266.359ZM628.172 265.984V270.094H631.156V272.906H628.172V282.344C628.172 282.99 628.297 283.458 628.547 283.75C628.807 284.031 629.266 284.172 629.922 284.172C630.359 284.172 630.802 284.12 631.25 284.016V286.953C630.385 287.193 629.552 287.312 628.75 287.312C625.833 287.312 624.375 285.703 624.375 282.484V272.906H621.594V270.094H624.375V265.984H628.172ZM637.812 271.938C639.052 270.5 640.62 269.781 642.516 269.781C646.12 269.781 647.948 271.839 648 275.953V287H644.203V276.094C644.203 274.927 643.948 274.104 643.438 273.625C642.938 273.135 642.198 272.891 641.219 272.891C639.698 272.891 638.562 273.568 637.812 274.922V287H634.016V263H637.812V271.938ZM613.219 314.219C613.219 316.448 612.833 318.406 612.062 320.094C611.292 321.771 610.188 323.062 608.75 323.969C607.323 324.865 605.677 325.312 603.812 325.312C601.969 325.312 600.323 324.865 598.875 323.969C597.438 323.062 596.323 321.776 595.531 320.109C594.75 318.443 594.354 316.521 594.344 314.344V313.062C594.344 310.844 594.734 308.885 595.516 307.188C596.307 305.49 597.417 304.193 598.844 303.297C600.281 302.391 601.927 301.938 603.781 301.938C605.635 301.938 607.276 302.385 608.703 303.281C610.141 304.167 611.25 305.448 612.031 307.125C612.812 308.792 613.208 310.734 613.219 312.953V314.219ZM609.266 313.031C609.266 310.51 608.786 308.578 607.828 307.234C606.88 305.891 605.531 305.219 603.781 305.219C602.073 305.219 600.734 305.891 599.766 307.234C598.807 308.568 598.318 310.458 598.297 312.906V314.219C598.297 316.719 598.781 318.651 599.75 320.016C600.729 321.38 602.083 322.062 603.812 322.062C605.562 322.062 606.906 321.396 607.844 320.062C608.792 318.729 609.266 316.781 609.266 314.219V313.031ZM623.734 322.281C624.682 322.281 625.469 322.005 626.094 321.453C626.719 320.901 627.052 320.219 627.094 319.406H630.672C630.63 320.458 630.302 321.443 629.688 322.359C629.073 323.266 628.24 323.984 627.188 324.516C626.135 325.047 625 325.312 623.781 325.312C621.417 325.312 619.542 324.547 618.156 323.016C616.771 321.484 616.078 319.37 616.078 316.672V316.281C616.078 313.708 616.766 311.651 618.141 310.109C619.516 308.557 621.391 307.781 623.766 307.781C625.776 307.781 627.411 308.37 628.672 309.547C629.943 310.714 630.609 312.25 630.672 314.156H627.094C627.052 313.188 626.719 312.391 626.094 311.766C625.479 311.141 624.693 310.828 623.734 310.828C622.505 310.828 621.557 311.276 620.891 312.172C620.224 313.057 619.885 314.406 619.875 316.219V316.828C619.875 318.661 620.203 320.031 620.859 320.938C621.526 321.833 622.484 322.281 623.734 322.281ZM638.297 303.984V308.094H641.281V310.906H638.297V320.344C638.297 320.99 638.422 321.458 638.672 321.75C638.932 322.031 639.391 322.172 640.047 322.172C640.484 322.172 640.927 322.12 641.375 322.016V324.953C640.51 325.193 639.677 325.312 638.875 325.312C635.958 325.312 634.5 323.703 634.5 320.484V310.906H631.719V308.094H634.5V303.984H638.297Z" fill="white"/>
<path d="M363.078 287H359.297V268.734L353.719 270.641V267.438L362.594 264.172H363.078V287ZM382.797 264.141V267.281H382.328C380.203 267.312 378.505 267.896 377.234 269.031C375.964 270.167 375.208 271.776 374.969 273.859C376.188 272.578 377.745 271.938 379.641 271.938C381.651 271.938 383.234 272.646 384.391 274.062C385.557 275.479 386.141 277.307 386.141 279.547C386.141 281.859 385.458 283.734 384.094 285.172C382.74 286.599 380.958 287.312 378.75 287.312C376.479 287.312 374.635 286.474 373.219 284.797C371.812 283.12 371.109 280.922 371.109 278.203V276.906C371.109 272.917 372.078 269.792 374.016 267.531C375.964 265.271 378.76 264.141 382.406 264.141H382.797ZM378.719 275C377.885 275 377.12 275.234 376.422 275.703C375.734 276.172 375.229 276.797 374.906 277.578V278.734C374.906 280.422 375.26 281.766 375.969 282.766C376.677 283.755 377.594 284.25 378.719 284.25C379.844 284.25 380.734 283.828 381.391 282.984C382.047 282.141 382.375 281.031 382.375 279.656C382.375 278.281 382.042 277.161 381.375 276.297C380.708 275.432 379.823 275 378.719 275ZM394.172 265.984V270.094H397.156V272.906H394.172V282.344C394.172 282.99 394.297 283.458 394.547 283.75C394.807 284.031 395.266 284.172 395.922 284.172C396.359 284.172 396.802 284.12 397.25 284.016V286.953C396.385 287.193 395.552 287.312 394.75 287.312C391.833 287.312 390.375 285.703 390.375 282.484V272.906H387.594V270.094H390.375V265.984H394.172ZM403.812 271.938C405.052 270.5 406.62 269.781 408.516 269.781C412.12 269.781 413.948 271.839 414 275.953V287H410.203V276.094C410.203 274.927 409.948 274.104 409.438 273.625C408.938 273.135 408.198 272.891 407.219 272.891C405.698 272.891 404.562 273.568 403.812 274.922V287H400.016V263H403.812V271.938ZM379.219 314.219C379.219 316.448 378.833 318.406 378.062 320.094C377.292 321.771 376.188 323.062 374.75 323.969C373.323 324.865 371.677 325.312 369.812 325.312C367.969 325.312 366.323 324.865 364.875 323.969C363.438 323.062 362.323 321.776 361.531 320.109C360.75 318.443 360.354 316.521 360.344 314.344V313.062C360.344 310.844 360.734 308.885 361.516 307.188C362.307 305.49 363.417 304.193 364.844 303.297C366.281 302.391 367.927 301.938 369.781 301.938C371.635 301.938 373.276 302.385 374.703 303.281C376.141 304.167 377.25 305.448 378.031 307.125C378.812 308.792 379.208 310.734 379.219 312.953V314.219ZM375.266 313.031C375.266 310.51 374.786 308.578 373.828 307.234C372.88 305.891 371.531 305.219 369.781 305.219C368.073 305.219 366.734 305.891 365.766 307.234C364.807 308.568 364.318 310.458 364.297 312.906V314.219C364.297 316.719 364.781 318.651 365.75 320.016C366.729 321.38 368.083 322.062 369.812 322.062C371.562 322.062 372.906 321.396 373.844 320.062C374.792 318.729 375.266 316.781 375.266 314.219V313.031ZM389.734 322.281C390.682 322.281 391.469 322.005 392.094 321.453C392.719 320.901 393.052 320.219 393.094 319.406H396.672C396.63 320.458 396.302 321.443 395.688 322.359C395.073 323.266 394.24 323.984 393.188 324.516C392.135 325.047 391 325.312 389.781 325.312C387.417 325.312 385.542 324.547 384.156 323.016C382.771 321.484 382.078 319.37 382.078 316.672V316.281C382.078 313.708 382.766 311.651 384.141 310.109C385.516 308.557 387.391 307.781 389.766 307.781C391.776 307.781 393.411 308.37 394.672 309.547C395.943 310.714 396.609 312.25 396.672 314.156H393.094C393.052 313.188 392.719 312.391 392.094 311.766C391.479 311.141 390.693 310.828 389.734 310.828C388.505 310.828 387.557 311.276 386.891 312.172C386.224 313.057 385.885 314.406 385.875 316.219V316.828C385.875 318.661 386.203 320.031 386.859 320.938C387.526 321.833 388.484 322.281 389.734 322.281ZM404.297 303.984V308.094H407.281V310.906H404.297V320.344C404.297 320.99 404.422 321.458 404.672 321.75C404.932 322.031 405.391 322.172 406.047 322.172C406.484 322.172 406.927 322.12 407.375 322.016V324.953C406.51 325.193 405.677 325.312 404.875 325.312C401.958 325.312 400.5 323.703 400.5 320.484V310.906H397.719V308.094H400.5V303.984H404.297Z" fill="white"/>
<path d="M834.094 287H818.797V284.391L826.375 276.125C827.469 274.906 828.245 273.891 828.703 273.078C829.172 272.255 829.406 271.432 829.406 270.609C829.406 269.526 829.099 268.651 828.484 267.984C827.88 267.318 827.062 266.984 826.031 266.984C824.802 266.984 823.849 267.359 823.172 268.109C822.495 268.859 822.156 269.885 822.156 271.188H818.359C818.359 269.802 818.672 268.557 819.297 267.453C819.932 266.339 820.833 265.474 822 264.859C823.177 264.245 824.531 263.938 826.062 263.938C828.271 263.938 830.01 264.495 831.281 265.609C832.562 266.714 833.203 268.245 833.203 270.203C833.203 271.339 832.88 272.531 832.234 273.781C831.599 275.021 830.552 276.432 829.094 278.016L823.531 283.969H834.094V287ZM851.812 277.422C851.812 280.693 851.198 283.161 849.969 284.828C848.75 286.484 846.891 287.312 844.391 287.312C841.932 287.312 840.078 286.505 838.828 284.891C837.589 283.266 836.953 280.865 836.922 277.688V273.75C836.922 270.479 837.531 268.026 838.75 266.391C839.979 264.755 841.849 263.938 844.359 263.938C846.849 263.938 848.703 264.734 849.922 266.328C851.151 267.922 851.781 270.307 851.812 273.484V277.422ZM848.016 273.172C848.016 271.036 847.724 269.474 847.141 268.484C846.557 267.484 845.63 266.984 844.359 266.984C843.12 266.984 842.208 267.458 841.625 268.406C841.042 269.344 840.734 270.812 840.703 272.812V277.969C840.703 280.094 841 281.677 841.594 282.719C842.188 283.76 843.12 284.281 844.391 284.281C845.609 284.281 846.51 283.802 847.094 282.844C847.677 281.875 847.984 280.365 848.016 278.312V273.172ZM860.172 265.984V270.094H863.156V272.906H860.172V282.344C860.172 282.99 860.297 283.458 860.547 283.75C860.807 284.031 861.266 284.172 861.922 284.172C862.359 284.172 862.802 284.12 863.25 284.016V286.953C862.385 287.193 861.552 287.312 860.75 287.312C857.833 287.312 856.375 285.703 856.375 282.484V272.906H853.594V270.094H856.375V265.984H860.172ZM869.812 271.938C871.052 270.5 872.62 269.781 874.516 269.781C878.12 269.781 879.948 271.839 880 275.953V287H876.203V276.094C876.203 274.927 875.948 274.104 875.438 273.625C874.938 273.135 874.198 272.891 873.219 272.891C871.698 272.891 870.562 273.568 869.812 274.922V287H866.016V263H869.812V271.938ZM845.219 314.219C845.219 316.448 844.833 318.406 844.062 320.094C843.292 321.771 842.188 323.062 840.75 323.969C839.323 324.865 837.677 325.312 835.812 325.312C833.969 325.312 832.323 324.865 830.875 323.969C829.438 323.062 828.323 321.776 827.531 320.109C826.75 318.443 826.354 316.521 826.344 314.344V313.062C826.344 310.844 826.734 308.885 827.516 307.188C828.307 305.49 829.417 304.193 830.844 303.297C832.281 302.391 833.927 301.938 835.781 301.938C837.635 301.938 839.276 302.385 840.703 303.281C842.141 304.167 843.25 305.448 844.031 307.125C844.812 308.792 845.208 310.734 845.219 312.953V314.219ZM841.266 313.031C841.266 310.51 840.786 308.578 839.828 307.234C838.88 305.891 837.531 305.219 835.781 305.219C834.073 305.219 832.734 305.891 831.766 307.234C830.807 308.568 830.318 310.458 830.297 312.906V314.219C830.297 316.719 830.781 318.651 831.75 320.016C832.729 321.38 834.083 322.062 835.812 322.062C837.562 322.062 838.906 321.396 839.844 320.062C840.792 318.729 841.266 316.781 841.266 314.219V313.031ZM855.734 322.281C856.682 322.281 857.469 322.005 858.094 321.453C858.719 320.901 859.052 320.219 859.094 319.406H862.672C862.63 320.458 862.302 321.443 861.688 322.359C861.073 323.266 860.24 323.984 859.188 324.516C858.135 325.047 857 325.312 855.781 325.312C853.417 325.312 851.542 324.547 850.156 323.016C848.771 321.484 848.078 319.37 848.078 316.672V316.281C848.078 313.708 848.766 311.651 850.141 310.109C851.516 308.557 853.391 307.781 855.766 307.781C857.776 307.781 859.411 308.37 860.672 309.547C861.943 310.714 862.609 312.25 862.672 314.156H859.094C859.052 313.188 858.719 312.391 858.094 311.766C857.479 311.141 856.693 310.828 855.734 310.828C854.505 310.828 853.557 311.276 852.891 312.172C852.224 313.057 851.885 314.406 851.875 316.219V316.828C851.875 318.661 852.203 320.031 852.859 320.938C853.526 321.833 854.484 322.281 855.734 322.281ZM870.297 303.984V308.094H873.281V310.906H870.297V320.344C870.297 320.99 870.422 321.458 870.672 321.75C870.932 322.031 871.391 322.172 872.047 322.172C872.484 322.172 872.927 322.12 873.375 322.016V324.953C872.51 325.193 871.677 325.312 870.875 325.312C867.958 325.312 866.5 323.703 866.5 320.484V310.906H863.719V308.094H866.5V303.984H870.297Z" fill="white"/>
<path d="M86.6108 18.8101H82.436V26H80.0801V8.22656H85.9639C87.9658 8.22656 89.5039 8.68229 90.5781 9.59375C91.6605 10.5052 92.2017 11.8317 92.2017 13.5732C92.2017 14.68 91.9006 15.6444 91.2983 16.4663C90.7043 17.2882 89.8742 17.9027 88.8081 18.3096L92.9829 25.8535V26H90.4683L86.6108 18.8101ZM82.436 16.8936H86.0371C87.2008 16.8936 88.1245 16.5924 88.8081 15.9902C89.4998 15.388 89.8457 14.5824 89.8457 13.5732C89.8457 12.4746 89.5161 11.6323 88.8569 11.0464C88.2059 10.4604 87.2619 10.1634 86.0249 10.1553H82.436V16.8936ZM100.625 26.2441C98.8341 26.2441 97.3774 25.6582 96.2544 24.4863C95.1313 23.3063 94.5698 21.7316 94.5698 19.7622V19.3472C94.5698 18.0369 94.818 16.8691 95.3145 15.8438C95.819 14.8102 96.5189 14.0046 97.4141 13.4268C98.3174 12.8408 99.2939 12.5479 100.344 12.5479C102.061 12.5479 103.396 13.1134 104.348 14.2446C105.3 15.3758 105.776 16.9953 105.776 19.103V20.043H96.8281C96.8607 21.3451 97.2391 22.3989 97.9634 23.2046C98.6958 24.0021 99.6235 24.4009 100.747 24.4009C101.544 24.4009 102.22 24.2381 102.773 23.9126C103.326 23.5871 103.811 23.1558 104.226 22.6187L105.605 23.6929C104.498 25.3937 102.838 26.2441 100.625 26.2441ZM100.344 14.4033C99.4323 14.4033 98.6673 14.737 98.0488 15.4043C97.4303 16.0635 97.0479 16.9912 96.9014 18.1875H103.518V18.0166C103.452 16.8691 103.143 15.9821 102.59 15.3555C102.036 14.7207 101.288 14.4033 100.344 14.4033ZM107.863 19.2861C107.863 17.2272 108.339 15.5915 109.292 14.3789C110.244 13.1582 111.505 12.5479 113.076 12.5479C114.687 12.5479 115.944 13.1175 116.848 14.2568L116.958 12.792H119.021V25.6826C119.021 27.3916 118.512 28.7384 117.495 29.7231C116.486 30.7078 115.126 31.2002 113.417 31.2002C112.465 31.2002 111.534 30.9967 110.622 30.5898C109.711 30.1829 109.015 29.6255 108.535 28.9175L109.707 27.5625C110.675 28.7588 111.859 29.3569 113.259 29.3569C114.357 29.3569 115.212 29.0477 115.822 28.4292C116.441 27.8107 116.75 26.9399 116.75 25.8169V24.6816C115.847 25.7233 114.614 26.2441 113.051 26.2441C111.505 26.2441 110.252 25.6216 109.292 24.3765C108.339 23.1313 107.863 21.4346 107.863 19.2861ZM110.134 19.5425C110.134 21.0317 110.439 22.2036 111.049 23.0581C111.66 23.9045 112.514 24.3276 113.613 24.3276C115.037 24.3276 116.083 23.6807 116.75 22.3867V16.3564C116.058 15.0951 115.021 14.4644 113.637 14.4644C112.539 14.4644 111.68 14.8916 111.062 15.7461C110.443 16.6006 110.134 17.866 110.134 19.5425ZM124.892 26H122.634V12.792H124.892V26ZM122.451 9.28857C122.451 8.92236 122.561 8.61312 122.78 8.36084C123.008 8.10856 123.342 7.98242 123.781 7.98242C124.221 7.98242 124.554 8.10856 124.782 8.36084C125.01 8.61312 125.124 8.92236 125.124 9.28857C125.124 9.65479 125.01 9.95996 124.782 10.2041C124.554 10.4482 124.221 10.5703 123.781 10.5703C123.342 10.5703 123.008 10.4482 122.78 10.2041C122.561 9.95996 122.451 9.65479 122.451 9.28857ZM136.208 22.4966C136.208 21.8862 135.976 21.4142 135.512 21.0806C135.056 20.7388 134.255 20.4458 133.107 20.2017C131.968 19.9575 131.061 19.6646 130.385 19.3228C129.718 18.981 129.222 18.5741 128.896 18.1021C128.579 17.63 128.42 17.0685 128.42 16.4175C128.42 15.3351 128.876 14.4196 129.787 13.6709C130.707 12.9222 131.879 12.5479 133.303 12.5479C134.8 12.5479 136.013 12.9344 136.94 13.7075C137.876 14.4806 138.344 15.4694 138.344 16.6738H136.074C136.074 16.0553 135.809 15.5223 135.28 15.0747C134.759 14.6271 134.1 14.4033 133.303 14.4033C132.481 14.4033 131.838 14.5824 131.374 14.9404C130.91 15.2985 130.678 15.7664 130.678 16.3442C130.678 16.8895 130.894 17.3005 131.325 17.5771C131.757 17.8538 132.534 18.1183 133.657 18.3706C134.788 18.6229 135.703 18.924 136.403 19.2739C137.103 19.6239 137.62 20.047 137.954 20.5435C138.295 21.0317 138.466 21.6299 138.466 22.3379C138.466 23.5179 137.994 24.466 137.05 25.1821C136.106 25.8901 134.882 26.2441 133.376 26.2441C132.318 26.2441 131.382 26.057 130.568 25.6826C129.755 25.3083 129.116 24.7874 128.652 24.1201C128.196 23.4447 127.968 22.7163 127.968 21.9351H130.227C130.267 22.6919 130.568 23.2941 131.13 23.7417C131.7 24.1812 132.448 24.4009 133.376 24.4009C134.23 24.4009 134.914 24.23 135.427 23.8882C135.948 23.5382 136.208 23.0744 136.208 22.4966ZM144.472 9.59375V12.792H146.938V14.5376H144.472V22.7285C144.472 23.2575 144.582 23.6562 144.802 23.9248C145.021 24.1852 145.396 24.3154 145.925 24.3154C146.185 24.3154 146.543 24.2666 146.999 24.1689V26C146.405 26.1628 145.827 26.2441 145.266 26.2441C144.257 26.2441 143.496 25.939 142.983 25.3286C142.47 24.7183 142.214 23.8516 142.214 22.7285V14.5376H139.809V12.792H142.214V9.59375H144.472ZM155.971 14.8184C155.629 14.7614 155.259 14.7329 154.86 14.7329C153.379 14.7329 152.374 15.3636 151.845 16.625V26H149.587V12.792H151.784L151.821 14.3179C152.561 13.1379 153.611 12.5479 154.97 12.5479C155.41 12.5479 155.743 12.6048 155.971 12.7188V14.8184ZM165.725 26C165.594 25.7396 165.489 25.2757 165.407 24.6084C164.357 25.6989 163.104 26.2441 161.647 26.2441C160.345 26.2441 159.275 25.8779 158.437 25.1455C157.607 24.4049 157.192 23.4691 157.192 22.3379C157.192 20.9626 157.713 19.8965 158.754 19.1396C159.804 18.3747 161.277 17.9922 163.173 17.9922H165.371V16.9546C165.371 16.1652 165.135 15.5386 164.663 15.0747C164.191 14.6027 163.495 14.3667 162.575 14.3667C161.77 14.3667 161.094 14.5701 160.549 14.9771C160.004 15.384 159.731 15.8763 159.731 16.4541H157.46C157.46 15.7949 157.692 15.1602 158.156 14.5498C158.628 13.9313 159.263 13.443 160.061 13.085C160.866 12.7269 161.749 12.5479 162.709 12.5479C164.231 12.5479 165.424 12.9303 166.286 13.6953C167.149 14.4521 167.596 15.4979 167.629 16.8325V22.9116C167.629 24.1242 167.784 25.0885 168.093 25.8047V26H165.725ZM161.977 24.2788C162.685 24.2788 163.356 24.0957 163.991 23.7295C164.626 23.3633 165.086 22.8872 165.371 22.3013V19.5913H163.601C160.834 19.5913 159.45 20.401 159.45 22.0205C159.45 22.7285 159.686 23.2819 160.158 23.6807C160.63 24.0794 161.236 24.2788 161.977 24.2788ZM174.233 9.59375V12.792H176.699V14.5376H174.233V22.7285C174.233 23.2575 174.343 23.6562 174.562 23.9248C174.782 24.1852 175.157 24.3154 175.686 24.3154C175.946 24.3154 176.304 24.2666 176.76 24.1689V26C176.166 26.1628 175.588 26.2441 175.026 26.2441C174.017 26.2441 173.256 25.939 172.744 25.3286C172.231 24.7183 171.975 23.8516 171.975 22.7285V14.5376H169.57V12.792H171.975V9.59375H174.233ZM181.801 26H179.543V12.792H181.801V26ZM179.36 9.28857C179.36 8.92236 179.47 8.61312 179.689 8.36084C179.917 8.10856 180.251 7.98242 180.69 7.98242C181.13 7.98242 181.464 8.10856 181.691 8.36084C181.919 8.61312 182.033 8.92236 182.033 9.28857C182.033 9.65479 181.919 9.95996 181.691 10.2041C181.464 10.4482 181.13 10.5703 180.69 10.5703C180.251 10.5703 179.917 10.4482 179.689 10.2041C179.47 9.95996 179.36 9.65479 179.36 9.28857ZM184.829 19.2739C184.829 17.98 185.081 16.8162 185.585 15.7827C186.098 14.7492 186.806 13.9517 187.709 13.3901C188.621 12.8286 189.659 12.5479 190.822 12.5479C192.621 12.5479 194.073 13.1704 195.18 14.4155C196.295 15.6606 196.853 17.3167 196.853 19.3838V19.5425C196.853 20.8283 196.604 21.9839 196.108 23.0093C195.62 24.0265 194.916 24.82 193.996 25.3896C193.085 25.9593 192.035 26.2441 190.847 26.2441C189.056 26.2441 187.604 25.6216 186.489 24.3765C185.382 23.1313 184.829 21.4834 184.829 19.4326V19.2739ZM187.099 19.5425C187.099 21.0073 187.437 22.1833 188.112 23.0703C188.796 23.9574 189.707 24.4009 190.847 24.4009C191.994 24.4009 192.906 23.9533 193.581 23.0581C194.257 22.1548 194.594 20.8934 194.594 19.2739C194.594 17.8254 194.248 16.6535 193.557 15.7583C192.873 14.855 191.962 14.4033 190.822 14.4033C189.707 14.4033 188.808 14.8468 188.125 15.7339C187.441 16.6209 187.099 17.8905 187.099 19.5425ZM201.821 12.792L201.894 14.4521C202.903 13.1826 204.222 12.5479 205.849 12.5479C208.64 12.5479 210.048 14.1226 210.073 17.272V26H207.814V17.2598C207.806 16.3076 207.587 15.6037 207.155 15.1479C206.732 14.6922 206.069 14.4644 205.166 14.4644C204.433 14.4644 203.79 14.6597 203.237 15.0503C202.683 15.4409 202.252 15.9536 201.943 16.5884V26H199.685V12.792H201.821ZM124.99 51.4966C124.99 50.8862 124.758 50.4142 124.294 50.0806C123.838 49.7388 123.037 49.4458 121.889 49.2017C120.75 48.9575 119.842 48.6646 119.167 48.3228C118.5 47.981 118.003 47.5741 117.678 47.1021C117.36 46.63 117.202 46.0685 117.202 45.4175C117.202 44.3351 117.657 43.4196 118.569 42.6709C119.488 41.9222 120.66 41.5479 122.084 41.5479C123.582 41.5479 124.794 41.9344 125.722 42.7075C126.658 43.4806 127.126 44.4694 127.126 45.6738H124.855C124.855 45.0553 124.591 44.5223 124.062 44.0747C123.541 43.6271 122.882 43.4033 122.084 43.4033C121.263 43.4033 120.62 43.5824 120.156 43.9404C119.692 44.2985 119.46 44.7664 119.46 45.3442C119.46 45.8895 119.676 46.3005 120.107 46.5771C120.538 46.8538 121.315 47.1183 122.438 47.3706C123.57 47.6229 124.485 47.924 125.185 48.2739C125.885 48.6239 126.402 49.047 126.735 49.5435C127.077 50.0317 127.248 50.6299 127.248 51.3379C127.248 52.5179 126.776 53.466 125.832 54.1821C124.888 54.8901 123.663 55.2441 122.158 55.2441C121.1 55.2441 120.164 55.057 119.35 54.6826C118.536 54.3083 117.897 53.7874 117.434 53.1201C116.978 52.4447 116.75 51.7163 116.75 50.9351H119.008C119.049 51.6919 119.35 52.2941 119.912 52.7417C120.481 53.1812 121.23 53.4009 122.158 53.4009C123.012 53.4009 123.696 53.23 124.208 52.8882C124.729 52.5382 124.99 52.0744 124.99 51.4966ZM133.254 38.5938V41.792H135.72V43.5376H133.254V51.7285C133.254 52.2575 133.364 52.6562 133.583 52.9248C133.803 53.1852 134.178 53.3154 134.707 53.3154C134.967 53.3154 135.325 53.2666 135.781 53.1689V55C135.187 55.1628 134.609 55.2441 134.047 55.2441C133.038 55.2441 132.277 54.939 131.765 54.3286C131.252 53.7183 130.996 52.8516 130.996 51.7285V43.5376H128.591V41.792H130.996V38.5938H133.254ZM146.523 55C146.393 54.7396 146.287 54.2757 146.206 53.6084C145.156 54.6989 143.903 55.2441 142.446 55.2441C141.144 55.2441 140.074 54.8779 139.235 54.1455C138.405 53.4049 137.99 52.4691 137.99 51.3379C137.99 49.9626 138.511 48.8965 139.553 48.1396C140.603 47.3747 142.076 46.9922 143.972 46.9922H146.169V45.9546C146.169 45.1652 145.933 44.5386 145.461 44.0747C144.989 43.6027 144.293 43.3667 143.374 43.3667C142.568 43.3667 141.892 43.5701 141.347 43.9771C140.802 44.384 140.529 44.8763 140.529 45.4541H138.259C138.259 44.7949 138.491 44.1602 138.955 43.5498C139.427 42.9313 140.061 42.443 140.859 42.085C141.665 41.7269 142.548 41.5479 143.508 41.5479C145.03 41.5479 146.222 41.9303 147.084 42.6953C147.947 43.4521 148.395 44.4979 148.427 45.8325V51.9116C148.427 53.1242 148.582 54.0885 148.891 54.8047V55H146.523ZM142.775 53.2788C143.483 53.2788 144.155 53.0957 144.79 52.7295C145.424 52.3633 145.884 51.8872 146.169 51.3013V48.5913H144.399C141.632 48.5913 140.249 49.401 140.249 51.0205C140.249 51.7285 140.485 52.2819 140.957 52.6807C141.429 53.0794 142.035 53.2788 142.775 53.2788ZM158.352 43.8184C158.01 43.7614 157.639 43.7329 157.241 43.7329C155.76 43.7329 154.755 44.3636 154.226 45.625V55H151.967V41.792H154.165L154.201 43.3179C154.942 42.1379 155.992 41.5479 157.351 41.5479C157.79 41.5479 158.124 41.6048 158.352 41.7188V43.8184ZM164.113 38.5938V41.792H166.579V43.5376H164.113V51.7285C164.113 52.2575 164.223 52.6562 164.443 52.9248C164.663 53.1852 165.037 53.3154 165.566 53.3154C165.826 53.3154 166.184 53.2666 166.64 53.1689V55C166.046 55.1628 165.468 55.2441 164.907 55.2441C163.898 55.2441 163.137 54.939 162.624 54.3286C162.111 53.7183 161.855 52.8516 161.855 51.7285V43.5376H159.45V41.792H161.855V38.5938H164.113ZM176.918 51.4966C176.918 50.8862 176.687 50.4142 176.223 50.0806C175.767 49.7388 174.965 49.4458 173.818 49.2017C172.679 48.9575 171.771 48.6646 171.096 48.3228C170.428 47.981 169.932 47.5741 169.606 47.1021C169.289 46.63 169.13 46.0685 169.13 45.4175C169.13 44.3351 169.586 43.4196 170.498 42.6709C171.417 41.9222 172.589 41.5479 174.013 41.5479C175.511 41.5479 176.723 41.9344 177.651 42.7075C178.587 43.4806 179.055 44.4694 179.055 45.6738H176.784C176.784 45.0553 176.52 44.5223 175.991 44.0747C175.47 43.6271 174.811 43.4033 174.013 43.4033C173.191 43.4033 172.548 43.5824 172.084 43.9404C171.621 44.2985 171.389 44.7664 171.389 45.3442C171.389 45.8895 171.604 46.3005 172.036 46.5771C172.467 46.8538 173.244 47.1183 174.367 47.3706C175.498 47.6229 176.414 47.924 177.114 48.2739C177.814 48.6239 178.33 49.047 178.664 49.5435C179.006 50.0317 179.177 50.6299 179.177 51.3379C179.177 52.5179 178.705 53.466 177.761 54.1821C176.817 54.8901 175.592 55.2441 174.086 55.2441C173.028 55.2441 172.093 55.057 171.279 54.6826C170.465 54.3083 169.826 53.7874 169.362 53.1201C168.907 52.4447 168.679 51.7163 168.679 50.9351H170.937C170.978 51.6919 171.279 52.2941 171.84 52.7417C172.41 53.1812 173.159 53.4009 174.086 53.4009C174.941 53.4009 175.625 53.23 176.137 52.8882C176.658 52.5382 176.918 52.0744 176.918 51.4966Z" fill="#18FFFF"/>
<path d="M319.611 542.81H315.436V550H313.08V532.227H318.964C320.966 532.227 322.504 532.682 323.578 533.594C324.66 534.505 325.202 535.832 325.202 537.573C325.202 538.68 324.901 539.644 324.298 540.466C323.704 541.288 322.874 541.903 321.808 542.31L325.983 549.854V550H323.468L319.611 542.81ZM315.436 540.894H319.037C320.201 540.894 321.125 540.592 321.808 539.99C322.5 539.388 322.846 538.582 322.846 537.573C322.846 536.475 322.516 535.632 321.857 535.046C321.206 534.46 320.262 534.163 319.025 534.155H315.436V540.894ZM333.625 550.244C331.834 550.244 330.377 549.658 329.254 548.486C328.131 547.306 327.57 545.732 327.57 543.762V543.347C327.57 542.037 327.818 540.869 328.314 539.844C328.819 538.81 329.519 538.005 330.414 537.427C331.317 536.841 332.294 536.548 333.344 536.548C335.061 536.548 336.396 537.113 337.348 538.245C338.3 539.376 338.776 540.995 338.776 543.103V544.043H329.828C329.861 545.345 330.239 546.399 330.963 547.205C331.696 548.002 332.624 548.401 333.747 548.401C334.544 548.401 335.22 548.238 335.773 547.913C336.326 547.587 336.811 547.156 337.226 546.619L338.605 547.693C337.498 549.394 335.838 550.244 333.625 550.244ZM333.344 538.403C332.432 538.403 331.667 538.737 331.049 539.404C330.43 540.063 330.048 540.991 329.901 542.188H336.518V542.017C336.452 540.869 336.143 539.982 335.59 539.355C335.036 538.721 334.288 538.403 333.344 538.403ZM340.863 543.286C340.863 541.227 341.339 539.591 342.292 538.379C343.244 537.158 344.505 536.548 346.076 536.548C347.687 536.548 348.944 537.118 349.848 538.257L349.958 536.792H352.021V549.683C352.021 551.392 351.512 552.738 350.495 553.723C349.486 554.708 348.126 555.2 346.417 555.2C345.465 555.2 344.534 554.997 343.622 554.59C342.711 554.183 342.015 553.625 341.535 552.917L342.707 551.562C343.675 552.759 344.859 553.357 346.259 553.357C347.357 553.357 348.212 553.048 348.822 552.429C349.441 551.811 349.75 550.94 349.75 549.817V548.682C348.847 549.723 347.614 550.244 346.051 550.244C344.505 550.244 343.252 549.622 342.292 548.376C341.339 547.131 340.863 545.435 340.863 543.286ZM343.134 543.542C343.134 545.032 343.439 546.204 344.049 547.058C344.66 547.904 345.514 548.328 346.613 548.328C348.037 548.328 349.083 547.681 349.75 546.387V540.356C349.058 539.095 348.021 538.464 346.637 538.464C345.539 538.464 344.68 538.892 344.062 539.746C343.443 540.601 343.134 541.866 343.134 543.542ZM357.892 550H355.634V536.792H357.892V550ZM355.451 533.289C355.451 532.922 355.561 532.613 355.78 532.361C356.008 532.109 356.342 531.982 356.781 531.982C357.221 531.982 357.554 532.109 357.782 532.361C358.01 532.613 358.124 532.922 358.124 533.289C358.124 533.655 358.01 533.96 357.782 534.204C357.554 534.448 357.221 534.57 356.781 534.57C356.342 534.57 356.008 534.448 355.78 534.204C355.561 533.96 355.451 533.655 355.451 533.289ZM369.208 546.497C369.208 545.886 368.976 545.414 368.512 545.081C368.056 544.739 367.255 544.446 366.107 544.202C364.968 543.958 364.061 543.665 363.385 543.323C362.718 542.981 362.222 542.574 361.896 542.102C361.579 541.63 361.42 541.069 361.42 540.417C361.42 539.335 361.876 538.42 362.787 537.671C363.707 536.922 364.879 536.548 366.303 536.548C367.8 536.548 369.013 536.934 369.94 537.708C370.876 538.481 371.344 539.469 371.344 540.674H369.074C369.074 540.055 368.809 539.522 368.28 539.075C367.759 538.627 367.1 538.403 366.303 538.403C365.481 538.403 364.838 538.582 364.374 538.94C363.91 539.299 363.678 539.766 363.678 540.344C363.678 540.889 363.894 541.3 364.325 541.577C364.757 541.854 365.534 542.118 366.657 542.371C367.788 542.623 368.703 542.924 369.403 543.274C370.103 543.624 370.62 544.047 370.954 544.543C371.295 545.032 371.466 545.63 371.466 546.338C371.466 547.518 370.994 548.466 370.05 549.182C369.106 549.89 367.882 550.244 366.376 550.244C365.318 550.244 364.382 550.057 363.568 549.683C362.755 549.308 362.116 548.787 361.652 548.12C361.196 547.445 360.968 546.716 360.968 545.935H363.227C363.267 546.692 363.568 547.294 364.13 547.742C364.7 548.181 365.448 548.401 366.376 548.401C367.23 548.401 367.914 548.23 368.427 547.888C368.948 547.538 369.208 547.074 369.208 546.497ZM377.472 533.594V536.792H379.938V538.538H377.472V546.729C377.472 547.257 377.582 547.656 377.802 547.925C378.021 548.185 378.396 548.315 378.925 548.315C379.185 548.315 379.543 548.267 379.999 548.169V550C379.405 550.163 378.827 550.244 378.266 550.244C377.257 550.244 376.496 549.939 375.983 549.329C375.47 548.718 375.214 547.852 375.214 546.729V538.538H372.809V536.792H375.214V533.594H377.472ZM388.971 538.818C388.629 538.761 388.259 538.733 387.86 538.733C386.379 538.733 385.374 539.364 384.845 540.625V550H382.587V536.792H384.784L384.821 538.318C385.561 537.138 386.611 536.548 387.97 536.548C388.41 536.548 388.743 536.605 388.971 536.719V538.818ZM398.725 550C398.594 549.74 398.489 549.276 398.407 548.608C397.357 549.699 396.104 550.244 394.647 550.244C393.345 550.244 392.275 549.878 391.437 549.146C390.607 548.405 390.192 547.469 390.192 546.338C390.192 544.963 390.713 543.896 391.754 543.14C392.804 542.375 394.277 541.992 396.173 541.992H398.371V540.955C398.371 540.165 398.135 539.539 397.663 539.075C397.191 538.603 396.495 538.367 395.575 538.367C394.77 538.367 394.094 538.57 393.549 538.977C393.004 539.384 392.731 539.876 392.731 540.454H390.46C390.46 539.795 390.692 539.16 391.156 538.55C391.628 537.931 392.263 537.443 393.061 537.085C393.866 536.727 394.749 536.548 395.709 536.548C397.231 536.548 398.424 536.93 399.286 537.695C400.149 538.452 400.596 539.498 400.629 540.833V546.912C400.629 548.124 400.784 549.089 401.093 549.805V550H398.725ZM394.977 548.279C395.685 548.279 396.356 548.096 396.991 547.729C397.626 547.363 398.086 546.887 398.371 546.301V543.591H396.601C393.834 543.591 392.45 544.401 392.45 546.021C392.45 546.729 392.686 547.282 393.158 547.681C393.63 548.079 394.236 548.279 394.977 548.279ZM407.233 533.594V536.792H409.699V538.538H407.233V546.729C407.233 547.257 407.343 547.656 407.562 547.925C407.782 548.185 408.157 548.315 408.686 548.315C408.946 548.315 409.304 548.267 409.76 548.169V550C409.166 550.163 408.588 550.244 408.026 550.244C407.017 550.244 406.256 549.939 405.744 549.329C405.231 548.718 404.975 547.852 404.975 546.729V538.538H402.57V536.792H404.975V533.594H407.233ZM414.801 550H412.543V536.792H414.801V550ZM412.36 533.289C412.36 532.922 412.47 532.613 412.689 532.361C412.917 532.109 413.251 531.982 413.69 531.982C414.13 531.982 414.464 532.109 414.691 532.361C414.919 532.613 415.033 532.922 415.033 533.289C415.033 533.655 414.919 533.96 414.691 534.204C414.464 534.448 414.13 534.57 413.69 534.57C413.251 534.57 412.917 534.448 412.689 534.204C412.47 533.96 412.36 533.655 412.36 533.289ZM417.829 543.274C417.829 541.98 418.081 540.816 418.585 539.783C419.098 538.749 419.806 537.952 420.709 537.39C421.621 536.829 422.659 536.548 423.822 536.548C425.621 536.548 427.073 537.17 428.18 538.416C429.295 539.661 429.853 541.317 429.853 543.384V543.542C429.853 544.828 429.604 545.984 429.108 547.009C428.62 548.027 427.916 548.82 426.996 549.39C426.085 549.959 425.035 550.244 423.847 550.244C422.056 550.244 420.604 549.622 419.489 548.376C418.382 547.131 417.829 545.483 417.829 543.433V543.274ZM420.099 543.542C420.099 545.007 420.437 546.183 421.112 547.07C421.796 547.957 422.707 548.401 423.847 548.401C424.994 548.401 425.906 547.953 426.581 547.058C427.257 546.155 427.594 544.893 427.594 543.274C427.594 541.825 427.248 540.653 426.557 539.758C425.873 538.855 424.962 538.403 423.822 538.403C422.707 538.403 421.808 538.847 421.125 539.734C420.441 540.621 420.099 541.89 420.099 543.542ZM434.821 536.792L434.894 538.452C435.903 537.183 437.222 536.548 438.849 536.548C441.64 536.548 443.048 538.123 443.073 541.272V550H440.814V541.26C440.806 540.308 440.587 539.604 440.155 539.148C439.732 538.692 439.069 538.464 438.166 538.464C437.433 538.464 436.79 538.66 436.237 539.05C435.683 539.441 435.252 539.954 434.943 540.588V550H432.685V536.792H434.821ZM361.164 579.244C359.373 579.244 357.917 578.658 356.793 577.486C355.67 576.306 355.109 574.732 355.109 572.762V572.347C355.109 571.037 355.357 569.869 355.854 568.844C356.358 567.81 357.058 567.005 357.953 566.427C358.856 565.841 359.833 565.548 360.883 565.548C362.6 565.548 363.935 566.113 364.887 567.245C365.839 568.376 366.315 569.995 366.315 572.103V573.043H357.367C357.4 574.345 357.778 575.399 358.502 576.205C359.235 577.002 360.163 577.401 361.286 577.401C362.083 577.401 362.759 577.238 363.312 576.913C363.865 576.587 364.35 576.156 364.765 575.619L366.144 576.693C365.037 578.394 363.377 579.244 361.164 579.244ZM360.883 567.403C359.971 567.403 359.206 567.737 358.588 568.404C357.969 569.063 357.587 569.991 357.44 571.188H364.057V571.017C363.992 569.869 363.682 568.982 363.129 568.355C362.576 567.721 361.827 567.403 360.883 567.403ZM371.076 565.792L371.149 567.452C372.158 566.183 373.476 565.548 375.104 565.548C377.895 565.548 379.303 567.123 379.328 570.272V579H377.069V570.26C377.061 569.308 376.841 568.604 376.41 568.148C375.987 567.692 375.324 567.464 374.42 567.464C373.688 567.464 373.045 567.66 372.492 568.05C371.938 568.441 371.507 568.954 371.198 569.588V579H368.939V565.792H371.076ZM382.184 572.286C382.184 570.26 382.664 568.632 383.625 567.403C384.585 566.166 385.842 565.548 387.396 565.548C388.943 565.548 390.167 566.077 391.071 567.135V560.25H393.329V579H391.254L391.144 577.584C390.241 578.691 388.983 579.244 387.372 579.244C385.842 579.244 384.593 578.618 383.625 577.364C382.664 576.111 382.184 574.475 382.184 572.457V572.286ZM384.442 572.542C384.442 574.04 384.752 575.212 385.37 576.058C385.989 576.904 386.843 577.328 387.934 577.328C389.366 577.328 390.412 576.685 391.071 575.399V569.332C390.395 568.087 389.358 567.464 387.958 567.464C386.851 567.464 385.989 567.892 385.37 568.746C384.752 569.601 384.442 570.866 384.442 572.542ZM404.535 575.497C404.535 574.886 404.303 574.414 403.839 574.081C403.384 573.739 402.582 573.446 401.435 573.202C400.295 572.958 399.388 572.665 398.712 572.323C398.045 571.981 397.549 571.574 397.223 571.102C396.906 570.63 396.747 570.069 396.747 569.417C396.747 568.335 397.203 567.42 398.114 566.671C399.034 565.922 400.206 565.548 401.63 565.548C403.127 565.548 404.34 565.934 405.268 566.708C406.203 567.481 406.671 568.469 406.671 569.674H404.401C404.401 569.055 404.136 568.522 403.607 568.075C403.087 567.627 402.427 567.403 401.63 567.403C400.808 567.403 400.165 567.582 399.701 567.94C399.237 568.299 399.005 568.766 399.005 569.344C399.005 569.889 399.221 570.3 399.652 570.577C400.084 570.854 400.861 571.118 401.984 571.371C403.115 571.623 404.031 571.924 404.73 572.274C405.43 572.624 405.947 573.047 406.281 573.543C406.623 574.032 406.793 574.63 406.793 575.338C406.793 576.518 406.321 577.466 405.377 578.182C404.433 578.89 403.209 579.244 401.703 579.244C400.645 579.244 399.709 579.057 398.896 578.683C398.082 578.308 397.443 577.787 396.979 577.12C396.523 576.445 396.295 575.716 396.295 574.935H398.554C398.594 575.692 398.896 576.294 399.457 576.742C400.027 577.181 400.775 577.401 401.703 577.401C402.558 577.401 403.241 577.23 403.754 576.888C404.275 576.538 404.535 576.074 404.535 575.497Z" fill="#18FFFF"/>
<path d="M784.904 542.078C782.894 541.5 781.429 540.792 780.509 539.954C779.598 539.107 779.142 538.066 779.142 536.829C779.142 535.429 779.7 534.273 780.814 533.362C781.938 532.442 783.394 531.982 785.185 531.982C786.405 531.982 787.492 532.218 788.444 532.69C789.404 533.162 790.145 533.813 790.666 534.644C791.194 535.474 791.459 536.381 791.459 537.366H789.103C789.103 536.292 788.761 535.449 788.078 534.839C787.394 534.22 786.43 533.911 785.185 533.911C784.029 533.911 783.126 534.167 782.475 534.68C781.832 535.185 781.51 535.889 781.51 536.792C781.51 537.516 781.815 538.131 782.426 538.635C783.044 539.132 784.09 539.587 785.563 540.002C787.044 540.417 788.2 540.877 789.03 541.382C789.868 541.878 790.486 542.46 790.885 543.127C791.292 543.795 791.496 544.58 791.496 545.483C791.496 546.924 790.934 548.079 789.811 548.95C788.688 549.813 787.187 550.244 785.307 550.244C784.086 550.244 782.947 550.012 781.889 549.548C780.831 549.076 780.013 548.433 779.435 547.62C778.865 546.806 778.581 545.882 778.581 544.849H780.937C780.937 545.923 781.331 546.773 782.121 547.4C782.918 548.018 783.98 548.328 785.307 548.328C786.544 548.328 787.492 548.075 788.151 547.571C788.81 547.066 789.14 546.379 789.14 545.508C789.14 544.637 788.834 543.966 788.224 543.494C787.614 543.014 786.507 542.542 784.904 542.078ZM802.311 548.694C801.432 549.727 800.142 550.244 798.441 550.244C797.034 550.244 795.959 549.837 795.219 549.023C794.486 548.201 794.116 546.989 794.108 545.386V536.792H796.366V545.325C796.366 547.327 797.18 548.328 798.808 548.328C800.533 548.328 801.68 547.685 802.25 546.399V536.792H804.508V550H802.36L802.311 548.694ZM819.132 543.542C819.132 545.561 818.668 547.184 817.741 548.413C816.813 549.634 815.568 550.244 814.005 550.244C812.337 550.244 811.047 549.654 810.136 548.474L810.026 550H807.951V531.25H810.209V538.245C811.12 537.113 812.378 536.548 813.981 536.548C815.584 536.548 816.841 537.154 817.753 538.367C818.673 539.579 819.132 541.239 819.132 543.347V543.542ZM816.874 543.286C816.874 541.748 816.577 540.56 815.983 539.722C815.389 538.883 814.534 538.464 813.419 538.464C811.93 538.464 810.86 539.156 810.209 540.54V546.252C810.901 547.636 811.979 548.328 813.444 548.328C814.526 548.328 815.368 547.909 815.971 547.07C816.573 546.232 816.874 544.971 816.874 543.286ZM824.113 536.792L824.174 538.257C825.142 537.118 826.448 536.548 828.092 536.548C829.94 536.548 831.197 537.256 831.864 538.672C832.304 538.037 832.873 537.524 833.573 537.134C834.281 536.743 835.115 536.548 836.076 536.548C838.973 536.548 840.446 538.082 840.495 541.15V550H838.236V541.284C838.236 540.34 838.021 539.636 837.589 539.172C837.158 538.7 836.434 538.464 835.417 538.464C834.578 538.464 833.882 538.717 833.329 539.221C832.776 539.718 832.454 540.389 832.365 541.235V550H830.094V541.345C830.094 539.425 829.154 538.464 827.274 538.464C825.793 538.464 824.78 539.095 824.235 540.356V550H821.977V536.792H824.113ZM846.366 550H844.108V536.792H846.366V550ZM843.925 533.289C843.925 532.922 844.035 532.613 844.254 532.361C844.482 532.109 844.816 531.982 845.255 531.982C845.695 531.982 846.028 532.109 846.256 532.361C846.484 532.613 846.598 532.922 846.598 533.289C846.598 533.655 846.484 533.96 846.256 534.204C846.028 534.448 845.695 534.57 845.255 534.57C844.816 534.57 844.482 534.448 844.254 534.204C844.035 533.96 843.925 533.655 843.925 533.289ZM857.682 546.497C857.682 545.886 857.45 545.414 856.986 545.081C856.531 544.739 855.729 544.446 854.582 544.202C853.442 543.958 852.535 543.665 851.859 543.323C851.192 542.981 850.696 542.574 850.37 542.102C850.053 541.63 849.894 541.069 849.894 540.417C849.894 539.335 850.35 538.42 851.261 537.671C852.181 536.922 853.353 536.548 854.777 536.548C856.274 536.548 857.487 536.934 858.415 537.708C859.35 538.481 859.818 539.469 859.818 540.674H857.548C857.548 540.055 857.283 539.522 856.754 539.075C856.234 538.627 855.574 538.403 854.777 538.403C853.955 538.403 853.312 538.582 852.848 538.94C852.384 539.299 852.152 539.766 852.152 540.344C852.152 540.889 852.368 541.3 852.799 541.577C853.231 541.854 854.008 542.118 855.131 542.371C856.262 542.623 857.178 542.924 857.877 543.274C858.577 543.624 859.094 544.047 859.428 544.543C859.77 545.032 859.94 545.63 859.94 546.338C859.94 547.518 859.468 548.466 858.524 549.182C857.58 549.89 856.356 550.244 854.85 550.244C853.792 550.244 852.856 550.057 852.042 549.683C851.229 549.308 850.59 548.787 850.126 548.12C849.67 547.445 849.442 546.716 849.442 545.935H851.701C851.741 546.692 852.042 547.294 852.604 547.742C853.174 548.181 853.922 548.401 854.85 548.401C855.705 548.401 856.388 548.23 856.901 547.888C857.422 547.538 857.682 547.074 857.682 546.497ZM870.573 546.497C870.573 545.886 870.341 545.414 869.877 545.081C869.421 544.739 868.62 544.446 867.472 544.202C866.333 543.958 865.425 543.665 864.75 543.323C864.083 542.981 863.586 542.574 863.261 542.102C862.943 541.63 862.785 541.069 862.785 540.417C862.785 539.335 863.24 538.42 864.152 537.671C865.071 536.922 866.243 536.548 867.667 536.548C869.165 536.548 870.377 536.934 871.305 537.708C872.241 538.481 872.709 539.469 872.709 540.674H870.438C870.438 540.055 870.174 539.522 869.645 539.075C869.124 538.627 868.465 538.403 867.667 538.403C866.846 538.403 866.203 538.582 865.739 538.94C865.275 539.299 865.043 539.766 865.043 540.344C865.043 540.889 865.259 541.3 865.69 541.577C866.121 541.854 866.898 542.118 868.021 542.371C869.153 542.623 870.068 542.924 870.768 543.274C871.468 543.624 871.985 544.047 872.318 544.543C872.66 545.032 872.831 545.63 872.831 546.338C872.831 547.518 872.359 548.466 871.415 549.182C870.471 549.89 869.246 550.244 867.741 550.244C866.683 550.244 865.747 550.057 864.933 549.683C864.119 549.308 863.48 548.787 863.017 548.12C862.561 547.445 862.333 546.716 862.333 545.935H864.591C864.632 546.692 864.933 547.294 865.495 547.742C866.064 548.181 866.813 548.401 867.741 548.401C868.595 548.401 869.279 548.23 869.792 547.888C870.312 547.538 870.573 547.074 870.573 546.497ZM878.227 550H875.968V536.792H878.227V550ZM875.785 533.289C875.785 532.922 875.895 532.613 876.115 532.361C876.343 532.109 876.676 531.982 877.116 531.982C877.555 531.982 877.889 532.109 878.117 532.361C878.345 532.613 878.458 532.922 878.458 533.289C878.458 533.655 878.345 533.96 878.117 534.204C877.889 534.448 877.555 534.57 877.116 534.57C876.676 534.57 876.343 534.448 876.115 534.204C875.895 533.96 875.785 533.655 875.785 533.289ZM881.254 543.274C881.254 541.98 881.506 540.816 882.011 539.783C882.523 538.749 883.231 537.952 884.135 537.39C885.046 536.829 886.084 536.548 887.248 536.548C889.046 536.548 890.499 537.17 891.605 538.416C892.72 539.661 893.278 541.317 893.278 543.384V543.542C893.278 544.828 893.03 545.984 892.533 547.009C892.045 548.027 891.341 548.82 890.421 549.39C889.51 549.959 888.46 550.244 887.272 550.244C885.482 550.244 884.029 549.622 882.914 548.376C881.807 547.131 881.254 545.483 881.254 543.433V543.274ZM883.524 543.542C883.524 545.007 883.862 546.183 884.538 547.07C885.221 547.957 886.133 548.401 887.272 548.401C888.419 548.401 889.331 547.953 890.006 547.058C890.682 546.155 891.02 544.893 891.02 543.274C891.02 541.825 890.674 540.653 889.982 539.758C889.298 538.855 888.387 538.403 887.248 538.403C886.133 538.403 885.233 538.847 884.55 539.734C883.866 540.621 883.524 541.89 883.524 543.542ZM898.246 536.792L898.319 538.452C899.328 537.183 900.647 536.548 902.274 536.548C905.066 536.548 906.474 538.123 906.498 541.272V550H904.24V541.26C904.232 540.308 904.012 539.604 903.581 539.148C903.157 538.692 902.494 538.464 901.591 538.464C900.858 538.464 900.215 538.66 899.662 539.05C899.109 539.441 898.677 539.954 898.368 540.588V550H896.11V536.792H898.246ZM826.164 579.244C824.373 579.244 822.917 578.658 821.793 577.486C820.67 576.306 820.109 574.732 820.109 572.762V572.347C820.109 571.037 820.357 569.869 820.854 568.844C821.358 567.81 822.058 567.005 822.953 566.427C823.856 565.841 824.833 565.548 825.883 565.548C827.6 565.548 828.935 566.113 829.887 567.245C830.839 568.376 831.315 569.995 831.315 572.103V573.043H822.367C822.4 574.345 822.778 575.399 823.502 576.205C824.235 577.002 825.163 577.401 826.286 577.401C827.083 577.401 827.759 577.238 828.312 576.913C828.865 576.587 829.35 576.156 829.765 575.619L831.144 576.693C830.037 578.394 828.377 579.244 826.164 579.244ZM825.883 567.403C824.971 567.403 824.206 567.737 823.588 568.404C822.969 569.063 822.587 569.991 822.44 571.188H829.057V571.017C828.992 569.869 828.682 568.982 828.129 568.355C827.576 567.721 826.827 567.403 825.883 567.403ZM836.076 565.792L836.149 567.452C837.158 566.183 838.476 565.548 840.104 565.548C842.895 565.548 844.303 567.123 844.328 570.272V579H842.069V570.26C842.061 569.308 841.841 568.604 841.41 568.148C840.987 567.692 840.324 567.464 839.42 567.464C838.688 567.464 838.045 567.66 837.492 568.05C836.938 568.441 836.507 568.954 836.198 569.588V579H833.939V565.792H836.076ZM847.184 572.286C847.184 570.26 847.664 568.632 848.625 567.403C849.585 566.166 850.842 565.548 852.396 565.548C853.943 565.548 855.167 566.077 856.071 567.135V560.25H858.329V579H856.254L856.144 577.584C855.241 578.691 853.983 579.244 852.372 579.244C850.842 579.244 849.593 578.618 848.625 577.364C847.664 576.111 847.184 574.475 847.184 572.457V572.286ZM849.442 572.542C849.442 574.04 849.752 575.212 850.37 576.058C850.989 576.904 851.843 577.328 852.934 577.328C854.366 577.328 855.412 576.685 856.071 575.399V569.332C855.395 568.087 854.358 567.464 852.958 567.464C851.851 567.464 850.989 567.892 850.37 568.746C849.752 569.601 849.442 570.866 849.442 572.542ZM869.535 575.497C869.535 574.886 869.303 574.414 868.839 574.081C868.384 573.739 867.582 573.446 866.435 573.202C865.295 572.958 864.388 572.665 863.712 572.323C863.045 571.981 862.549 571.574 862.223 571.102C861.906 570.63 861.747 570.069 861.747 569.417C861.747 568.335 862.203 567.42 863.114 566.671C864.034 565.922 865.206 565.548 866.63 565.548C868.127 565.548 869.34 565.934 870.268 566.708C871.203 567.481 871.671 568.469 871.671 569.674H869.401C869.401 569.055 869.136 568.522 868.607 568.075C868.087 567.627 867.427 567.403 866.63 567.403C865.808 567.403 865.165 567.582 864.701 567.94C864.237 568.299 864.005 568.766 864.005 569.344C864.005 569.889 864.221 570.3 864.652 570.577C865.084 570.854 865.861 571.118 866.984 571.371C868.115 571.623 869.031 571.924 869.73 572.274C870.43 572.624 870.947 573.047 871.281 573.543C871.623 574.032 871.793 574.63 871.793 575.338C871.793 576.518 871.321 577.466 870.377 578.182C869.433 578.89 868.209 579.244 866.703 579.244C865.645 579.244 864.709 579.057 863.896 578.683C863.082 578.308 862.443 577.787 861.979 577.12C861.523 576.445 861.295 575.716 861.295 574.935H863.554C863.594 575.692 863.896 576.294 864.457 576.742C865.027 577.181 865.775 577.401 866.703 577.401C867.558 577.401 868.241 577.23 868.754 576.888C869.275 576.538 869.535 576.074 869.535 575.497Z" fill="#18FFFF"/>
<path d="M533.803 23H531.459V5.22656H533.803V23ZM540.81 6.59375V9.79199H543.276V11.5376H540.81V19.7285C540.81 20.2575 540.92 20.6562 541.14 20.9248C541.359 21.1852 541.734 21.3154 542.263 21.3154C542.523 21.3154 542.881 21.2666 543.337 21.1689V23C542.743 23.1628 542.165 23.2441 541.604 23.2441C540.594 23.2441 539.833 22.939 539.321 22.3286C538.808 21.7183 538.552 20.8516 538.552 19.7285V11.5376H536.147V9.79199H538.552V6.59375H540.81ZM554.58 23H552.321V9.79199H554.58V23ZM552.138 6.28857C552.138 5.92236 552.248 5.61312 552.468 5.36084C552.696 5.10856 553.029 4.98242 553.469 4.98242C553.908 4.98242 554.242 5.10856 554.47 5.36084C554.698 5.61312 554.812 5.92236 554.812 6.28857C554.812 6.65479 554.698 6.95996 554.47 7.2041C554.242 7.44824 553.908 7.57031 553.469 7.57031C553.029 7.57031 552.696 7.44824 552.468 7.2041C552.248 6.95996 552.138 6.65479 552.138 6.28857ZM565.896 19.4966C565.896 18.8862 565.664 18.4142 565.2 18.0806C564.744 17.7388 563.942 17.4458 562.795 17.2017C561.656 16.9575 560.748 16.6646 560.073 16.3228C559.405 15.981 558.909 15.5741 558.583 15.1021C558.266 14.63 558.107 14.0685 558.107 13.4175C558.107 12.3351 558.563 11.4196 559.475 10.6709C560.394 9.9222 561.566 9.54785 562.99 9.54785C564.488 9.54785 565.7 9.93441 566.628 10.7075C567.564 11.4806 568.032 12.4694 568.032 13.6738H565.761C565.761 13.0553 565.497 12.5223 564.968 12.0747C564.447 11.6271 563.788 11.4033 562.99 11.4033C562.168 11.4033 561.525 11.5824 561.062 11.9404C560.598 12.2985 560.366 12.7664 560.366 13.3442C560.366 13.8895 560.581 14.3005 561.013 14.5771C561.444 14.8538 562.221 15.1183 563.344 15.3706C564.475 15.6229 565.391 15.924 566.091 16.2739C566.791 16.6239 567.307 17.047 567.641 17.5435C567.983 18.0317 568.154 18.6299 568.154 19.3379C568.154 20.5179 567.682 21.466 566.738 22.1821C565.794 22.8901 564.569 23.2441 563.063 23.2441C562.006 23.2441 561.07 23.057 560.256 22.6826C559.442 22.3083 558.803 21.7874 558.339 21.1201C557.884 20.4447 557.656 19.7163 557.656 18.9351H559.914C559.955 19.6919 560.256 20.2941 560.817 20.7417C561.387 21.1812 562.136 21.4009 563.063 21.4009C563.918 21.4009 564.602 21.23 565.114 20.8882C565.635 20.5382 565.896 20.0744 565.896 19.4966ZM580.361 6.59375V9.79199H582.827V11.5376H580.361V19.7285C580.361 20.2575 580.471 20.6562 580.69 20.9248C580.91 21.1852 581.285 21.3154 581.813 21.3154C582.074 21.3154 582.432 21.2666 582.888 21.1689V23C582.294 23.1628 581.716 23.2441 581.154 23.2441C580.145 23.2441 579.384 22.939 578.872 22.3286C578.359 21.7183 578.103 20.8516 578.103 19.7285V11.5376H575.698V9.79199H578.103V6.59375H580.361ZM593.63 23C593.5 22.7396 593.394 22.2757 593.312 21.6084C592.263 22.6989 591.009 23.2441 589.553 23.2441C588.251 23.2441 587.181 22.8779 586.342 22.1455C585.512 21.4049 585.097 20.4691 585.097 19.3379C585.097 17.9626 585.618 16.8965 586.66 16.1396C587.709 15.3747 589.182 14.9922 591.079 14.9922H593.276V13.9546C593.276 13.1652 593.04 12.5386 592.568 12.0747C592.096 11.6027 591.4 11.3667 590.48 11.3667C589.675 11.3667 588.999 11.5701 588.454 11.9771C587.909 12.384 587.636 12.8763 587.636 13.4541H585.366C585.366 12.7949 585.598 12.1602 586.062 11.5498C586.534 10.9313 587.168 10.443 587.966 10.085C588.771 9.72689 589.654 9.54785 590.615 9.54785C592.137 9.54785 593.329 9.93034 594.191 10.6953C595.054 11.4521 595.502 12.4979 595.534 13.8325V19.9116C595.534 21.1242 595.689 22.0885 595.998 22.8047V23H593.63ZM589.882 21.2788C590.59 21.2788 591.262 21.0957 591.896 20.7295C592.531 20.3633 592.991 19.8872 593.276 19.3013V16.5913H591.506C588.739 16.5913 587.355 17.401 587.355 19.0205C587.355 19.7285 587.591 20.2819 588.063 20.6807C588.535 21.0794 589.142 21.2788 589.882 21.2788ZM602.761 16.8843L601.345 18.3613V23H599.086V4.25H601.345V15.5903L602.553 14.1377L606.667 9.79199H609.414L604.274 15.3096L610.012 23H607.363L602.761 16.8843ZM616.982 23.2441C615.192 23.2441 613.735 22.6582 612.612 21.4863C611.489 20.3063 610.927 18.7316 610.927 16.7622V16.3472C610.927 15.0369 611.175 13.8691 611.672 12.8438C612.176 11.8102 612.876 11.0046 613.771 10.4268C614.675 9.84082 615.651 9.54785 616.701 9.54785C618.418 9.54785 619.753 10.1134 620.705 11.2446C621.657 12.3758 622.133 13.9953 622.133 16.103V17.043H613.186C613.218 18.3451 613.597 19.3989 614.321 20.2046C615.053 21.0021 615.981 21.4009 617.104 21.4009C617.902 21.4009 618.577 21.2381 619.13 20.9126C619.684 20.5871 620.168 20.1558 620.583 19.6187L621.962 20.6929C620.856 22.3937 619.195 23.2441 616.982 23.2441ZM616.701 11.4033C615.79 11.4033 615.025 11.737 614.406 12.4043C613.788 13.0635 613.405 13.9912 613.259 15.1875H619.875V15.0166C619.81 13.8691 619.501 12.9821 618.947 12.3555C618.394 11.7207 617.645 11.4033 616.701 11.4033ZM624.16 16.2739C624.16 14.98 624.412 13.8162 624.917 12.7827C625.429 11.7492 626.137 10.9517 627.041 10.3901C627.952 9.82861 628.99 9.54785 630.153 9.54785C631.952 9.54785 633.404 10.1704 634.511 11.4155C635.626 12.6606 636.184 14.3167 636.184 16.3838V16.5425C636.184 17.8283 635.935 18.9839 635.439 20.0093C634.951 21.0265 634.247 21.82 633.327 22.3896C632.416 22.9593 631.366 23.2441 630.178 23.2441C628.387 23.2441 626.935 22.6216 625.82 21.3765C624.713 20.1313 624.16 18.4834 624.16 16.4326V16.2739ZM626.43 16.5425C626.43 18.0073 626.768 19.1833 627.443 20.0703C628.127 20.9574 629.038 21.4009 630.178 21.4009C631.325 21.4009 632.237 20.9533 632.912 20.0581C633.588 19.1548 633.925 17.8934 633.925 16.2739C633.925 14.8254 633.579 13.6535 632.888 12.7583C632.204 11.855 631.293 11.4033 630.153 11.4033C629.038 11.4033 628.139 11.8468 627.456 12.7339C626.772 13.6209 626.43 14.8905 626.43 16.5425ZM640.126 23V11.5376H638.039V9.79199H640.126V8.43701C640.126 7.021 640.505 5.92643 641.262 5.15332C642.019 4.38021 643.089 3.99365 644.472 3.99365C644.993 3.99365 645.51 4.06283 646.022 4.20117L645.9 6.03223C645.518 5.95898 645.111 5.92236 644.68 5.92236C643.947 5.92236 643.382 6.13802 642.983 6.56934C642.584 6.99251 642.385 7.60286 642.385 8.40039V9.79199H645.205V11.5376H642.385V23H640.126ZM648.818 23V11.5376H646.73V9.79199H648.818V8.43701C648.818 7.021 649.196 5.92643 649.953 5.15332C650.71 4.38021 651.78 3.99365 653.164 3.99365C653.684 3.99365 654.201 4.06283 654.714 4.20117L654.592 6.03223C654.209 5.95898 653.802 5.92236 653.371 5.92236C652.639 5.92236 652.073 6.13802 651.674 6.56934C651.276 6.99251 651.076 7.60286 651.076 8.40039V9.79199H653.896V11.5376H651.076V23H648.818ZM665.664 6.59375V9.79199H668.129V11.5376H665.664V19.7285C665.664 20.2575 665.773 20.6562 665.993 20.9248C666.213 21.1852 666.587 21.3154 667.116 21.3154C667.377 21.3154 667.735 21.2666 668.19 21.1689V23C667.596 23.1628 667.019 23.2441 666.457 23.2441C665.448 23.2441 664.687 22.939 664.174 22.3286C663.662 21.7183 663.405 20.8516 663.405 19.7285V11.5376H661V9.79199H663.405V6.59375H665.664ZM673.232 23H670.974V9.79199H673.232V23ZM670.791 6.28857C670.791 5.92236 670.9 5.61312 671.12 5.36084C671.348 5.10856 671.682 4.98242 672.121 4.98242C672.561 4.98242 672.894 5.10856 673.122 5.36084C673.35 5.61312 673.464 5.92236 673.464 6.28857C673.464 6.65479 673.35 6.95996 673.122 7.2041C672.894 7.44824 672.561 7.57031 672.121 7.57031C671.682 7.57031 671.348 7.44824 671.12 7.2041C670.9 6.95996 670.791 6.65479 670.791 6.28857ZM678.981 9.79199L679.042 11.2568C680.011 10.1175 681.317 9.54785 682.961 9.54785C684.808 9.54785 686.066 10.2559 686.733 11.6719C687.172 11.0371 687.742 10.5244 688.442 10.1338C689.15 9.74316 689.984 9.54785 690.944 9.54785C693.841 9.54785 695.314 11.0819 695.363 14.1499V23H693.105V14.2842C693.105 13.3402 692.889 12.6362 692.458 12.1724C692.027 11.7004 691.302 11.4644 690.285 11.4644C689.447 11.4644 688.751 11.7166 688.198 12.2212C687.644 12.7176 687.323 13.389 687.233 14.2354V23H684.963V14.3452C684.963 12.4246 684.023 11.4644 682.143 11.4644C680.662 11.4644 679.649 12.0951 679.104 13.3564V23H676.845V9.79199H678.981ZM704.262 23.2441C702.472 23.2441 701.015 22.6582 699.892 21.4863C698.769 20.3063 698.208 18.7316 698.208 16.7622V16.3472C698.208 15.0369 698.456 13.8691 698.952 12.8438C699.457 11.8102 700.157 11.0046 701.052 10.4268C701.955 9.84082 702.932 9.54785 703.981 9.54785C705.699 9.54785 707.033 10.1134 707.985 11.2446C708.938 12.3758 709.414 13.9953 709.414 16.103V17.043H700.466C700.498 18.3451 700.877 19.3989 701.601 20.2046C702.333 21.0021 703.261 21.4009 704.384 21.4009C705.182 21.4009 705.857 21.2381 706.411 20.9126C706.964 20.5871 707.448 20.1558 707.863 19.6187L709.243 20.6929C708.136 22.3937 706.476 23.2441 704.262 23.2441ZM703.981 11.4033C703.07 11.4033 702.305 11.737 701.687 12.4043C701.068 13.0635 700.686 13.9912 700.539 15.1875H707.155V15.0166C707.09 13.8691 706.781 12.9821 706.228 12.3555C705.674 11.7207 704.925 11.4033 703.981 11.4033ZM714.565 17.9829H712.526L712.368 5.22656H714.736L714.565 17.9829ZM712.282 21.8647C712.282 21.4985 712.392 21.1934 712.612 20.9492C712.84 20.6969 713.173 20.5708 713.613 20.5708C714.052 20.5708 714.386 20.6969 714.614 20.9492C714.842 21.1934 714.956 21.4985 714.956 21.8647C714.956 22.231 714.842 22.5361 714.614 22.7803C714.386 23.0163 714.052 23.1343 713.613 23.1343C713.173 23.1343 712.84 23.0163 712.612 22.7803C712.392 22.5361 712.282 22.231 712.282 21.8647ZM529.824 46.3604C529.604 48.2402 528.908 49.6929 527.736 50.7183C526.573 51.7355 525.022 52.2441 523.085 52.2441C520.986 52.2441 519.301 51.4914 518.032 49.9858C516.77 48.4803 516.14 46.4661 516.14 43.9434V42.2344C516.14 40.5824 516.433 39.1297 517.019 37.8765C517.613 36.6232 518.451 35.6629 519.533 34.9956C520.616 34.3201 521.869 33.9824 523.293 33.9824C525.181 33.9824 526.695 34.5114 527.834 35.5693C528.973 36.6191 529.637 38.0758 529.824 39.9395H527.468C527.264 38.5234 526.821 37.498 526.137 36.8633C525.462 36.2285 524.514 35.9111 523.293 35.9111C521.796 35.9111 520.62 36.4645 519.765 37.5713C518.919 38.6781 518.496 40.2528 518.496 42.2954V44.0166C518.496 45.9453 518.898 47.4793 519.704 48.6187C520.51 49.758 521.637 50.3276 523.085 50.3276C524.388 50.3276 525.384 50.0347 526.076 49.4487C526.776 48.8547 527.24 47.8252 527.468 46.3604H529.824ZM532.082 45.2739C532.082 43.98 532.334 42.8162 532.839 41.7827C533.352 40.7492 534.06 39.9517 534.963 39.3901C535.874 38.8286 536.912 38.5479 538.076 38.5479C539.874 38.5479 541.327 39.1704 542.434 40.4155C543.549 41.6606 544.106 43.3167 544.106 45.3838V45.5425C544.106 46.8283 543.858 47.9839 543.361 49.0093C542.873 50.0265 542.169 50.82 541.25 51.3896C540.338 51.9593 539.288 52.2441 538.1 52.2441C536.31 52.2441 534.857 51.6216 533.742 50.3765C532.635 49.1313 532.082 47.4834 532.082 45.4326V45.2739ZM534.353 45.5425C534.353 47.0073 534.69 48.1833 535.366 49.0703C536.049 49.9574 536.961 50.4009 538.1 50.4009C539.248 50.4009 540.159 49.9533 540.834 49.0581C541.51 48.1548 541.848 46.8934 541.848 45.2739C541.848 43.8254 541.502 42.6535 540.81 41.7583C540.126 40.855 539.215 40.4033 538.076 40.4033C536.961 40.4033 536.062 40.8468 535.378 41.7339C534.694 42.6209 534.353 43.8905 534.353 45.5425ZM549.062 38.792L549.123 40.2568C550.091 39.1175 551.398 38.5479 553.042 38.5479C554.889 38.5479 556.146 39.2559 556.813 40.6719C557.253 40.0371 557.823 39.5244 558.522 39.1338C559.23 38.7432 560.065 38.5479 561.025 38.5479C563.922 38.5479 565.395 40.0819 565.444 43.1499V52H563.186V43.2842C563.186 42.3402 562.97 41.6362 562.539 41.1724C562.107 40.7004 561.383 40.4644 560.366 40.4644C559.528 40.4644 558.832 40.7166 558.278 41.2212C557.725 41.7176 557.403 42.389 557.314 43.2354V52H555.043V43.3452C555.043 41.4246 554.104 40.4644 552.224 40.4644C550.743 40.4644 549.729 41.0951 549.184 42.3564V52H546.926V38.792H549.062ZM580.019 45.5425C580.019 47.5526 579.559 49.172 578.64 50.4009C577.72 51.6297 576.475 52.2441 574.904 52.2441C573.301 52.2441 572.04 51.7355 571.12 50.7183V57.0781H568.862V38.792H570.925L571.035 40.2568C571.954 39.1175 573.232 38.5479 574.868 38.5479C576.455 38.5479 577.708 39.146 578.627 40.3423C579.555 41.5386 580.019 43.2028 580.019 45.335V45.5425ZM577.761 45.2861C577.761 43.7969 577.443 42.6209 576.809 41.7583C576.174 40.8957 575.303 40.4644 574.196 40.4644C572.829 40.4644 571.804 41.0706 571.12 42.2832V48.5942C571.796 49.7987 572.829 50.4009 574.221 50.4009C575.303 50.4009 576.162 49.9736 576.796 49.1191C577.439 48.2565 577.761 46.9788 577.761 45.2861ZM588.381 52.2441C586.59 52.2441 585.134 51.6582 584.011 50.4863C582.888 49.3063 582.326 47.7316 582.326 45.7622V45.3472C582.326 44.0369 582.574 42.8691 583.071 41.8438C583.575 40.8102 584.275 40.0046 585.17 39.4268C586.074 38.8408 587.05 38.5479 588.1 38.5479C589.817 38.5479 591.152 39.1134 592.104 40.2446C593.056 41.3758 593.532 42.9953 593.532 45.103V46.043H584.584C584.617 47.3451 584.995 48.3989 585.72 49.2046C586.452 50.0021 587.38 50.4009 588.503 50.4009C589.3 50.4009 589.976 50.2381 590.529 49.9126C591.083 49.5871 591.567 49.1558 591.982 48.6187L593.361 49.6929C592.255 51.3937 590.594 52.2441 588.381 52.2441ZM588.1 40.4033C587.189 40.4033 586.424 40.737 585.805 41.4043C585.187 42.0635 584.804 42.9912 584.658 44.1875H591.274V44.0166C591.209 42.8691 590.9 41.9821 590.346 41.3555C589.793 40.7207 589.044 40.4033 588.1 40.4033ZM599.221 35.5938V38.792H601.687V40.5376H599.221V48.7285C599.221 49.2575 599.331 49.6562 599.55 49.9248C599.77 50.1852 600.144 50.3154 600.673 50.3154C600.934 50.3154 601.292 50.2666 601.748 50.1689V52C601.153 52.1628 600.576 52.2441 600.014 52.2441C599.005 52.2441 598.244 51.939 597.731 51.3286C597.219 50.7183 596.962 49.8516 596.962 48.7285V40.5376H594.558V38.792H596.962V35.5938H599.221ZM606.789 52H604.531V38.792H606.789V52ZM604.348 35.2886C604.348 34.9224 604.458 34.6131 604.677 34.3608C604.905 34.1086 605.239 33.9824 605.678 33.9824C606.118 33.9824 606.451 34.1086 606.679 34.3608C606.907 34.6131 607.021 34.9224 607.021 35.2886C607.021 35.6548 606.907 35.96 606.679 36.2041C606.451 36.4482 606.118 36.5703 605.678 36.5703C605.239 36.5703 604.905 36.4482 604.677 36.2041C604.458 35.96 604.348 35.6548 604.348 35.2886ZM613.479 35.5938V38.792H615.944V40.5376H613.479V48.7285C613.479 49.2575 613.588 49.6562 613.808 49.9248C614.028 50.1852 614.402 50.3154 614.931 50.3154C615.192 50.3154 615.55 50.2666 616.005 50.1689V52C615.411 52.1628 614.833 52.2441 614.272 52.2441C613.263 52.2441 612.502 51.939 611.989 51.3286C611.477 50.7183 611.22 49.8516 611.22 48.7285V40.5376H608.815V38.792H611.22V35.5938H613.479ZM621.047 52H618.789V38.792H621.047V52ZM618.605 35.2886C618.605 34.9224 618.715 34.6131 618.935 34.3608C619.163 34.1086 619.497 33.9824 619.936 33.9824C620.375 33.9824 620.709 34.1086 620.937 34.3608C621.165 34.6131 621.279 34.9224 621.279 35.2886C621.279 35.6548 621.165 35.96 620.937 36.2041C620.709 36.4482 620.375 36.5703 619.936 36.5703C619.497 36.5703 619.163 36.4482 618.935 36.2041C618.715 35.96 618.605 35.6548 618.605 35.2886ZM624.074 45.2739C624.074 43.98 624.326 42.8162 624.831 41.7827C625.344 40.7492 626.052 39.9517 626.955 39.3901C627.867 38.8286 628.904 38.5479 630.068 38.5479C631.866 38.5479 633.319 39.1704 634.426 40.4155C635.541 41.6606 636.098 43.3167 636.098 45.3838V45.5425C636.098 46.8283 635.85 47.9839 635.354 49.0093C634.865 50.0265 634.161 50.82 633.242 51.3896C632.33 51.9593 631.28 52.2441 630.092 52.2441C628.302 52.2441 626.849 51.6216 625.734 50.3765C624.628 49.1313 624.074 47.4834 624.074 45.4326V45.2739ZM626.345 45.5425C626.345 47.0073 626.682 48.1833 627.358 49.0703C628.042 49.9574 628.953 50.4009 630.092 50.4009C631.24 50.4009 632.151 49.9533 632.827 49.0581C633.502 48.1548 633.84 46.8934 633.84 45.2739C633.84 43.8254 633.494 42.6535 632.802 41.7583C632.119 40.855 631.207 40.4033 630.068 40.4033C628.953 40.4033 628.054 40.8468 627.37 41.7339C626.687 42.6209 626.345 43.8905 626.345 45.5425ZM641.066 38.792L641.14 40.4521C642.149 39.1826 643.467 38.5479 645.095 38.5479C647.886 38.5479 649.294 40.1226 649.318 43.272V52H647.06V43.2598C647.052 42.3076 646.832 41.6037 646.401 41.1479C645.978 40.6922 645.314 40.4644 644.411 40.4644C643.679 40.4644 643.036 40.6597 642.482 41.0503C641.929 41.4409 641.498 41.9536 641.188 42.5884V52H638.93V38.792H641.066ZM670.107 45.5425C670.107 47.5607 669.643 49.1842 668.715 50.4131C667.788 51.6338 666.542 52.2441 664.98 52.2441C663.312 52.2441 662.022 51.6541 661.11 50.4741L661 52H658.925V33.25H661.184V40.2446C662.095 39.1134 663.352 38.5479 664.956 38.5479C666.559 38.5479 667.816 39.1541 668.728 40.3667C669.647 41.5793 670.107 43.2394 670.107 45.3472V45.5425ZM667.849 45.2861C667.849 43.748 667.552 42.5599 666.958 41.7217C666.363 40.8835 665.509 40.4644 664.394 40.4644C662.905 40.4644 661.835 41.1561 661.184 42.5396V48.2524C661.875 49.6359 662.954 50.3276 664.418 50.3276C665.501 50.3276 666.343 49.9085 666.945 49.0703C667.548 48.2321 667.849 46.9707 667.849 45.2861ZM678.444 52.2441C676.654 52.2441 675.197 51.6582 674.074 50.4863C672.951 49.3063 672.39 47.7316 672.39 45.7622V45.3472C672.39 44.0369 672.638 42.8691 673.134 41.8438C673.639 40.8102 674.339 40.0046 675.234 39.4268C676.137 38.8408 677.114 38.5479 678.164 38.5479C679.881 38.5479 681.215 39.1134 682.167 40.2446C683.12 41.3758 683.596 42.9953 683.596 45.103V46.043H674.648C674.681 47.3451 675.059 48.3989 675.783 49.2046C676.516 50.0021 677.443 50.4009 678.566 50.4009C679.364 50.4009 680.039 50.2381 680.593 49.9126C681.146 49.5871 681.63 49.1558 682.045 48.6187L683.425 49.6929C682.318 51.3937 680.658 52.2441 678.444 52.2441ZM678.164 40.4033C677.252 40.4033 676.487 40.737 675.869 41.4043C675.25 42.0635 674.868 42.9912 674.721 44.1875H681.337V44.0166C681.272 42.8691 680.963 41.9821 680.41 41.3555C679.856 40.7207 679.108 40.4033 678.164 40.4033ZM685.683 45.2861C685.683 43.2272 686.159 41.5915 687.111 40.3789C688.063 39.1582 689.325 38.5479 690.896 38.5479C692.507 38.5479 693.764 39.1175 694.667 40.2568L694.777 38.792H696.84V51.6826C696.84 53.3916 696.332 54.7384 695.314 55.7231C694.305 56.7078 692.946 57.2002 691.237 57.2002C690.285 57.2002 689.353 56.9967 688.442 56.5898C687.53 56.1829 686.835 55.6255 686.354 54.9175L687.526 53.5625C688.495 54.7588 689.679 55.3569 691.079 55.3569C692.177 55.3569 693.032 55.0477 693.642 54.4292C694.261 53.8107 694.57 52.9399 694.57 51.8169V50.6816C693.667 51.7233 692.434 52.2441 690.871 52.2441C689.325 52.2441 688.072 51.6216 687.111 50.3765C686.159 49.1313 685.683 47.4346 685.683 45.2861ZM687.954 45.5425C687.954 47.0317 688.259 48.2036 688.869 49.0581C689.479 49.9045 690.334 50.3276 691.433 50.3276C692.857 50.3276 693.903 49.6807 694.57 48.3867V42.3564C693.878 41.0951 692.84 40.4644 691.457 40.4644C690.358 40.4644 689.5 40.8916 688.881 41.7461C688.263 42.6006 687.954 43.866 687.954 45.5425ZM702.712 52H700.454V38.792H702.712V52ZM700.271 35.2886C700.271 34.9224 700.38 34.6131 700.6 34.3608C700.828 34.1086 701.162 33.9824 701.601 33.9824C702.041 33.9824 702.374 34.1086 702.602 34.3608C702.83 34.6131 702.944 34.9224 702.944 35.2886C702.944 35.6548 702.83 35.96 702.602 36.2041C702.374 36.4482 702.041 36.5703 701.601 36.5703C701.162 36.5703 700.828 36.4482 700.6 36.2041C700.38 35.96 700.271 35.6548 700.271 35.2886ZM708.474 38.792L708.547 40.4521C709.556 39.1826 710.874 38.5479 712.502 38.5479C715.293 38.5479 716.701 40.1226 716.726 43.272V52H714.467V43.2598C714.459 42.3076 714.239 41.6037 713.808 41.1479C713.385 40.6922 712.722 40.4644 711.818 40.4644C711.086 40.4644 710.443 40.6597 709.89 41.0503C709.336 41.4409 708.905 41.9536 708.596 42.5884V52H706.337V38.792H708.474ZM727.822 48.4966C727.822 47.8862 727.59 47.4142 727.126 47.0806C726.67 46.7388 725.869 46.4458 724.721 46.2017C723.582 45.9575 722.674 45.6646 721.999 45.3228C721.332 44.981 720.835 44.5741 720.51 44.1021C720.192 43.63 720.034 43.0685 720.034 42.4175C720.034 41.3351 720.489 40.4196 721.401 39.6709C722.32 38.9222 723.492 38.5479 724.917 38.5479C726.414 38.5479 727.626 38.9344 728.554 39.7075C729.49 40.4806 729.958 41.4694 729.958 42.6738H727.688C727.688 42.0553 727.423 41.5223 726.894 41.0747C726.373 40.6271 725.714 40.4033 724.917 40.4033C724.095 40.4033 723.452 40.5824 722.988 40.9404C722.524 41.2985 722.292 41.7664 722.292 42.3442C722.292 42.8895 722.508 43.3005 722.939 43.5771C723.37 43.8538 724.147 44.1183 725.271 44.3706C726.402 44.6229 727.317 44.924 728.017 45.2739C728.717 45.6239 729.234 46.047 729.567 46.5435C729.909 47.0317 730.08 47.6299 730.08 48.3379C730.08 49.5179 729.608 50.466 728.664 51.1821C727.72 51.8901 726.495 52.2441 724.99 52.2441C723.932 52.2441 722.996 52.057 722.182 51.6826C721.368 51.3083 720.729 50.7874 720.266 50.1201C719.81 49.4447 719.582 48.7163 719.582 47.9351H721.84C721.881 48.6919 722.182 49.2941 722.744 49.7417C723.313 50.1812 724.062 50.4009 724.99 50.4009C725.844 50.4009 726.528 50.23 727.041 49.8882C727.561 49.5382 727.822 49.0744 727.822 48.4966Z" fill="#18FFFF"/>
<defs>
<clipPath id="clip0_40:307">
<rect width="841" height="464" fill="white" transform="translate(80 63)"/>
</clipPath>
</defs>
</svg>
