<svg width="395" height="507" viewBox="0 0 395 507" fill="none" xmlns="http://www.w3.org/2000/svg">
<line x1="194.374" y1="507" x2="194.374" stroke="#43CFFB" stroke-width="2.5"/>
<path d="M231.711 430.404C231.711 410.502 215.581 394.368 195.683 394.368C175.786 394.368 159.655 410.502 159.655 430.404C159.655 450.306 175.786 466.44 195.683 466.44C215.581 466.44 231.711 450.306 231.711 430.404Z" fill="#BF00FF"/>
<path d="M160.248 437.279L153.729 430.404L160.248 423.529V437.279Z" fill="#BF00FF"/>
<path d="M92.9326 430.404C92.9326 426.279 89.5898 422.936 85.4663 422.936C81.3428 422.936 78 426.279 78 430.404C78 434.528 81.3428 437.872 85.4663 437.872C89.5898 437.872 92.9326 434.528 92.9326 430.404Z" fill="#BF00FF"/>
<path d="M89.6143 430.404C89.6143 428.113 87.7572 426.255 85.4663 426.255C83.1755 426.255 81.3184 428.113 81.3184 430.404C81.3184 432.695 83.1755 434.553 85.4663 434.553C87.7572 434.553 89.6143 432.695 89.6143 430.404Z" fill="white"/>
<path d="M162.026 430.404H91.6289" stroke="#BF00FF" stroke-width="1.5" stroke-miterlimit="10" stroke-linecap="round"/>
<path d="M92.9326 194.273C92.9326 190.149 89.5898 186.805 85.4663 186.805C81.3428 186.805 78 190.149 78 194.273C78 198.398 81.3428 201.741 85.4663 201.741C89.5898 201.741 92.9326 198.398 92.9326 194.273Z" fill="#BF00FF"/>
<path d="M231.711 194.273C231.711 174.371 215.581 158.237 195.683 158.237C175.786 158.237 159.655 174.371 159.655 194.273C159.655 214.175 175.786 230.309 195.683 230.309C215.581 230.309 231.711 214.175 231.711 194.273Z" fill="#BF00FF"/>
<path d="M160.248 201.03L153.729 194.273L160.248 187.398V201.03Z" fill="#BF00FF"/>
<path d="M164.04 194.273H85.4663" stroke="#BF00FF" stroke-width="1.5" stroke-miterlimit="10" stroke-linecap="round"/>
<path d="M89.4956 194.273C89.4956 191.982 87.6385 190.124 85.3477 190.124C83.0568 190.124 81.1997 191.982 81.1997 194.273C81.1997 196.565 83.0568 198.422 85.3477 198.422C87.6385 198.422 89.4956 196.565 89.4956 194.273Z" fill="white"/>
<path d="M313.366 312.339C313.366 308.214 310.023 304.871 305.9 304.871C301.776 304.871 298.434 308.214 298.434 312.339C298.434 316.463 301.776 319.807 305.9 319.807C310.023 319.807 313.366 316.463 313.366 312.339Z" fill="#BF00FF"/>
<path d="M231.711 312.339C231.711 292.436 215.581 276.303 195.683 276.303C175.786 276.303 159.655 292.436 159.655 312.339C159.655 332.241 175.786 348.375 195.683 348.375C215.581 348.375 231.711 332.241 231.711 312.339Z" fill="#BF00FF"/>
<path d="M231 319.332L237.518 312.576L231 305.7V319.332Z" fill="#BF00FF"/>
<path d="M305.9 312.339H220.097" stroke="#BF00FF" stroke-width="1.5" stroke-miterlimit="10"/>
<path d="M310.048 312.339C310.048 310.047 308.191 308.19 305.9 308.19C303.609 308.19 301.752 310.047 301.752 312.339C301.752 314.63 303.609 316.487 305.9 316.487C308.191 316.487 310.048 314.63 310.048 312.339Z" fill="white"/>
<path d="M313.366 76.0893C313.366 71.9648 310.023 68.6212 305.9 68.6212C301.776 68.6212 298.434 71.9648 298.434 76.0893C298.434 80.2137 301.776 83.5573 305.9 83.5573C310.023 83.5573 313.366 80.2137 313.366 76.0893Z" fill="#BF00FF"/>
<path d="M232.056 75.9639C232.056 56.0618 215.926 39.9278 196.028 39.9278C176.13 39.9278 160 56.0618 160 75.9639C160 95.8661 176.13 112 196.028 112C215.926 112 232.056 95.8661 232.056 75.9639Z" fill="#BF00FF"/>
<path d="M231 83.2015L237.518 76.3262L231 69.5695V83.2015Z" fill="#BF00FF"/>
<path d="M305.9 76.0891H210.023" stroke="#BF00FF" stroke-width="1.5" stroke-miterlimit="10" stroke-linecap="round"/>
<path d="M309.93 76.2076C309.93 73.9162 308.073 72.0587 305.782 72.0587C303.491 72.0587 301.634 73.9162 301.634 76.2076C301.634 78.4989 303.491 80.3564 305.782 80.3564C308.073 80.3564 309.93 78.4989 309.93 76.2076Z" fill="white"/>
<path d="M237.637 430.404C237.637 429.684 237.053 429.1 236.333 429.1C235.613 429.1 235.029 429.684 235.029 430.404C235.029 431.124 235.613 431.708 236.333 431.708C237.053 431.708 237.637 431.124 237.637 430.404Z" fill="#D8D8D8"/>
<path d="M244.155 430.404C244.155 429.684 243.571 429.1 242.851 429.1C242.131 429.1 241.547 429.684 241.547 430.404C241.547 431.124 242.131 431.708 242.851 431.708C243.571 431.708 244.155 431.124 244.155 430.404Z" fill="#D8D8D8"/>
<path d="M250.554 430.404C250.554 429.684 249.97 429.1 249.25 429.1C248.53 429.1 247.947 429.684 247.947 430.404C247.947 431.124 248.53 431.708 249.25 431.708C249.97 431.708 250.554 431.124 250.554 430.404Z" fill="#D8D8D8"/>
<path d="M256.954 430.404C256.954 429.684 256.371 429.1 255.651 429.1C254.931 429.1 254.347 429.684 254.347 430.404C254.347 431.124 254.931 431.708 255.651 431.708C256.371 431.708 256.954 431.124 256.954 430.404Z" fill="#D8D8D8"/>
<path d="M263.353 430.404C263.353 429.684 262.77 429.1 262.05 429.1C261.33 429.1 260.746 429.684 260.746 430.404C260.746 431.124 261.33 431.708 262.05 431.708C262.77 431.708 263.353 431.124 263.353 430.404Z" fill="#D8D8D8"/>
<path d="M237.637 192.613C237.637 191.893 237.053 191.309 236.333 191.309C235.613 191.309 235.029 191.893 235.029 192.613C235.029 193.333 235.613 193.917 236.333 193.917C237.053 193.917 237.637 193.333 237.637 192.613Z" fill="#D8D8D8"/>
<path d="M244.155 192.613C244.155 191.893 243.571 191.309 242.851 191.309C242.131 191.309 241.547 191.893 241.547 192.613C241.547 193.333 242.131 193.917 242.851 193.917C243.571 193.917 244.155 193.333 244.155 192.613Z" fill="#D8D8D8"/>
<path d="M250.554 192.613C250.554 191.893 249.97 191.309 249.25 191.309C248.53 191.309 247.947 191.893 247.947 192.613C247.947 193.333 248.53 193.917 249.25 193.917C249.97 193.917 250.554 193.333 250.554 192.613Z" fill="#D8D8D8"/>
<path d="M256.954 192.613C256.954 191.893 256.371 191.309 255.651 191.309C254.931 191.309 254.347 191.893 254.347 192.613C254.347 193.333 254.931 193.917 255.651 193.917C256.371 193.917 256.954 193.333 256.954 192.613Z" fill="#D8D8D8"/>
<path d="M263.353 192.613C263.353 191.893 262.77 191.309 262.05 191.309C261.33 191.309 260.746 191.893 260.746 192.613C260.746 193.333 261.33 193.917 262.05 193.917C262.77 193.917 263.353 193.333 263.353 192.613Z" fill="#D8D8D8"/>
<path d="M130.619 312.338C130.619 311.618 130.036 311.034 129.316 311.034C128.596 311.034 128.012 311.618 128.012 312.338C128.012 313.059 128.596 313.642 129.316 313.642C130.036 313.642 130.619 313.059 130.619 312.338Z" fill="#D8D8D8"/>
<path d="M137.019 312.338C137.019 311.618 136.435 311.034 135.715 311.034C134.995 311.034 134.412 311.618 134.412 312.338C134.412 313.059 134.995 313.642 135.715 313.642C136.435 313.642 137.019 313.059 137.019 312.338Z" fill="#D8D8D8"/>
<path d="M143.419 312.338C143.419 311.618 142.836 311.034 142.116 311.034C141.396 311.034 140.812 311.618 140.812 312.338C140.812 313.059 141.396 313.642 142.116 313.642C142.836 313.642 143.419 313.059 143.419 312.338Z" fill="#D8D8D8"/>
<path d="M149.818 312.338C149.818 311.618 149.235 311.034 148.515 311.034C147.795 311.034 147.211 311.618 147.211 312.338C147.211 313.059 147.795 313.642 148.515 313.642C149.235 313.642 149.818 313.059 149.818 312.338Z" fill="#D8D8D8"/>
<path d="M156.218 312.338C156.218 311.618 155.634 311.034 154.914 311.034C154.195 311.034 153.611 311.618 153.611 312.338C153.611 313.059 154.195 313.642 154.914 313.642C155.634 313.642 156.218 313.059 156.218 312.338Z" fill="#D8D8D8"/>
<path d="M130.619 76.2073C130.619 75.4871 130.036 74.9034 129.316 74.9034C128.596 74.9034 128.012 75.4871 128.012 76.2073C128.012 76.9274 128.596 77.5112 129.316 77.5112C130.036 77.5112 130.619 76.9274 130.619 76.2073Z" fill="#D8D8D8"/>
<path d="M137.019 76.2073C137.019 75.4871 136.435 74.9034 135.715 74.9034C134.995 74.9034 134.412 75.4871 134.412 76.2073C134.412 76.9274 134.995 77.5112 135.715 77.5112C136.435 77.5112 137.019 76.9274 137.019 76.2073Z" fill="#D8D8D8"/>
<path d="M143.419 76.2073C143.419 75.4871 142.836 74.9034 142.116 74.9034C141.396 74.9034 140.812 75.4871 140.812 76.2073C140.812 76.9274 141.396 77.5112 142.116 77.5112C142.836 77.5112 143.419 76.9274 143.419 76.2073Z" fill="#D8D8D8"/>
<path d="M149.818 76.2073C149.818 75.4871 149.235 74.9034 148.515 74.9034C147.795 74.9034 147.211 75.4871 147.211 76.2073C147.211 76.9274 147.795 77.5112 148.515 77.5112C149.235 77.5112 149.818 76.9274 149.818 76.2073Z" fill="#D8D8D8"/>
<path d="M156.218 76.2073C156.218 75.4871 155.634 74.9034 154.914 74.9034C154.195 74.9034 153.611 75.4871 153.611 76.2073C153.611 76.9274 154.195 77.5112 154.914 77.5112C155.634 77.5112 156.218 76.9274 156.218 76.2073Z" fill="#D8D8D8"/>
<path d="M332.521 72.5488H330.518V76H329.387V67.4688H332.211C333.172 67.4688 333.91 67.6875 334.426 68.125C334.945 68.5625 335.205 69.1992 335.205 70.0352C335.205 70.5664 335.061 71.0293 334.771 71.4238C334.486 71.8184 334.088 72.1133 333.576 72.3086L335.58 75.9297V76H334.373L332.521 72.5488ZM330.518 71.6289H332.246C332.805 71.6289 333.248 71.4844 333.576 71.1953C333.908 70.9062 334.074 70.5195 334.074 70.0352C334.074 69.5078 333.916 69.1035 333.6 68.8223C333.287 68.541 332.834 68.3984 332.24 68.3945H330.518V71.6289ZM339.248 76.1172C338.389 76.1172 337.689 75.8359 337.15 75.2734C336.611 74.707 336.342 73.9512 336.342 73.0059V72.8066C336.342 72.1777 336.461 71.6172 336.699 71.125C336.941 70.6289 337.277 70.2422 337.707 69.9648C338.141 69.6836 338.609 69.543 339.113 69.543C339.938 69.543 340.578 69.8145 341.035 70.3574C341.492 70.9004 341.721 71.6777 341.721 72.6895V73.1406H337.426C337.441 73.7656 337.623 74.2715 337.971 74.6582C338.322 75.041 338.768 75.2324 339.307 75.2324C339.689 75.2324 340.014 75.1543 340.279 74.998C340.545 74.8418 340.777 74.6348 340.977 74.377L341.639 74.8926C341.107 75.709 340.311 76.1172 339.248 76.1172ZM339.113 70.4336C338.676 70.4336 338.309 70.5938 338.012 70.9141C337.715 71.2305 337.531 71.6758 337.461 72.25H340.637V72.168C340.605 71.6172 340.457 71.1914 340.191 70.8906C339.926 70.5859 339.566 70.4336 339.113 70.4336ZM342.723 72.7773C342.723 71.7891 342.951 71.0039 343.408 70.4219C343.865 69.8359 344.471 69.543 345.225 69.543C345.998 69.543 346.602 69.8164 347.035 70.3633L347.088 69.6602H348.078V75.8477C348.078 76.668 347.834 77.3145 347.346 77.7871C346.861 78.2598 346.209 78.4961 345.389 78.4961C344.932 78.4961 344.484 78.3984 344.047 78.2031C343.609 78.0078 343.275 77.7402 343.045 77.4004L343.607 76.75C344.072 77.3242 344.641 77.6113 345.312 77.6113C345.84 77.6113 346.25 77.4629 346.543 77.166C346.84 76.8691 346.988 76.4512 346.988 75.9121V75.3672C346.555 75.8672 345.963 76.1172 345.213 76.1172C344.471 76.1172 343.869 75.8184 343.408 75.2207C342.951 74.623 342.723 73.8086 342.723 72.7773ZM343.812 72.9004C343.812 73.6152 343.959 74.1777 344.252 74.5879C344.545 74.9941 344.955 75.1973 345.482 75.1973C346.166 75.1973 346.668 74.8867 346.988 74.2656V71.3711C346.656 70.7656 346.158 70.4629 345.494 70.4629C344.967 70.4629 344.555 70.668 344.258 71.0781C343.961 71.4883 343.812 72.0957 343.812 72.9004ZM350.896 76H349.812V69.6602H350.896V76ZM349.725 67.9785C349.725 67.8027 349.777 67.6543 349.883 67.5332C349.992 67.4121 350.152 67.3516 350.363 67.3516C350.574 67.3516 350.734 67.4121 350.844 67.5332C350.953 67.6543 351.008 67.8027 351.008 67.9785C351.008 68.1543 350.953 68.3008 350.844 68.418C350.734 68.5352 350.574 68.5938 350.363 68.5938C350.152 68.5938 349.992 68.5352 349.883 68.418C349.777 68.3008 349.725 68.1543 349.725 67.9785ZM356.328 74.3184C356.328 74.0254 356.217 73.7988 355.994 73.6387C355.775 73.4746 355.391 73.334 354.84 73.2168C354.293 73.0996 353.857 72.959 353.533 72.7949C353.213 72.6309 352.975 72.4355 352.818 72.209C352.666 71.9824 352.59 71.7129 352.59 71.4004C352.59 70.8809 352.809 70.4414 353.246 70.082C353.688 69.7227 354.25 69.543 354.934 69.543C355.652 69.543 356.234 69.7285 356.68 70.0996C357.129 70.4707 357.354 70.9453 357.354 71.5234H356.264C356.264 71.2266 356.137 70.9707 355.883 70.7559C355.633 70.541 355.316 70.4336 354.934 70.4336C354.539 70.4336 354.23 70.5195 354.008 70.6914C353.785 70.8633 353.674 71.0879 353.674 71.3652C353.674 71.627 353.777 71.8242 353.984 71.957C354.191 72.0898 354.564 72.2168 355.104 72.3379C355.646 72.459 356.086 72.6035 356.422 72.7715C356.758 72.9395 357.006 73.1426 357.166 73.3809C357.33 73.6152 357.412 73.9023 357.412 74.2422C357.412 74.8086 357.186 75.2637 356.732 75.6074C356.279 75.9473 355.691 76.1172 354.969 76.1172C354.461 76.1172 354.012 76.0273 353.621 75.8477C353.23 75.668 352.924 75.418 352.701 75.0977C352.482 74.7734 352.373 74.4238 352.373 74.0488H353.457C353.477 74.4121 353.621 74.7012 353.891 74.916C354.164 75.127 354.523 75.2324 354.969 75.2324C355.379 75.2324 355.707 75.1504 355.953 74.9863C356.203 74.8184 356.328 74.5957 356.328 74.3184ZM360.295 68.125V69.6602H361.479V70.498H360.295V74.4297C360.295 74.6836 360.348 74.875 360.453 75.0039C360.559 75.1289 360.738 75.1914 360.992 75.1914C361.117 75.1914 361.289 75.168 361.508 75.1211V76C361.223 76.0781 360.945 76.1172 360.676 76.1172C360.191 76.1172 359.826 75.9707 359.58 75.6777C359.334 75.3848 359.211 74.9688 359.211 74.4297V70.498H358.057V69.6602H359.211V68.125H360.295ZM365.814 70.6328C365.65 70.6055 365.473 70.5918 365.281 70.5918C364.57 70.5918 364.088 70.8945 363.834 71.5V76H362.75V69.6602H363.805L363.822 70.3926C364.178 69.8262 364.682 69.543 365.334 69.543C365.545 69.543 365.705 69.5703 365.814 69.625V70.6328ZM370.496 76C370.434 75.875 370.383 75.6523 370.344 75.332C369.84 75.8555 369.238 76.1172 368.539 76.1172C367.914 76.1172 367.4 75.9414 366.998 75.5898C366.6 75.2344 366.4 74.7852 366.4 74.2422C366.4 73.582 366.65 73.0703 367.15 72.707C367.654 72.3398 368.361 72.1562 369.271 72.1562H370.326V71.6582C370.326 71.2793 370.213 70.9785 369.986 70.7559C369.76 70.5293 369.426 70.416 368.984 70.416C368.598 70.416 368.273 70.5137 368.012 70.709C367.75 70.9043 367.619 71.1406 367.619 71.418H366.529C366.529 71.1016 366.641 70.7969 366.863 70.5039C367.09 70.207 367.395 69.9727 367.777 69.8008C368.164 69.6289 368.588 69.543 369.049 69.543C369.779 69.543 370.352 69.7266 370.766 70.0938C371.18 70.457 371.395 70.959 371.41 71.5996V74.5176C371.41 75.0996 371.484 75.5625 371.633 75.9062V76H370.496ZM368.697 75.1738C369.037 75.1738 369.359 75.0859 369.664 74.9102C369.969 74.7344 370.189 74.5059 370.326 74.2246V72.9238H369.477C368.148 72.9238 367.484 73.3125 367.484 74.0898C367.484 74.4297 367.598 74.6953 367.824 74.8867C368.051 75.0781 368.342 75.1738 368.697 75.1738ZM374.58 68.125V69.6602H375.764V70.498H374.58V74.4297C374.58 74.6836 374.633 74.875 374.738 75.0039C374.844 75.1289 375.023 75.1914 375.277 75.1914C375.402 75.1914 375.574 75.168 375.793 75.1211V76C375.508 76.0781 375.23 76.1172 374.961 76.1172C374.477 76.1172 374.111 75.9707 373.865 75.6777C373.619 75.3848 373.496 74.9688 373.496 74.4297V70.498H372.342V69.6602H373.496V68.125H374.58ZM378.213 76H377.129V69.6602H378.213V76ZM377.041 67.9785C377.041 67.8027 377.094 67.6543 377.199 67.5332C377.309 67.4121 377.469 67.3516 377.68 67.3516C377.891 67.3516 378.051 67.4121 378.16 67.5332C378.27 67.6543 378.324 67.8027 378.324 67.9785C378.324 68.1543 378.27 68.3008 378.16 68.418C378.051 68.5352 377.891 68.5938 377.68 68.5938C377.469 68.5938 377.309 68.5352 377.199 68.418C377.094 68.3008 377.041 68.1543 377.041 67.9785ZM379.666 72.7715C379.666 72.1504 379.787 71.5918 380.029 71.0957C380.275 70.5996 380.615 70.2168 381.049 69.9473C381.486 69.6777 381.984 69.543 382.543 69.543C383.406 69.543 384.104 69.8418 384.635 70.4395C385.17 71.0371 385.438 71.832 385.438 72.8242V72.9004C385.438 73.5176 385.318 74.0723 385.08 74.5645C384.846 75.0527 384.508 75.4336 384.066 75.707C383.629 75.9805 383.125 76.1172 382.555 76.1172C381.695 76.1172 380.998 75.8184 380.463 75.2207C379.932 74.623 379.666 73.832 379.666 72.8477V72.7715ZM380.756 72.9004C380.756 73.6035 380.918 74.168 381.242 74.5938C381.57 75.0195 382.008 75.2324 382.555 75.2324C383.105 75.2324 383.543 75.0176 383.867 74.5879C384.191 74.1543 384.354 73.5488 384.354 72.7715C384.354 72.0762 384.188 71.5137 383.855 71.084C383.527 70.6504 383.09 70.4336 382.543 70.4336C382.008 70.4336 381.576 70.6465 381.248 71.0723C380.92 71.498 380.756 72.1074 380.756 72.9004ZM387.822 69.6602L387.857 70.457C388.342 69.8477 388.975 69.543 389.756 69.543C391.096 69.543 391.771 70.2988 391.783 71.8105V76H390.699V71.8047C390.695 71.3477 390.59 71.0098 390.383 70.791C390.18 70.5723 389.861 70.4629 389.428 70.4629C389.076 70.4629 388.768 70.5566 388.502 70.7441C388.236 70.9316 388.029 71.1777 387.881 71.4824V76H386.797V69.6602H387.822ZM349.455 88.3184C349.455 88.0254 349.344 87.7988 349.121 87.6387C348.902 87.4746 348.518 87.334 347.967 87.2168C347.42 87.0996 346.984 86.959 346.66 86.7949C346.34 86.6309 346.102 86.4355 345.945 86.209C345.793 85.9824 345.717 85.7129 345.717 85.4004C345.717 84.8809 345.936 84.4414 346.373 84.082C346.814 83.7227 347.377 83.543 348.061 83.543C348.779 83.543 349.361 83.7285 349.807 84.0996C350.256 84.4707 350.48 84.9453 350.48 85.5234H349.391C349.391 85.2266 349.264 84.9707 349.01 84.7559C348.76 84.541 348.443 84.4336 348.061 84.4336C347.666 84.4336 347.357 84.5195 347.135 84.6914C346.912 84.8633 346.801 85.0879 346.801 85.3652C346.801 85.627 346.904 85.8242 347.111 85.957C347.318 86.0898 347.691 86.2168 348.23 86.3379C348.773 86.459 349.213 86.6035 349.549 86.7715C349.885 86.9395 350.133 87.1426 350.293 87.3809C350.457 87.6152 350.539 87.9023 350.539 88.2422C350.539 88.8086 350.312 89.2637 349.859 89.6074C349.406 89.9473 348.818 90.1172 348.096 90.1172C347.588 90.1172 347.139 90.0273 346.748 89.8477C346.357 89.668 346.051 89.418 345.828 89.0977C345.609 88.7734 345.5 88.4238 345.5 88.0488H346.584C346.604 88.4121 346.748 88.7012 347.018 88.916C347.291 89.127 347.65 89.2324 348.096 89.2324C348.506 89.2324 348.834 89.1504 349.08 88.9863C349.33 88.8184 349.455 88.5957 349.455 88.3184ZM353.422 82.125V83.6602H354.605V84.498H353.422V88.4297C353.422 88.6836 353.475 88.875 353.58 89.0039C353.686 89.1289 353.865 89.1914 354.119 89.1914C354.244 89.1914 354.416 89.168 354.635 89.1211V90C354.35 90.0781 354.072 90.1172 353.803 90.1172C353.318 90.1172 352.953 89.9707 352.707 89.6777C352.461 89.3848 352.338 88.9688 352.338 88.4297V84.498H351.184V83.6602H352.338V82.125H353.422ZM359.791 90C359.729 89.875 359.678 89.6523 359.639 89.332C359.135 89.8555 358.533 90.1172 357.834 90.1172C357.209 90.1172 356.695 89.9414 356.293 89.5898C355.895 89.2344 355.695 88.7852 355.695 88.2422C355.695 87.582 355.945 87.0703 356.445 86.707C356.949 86.3398 357.656 86.1562 358.566 86.1562H359.621V85.6582C359.621 85.2793 359.508 84.9785 359.281 84.7559C359.055 84.5293 358.721 84.416 358.279 84.416C357.893 84.416 357.568 84.5137 357.307 84.709C357.045 84.9043 356.914 85.1406 356.914 85.418H355.824C355.824 85.1016 355.936 84.7969 356.158 84.5039C356.385 84.207 356.689 83.9727 357.072 83.8008C357.459 83.6289 357.883 83.543 358.344 83.543C359.074 83.543 359.646 83.7266 360.061 84.0938C360.475 84.457 360.689 84.959 360.705 85.5996V88.5176C360.705 89.0996 360.779 89.5625 360.928 89.9062V90H359.791ZM357.992 89.1738C358.332 89.1738 358.654 89.0859 358.959 88.9102C359.264 88.7344 359.484 88.5059 359.621 88.2246V86.9238H358.771C357.443 86.9238 356.779 87.3125 356.779 88.0898C356.779 88.4297 356.893 88.6953 357.119 88.8867C357.346 89.0781 357.637 89.1738 357.992 89.1738ZM365.469 84.6328C365.305 84.6055 365.127 84.5918 364.936 84.5918C364.225 84.5918 363.742 84.8945 363.488 85.5V90H362.404V83.6602H363.459L363.477 84.3926C363.832 83.8262 364.336 83.543 364.988 83.543C365.199 83.543 365.359 83.5703 365.469 83.625V84.6328ZM368.234 82.125V83.6602H369.418V84.498H368.234V88.4297C368.234 88.6836 368.287 88.875 368.393 89.0039C368.498 89.1289 368.678 89.1914 368.932 89.1914C369.057 89.1914 369.229 89.168 369.447 89.1211V90C369.162 90.0781 368.885 90.1172 368.615 90.1172C368.131 90.1172 367.766 89.9707 367.52 89.6777C367.273 89.3848 367.15 88.9688 367.15 88.4297V84.498H365.996V83.6602H367.15V82.125H368.234ZM374.381 88.3184C374.381 88.0254 374.27 87.7988 374.047 87.6387C373.828 87.4746 373.443 87.334 372.893 87.2168C372.346 87.0996 371.91 86.959 371.586 86.7949C371.266 86.6309 371.027 86.4355 370.871 86.209C370.719 85.9824 370.643 85.7129 370.643 85.4004C370.643 84.8809 370.861 84.4414 371.299 84.082C371.74 83.7227 372.303 83.543 372.986 83.543C373.705 83.543 374.287 83.7285 374.732 84.0996C375.182 84.4707 375.406 84.9453 375.406 85.5234H374.316C374.316 85.2266 374.189 84.9707 373.936 84.7559C373.686 84.541 373.369 84.4336 372.986 84.4336C372.592 84.4336 372.283 84.5195 372.061 84.6914C371.838 84.8633 371.727 85.0879 371.727 85.3652C371.727 85.627 371.83 85.8242 372.037 85.957C372.244 86.0898 372.617 86.2168 373.156 86.3379C373.699 86.459 374.139 86.6035 374.475 86.7715C374.811 86.9395 375.059 87.1426 375.219 87.3809C375.383 87.6152 375.465 87.9023 375.465 88.2422C375.465 88.8086 375.238 89.2637 374.785 89.6074C374.332 89.9473 373.744 90.1172 373.021 90.1172C372.514 90.1172 372.064 90.0273 371.674 89.8477C371.283 89.668 370.977 89.418 370.754 89.0977C370.535 88.7734 370.426 88.4238 370.426 88.0488H371.51C371.529 88.4121 371.674 88.7012 371.943 88.916C372.217 89.127 372.576 89.2324 373.021 89.2324C373.432 89.2324 373.76 89.1504 374.006 88.9863C374.256 88.8184 374.381 88.5957 374.381 88.3184Z" fill="#18FFFF"/>
<path d="M329.609 308H328.484V299.469H329.609V308ZM332.973 300.125V301.66H334.156V302.498H332.973V306.43C332.973 306.684 333.025 306.875 333.131 307.004C333.236 307.129 333.416 307.191 333.67 307.191C333.795 307.191 333.967 307.168 334.186 307.121V308C333.9 308.078 333.623 308.117 333.354 308.117C332.869 308.117 332.504 307.971 332.258 307.678C332.012 307.385 331.889 306.969 331.889 306.43V302.498H330.734V301.66H331.889V300.125H332.973ZM339.582 308H338.498V301.66H339.582V308ZM338.41 299.979C338.41 299.803 338.463 299.654 338.568 299.533C338.678 299.412 338.838 299.352 339.049 299.352C339.26 299.352 339.42 299.412 339.529 299.533C339.639 299.654 339.693 299.803 339.693 299.979C339.693 300.154 339.639 300.301 339.529 300.418C339.42 300.535 339.26 300.594 339.049 300.594C338.838 300.594 338.678 300.535 338.568 300.418C338.463 300.301 338.41 300.154 338.41 299.979ZM345.014 306.318C345.014 306.025 344.902 305.799 344.68 305.639C344.461 305.475 344.076 305.334 343.525 305.217C342.979 305.1 342.543 304.959 342.219 304.795C341.898 304.631 341.66 304.436 341.504 304.209C341.352 303.982 341.275 303.713 341.275 303.4C341.275 302.881 341.494 302.441 341.932 302.082C342.373 301.723 342.936 301.543 343.619 301.543C344.338 301.543 344.92 301.729 345.365 302.1C345.814 302.471 346.039 302.945 346.039 303.523H344.949C344.949 303.227 344.822 302.971 344.568 302.756C344.318 302.541 344.002 302.434 343.619 302.434C343.225 302.434 342.916 302.52 342.693 302.691C342.471 302.863 342.359 303.088 342.359 303.365C342.359 303.627 342.463 303.824 342.67 303.957C342.877 304.09 343.25 304.217 343.789 304.338C344.332 304.459 344.771 304.604 345.107 304.771C345.443 304.939 345.691 305.143 345.852 305.381C346.016 305.615 346.098 305.902 346.098 306.242C346.098 306.809 345.871 307.264 345.418 307.607C344.965 307.947 344.377 308.117 343.654 308.117C343.146 308.117 342.697 308.027 342.307 307.848C341.916 307.668 341.609 307.418 341.387 307.098C341.168 306.773 341.059 306.424 341.059 306.049H342.143C342.162 306.412 342.307 306.701 342.576 306.916C342.85 307.127 343.209 307.232 343.654 307.232C344.064 307.232 344.393 307.15 344.639 306.986C344.889 306.818 345.014 306.596 345.014 306.318ZM351.957 300.125V301.66H353.141V302.498H351.957V306.43C351.957 306.684 352.01 306.875 352.115 307.004C352.221 307.129 352.4 307.191 352.654 307.191C352.779 307.191 352.951 307.168 353.17 307.121V308C352.885 308.078 352.607 308.117 352.338 308.117C351.854 308.117 351.488 307.971 351.242 307.678C350.996 307.385 350.873 306.969 350.873 306.43V302.498H349.719V301.66H350.873V300.125H351.957ZM358.326 308C358.264 307.875 358.213 307.652 358.174 307.332C357.67 307.855 357.068 308.117 356.369 308.117C355.744 308.117 355.23 307.941 354.828 307.59C354.43 307.234 354.23 306.785 354.23 306.242C354.23 305.582 354.48 305.07 354.98 304.707C355.484 304.34 356.191 304.156 357.102 304.156H358.156V303.658C358.156 303.279 358.043 302.979 357.816 302.756C357.59 302.529 357.256 302.416 356.814 302.416C356.428 302.416 356.104 302.514 355.842 302.709C355.58 302.904 355.449 303.141 355.449 303.418H354.359C354.359 303.102 354.471 302.797 354.693 302.504C354.92 302.207 355.225 301.973 355.607 301.801C355.994 301.629 356.418 301.543 356.879 301.543C357.609 301.543 358.182 301.727 358.596 302.094C359.01 302.457 359.225 302.959 359.24 303.6V306.518C359.24 307.1 359.314 307.562 359.463 307.906V308H358.326ZM356.527 307.174C356.867 307.174 357.189 307.086 357.494 306.91C357.799 306.734 358.02 306.506 358.156 306.225V304.924H357.307C355.979 304.924 355.314 305.312 355.314 306.09C355.314 306.43 355.428 306.695 355.654 306.887C355.881 307.078 356.172 307.174 356.527 307.174ZM362.709 305.064L362.029 305.773V308H360.945V299H362.029V304.443L362.609 303.746L364.584 301.66H365.902L363.436 304.309L366.189 308H364.918L362.709 305.064ZM369.535 308.117C368.676 308.117 367.977 307.836 367.438 307.273C366.898 306.707 366.629 305.951 366.629 305.006V304.807C366.629 304.178 366.748 303.617 366.986 303.125C367.229 302.629 367.564 302.242 367.994 301.965C368.428 301.684 368.896 301.543 369.4 301.543C370.225 301.543 370.865 301.814 371.322 302.357C371.779 302.9 372.008 303.678 372.008 304.689V305.141H367.713C367.729 305.766 367.91 306.271 368.258 306.658C368.609 307.041 369.055 307.232 369.594 307.232C369.977 307.232 370.301 307.154 370.566 306.998C370.832 306.842 371.064 306.635 371.264 306.377L371.926 306.893C371.395 307.709 370.598 308.117 369.535 308.117ZM369.4 302.434C368.963 302.434 368.596 302.594 368.299 302.914C368.002 303.23 367.818 303.676 367.748 304.25H370.924V304.168C370.893 303.617 370.744 303.191 370.479 302.891C370.213 302.586 369.854 302.434 369.4 302.434ZM372.98 304.771C372.98 304.15 373.102 303.592 373.344 303.096C373.59 302.6 373.93 302.217 374.363 301.947C374.801 301.678 375.299 301.543 375.857 301.543C376.721 301.543 377.418 301.842 377.949 302.439C378.484 303.037 378.752 303.832 378.752 304.824V304.9C378.752 305.518 378.633 306.072 378.395 306.564C378.16 307.053 377.822 307.434 377.381 307.707C376.943 307.98 376.439 308.117 375.869 308.117C375.01 308.117 374.312 307.818 373.777 307.221C373.246 306.623 372.98 305.832 372.98 304.848V304.771ZM374.07 304.9C374.07 305.604 374.232 306.168 374.557 306.594C374.885 307.02 375.322 307.232 375.869 307.232C376.42 307.232 376.857 307.018 377.182 306.588C377.506 306.154 377.668 305.549 377.668 304.771C377.668 304.076 377.502 303.514 377.17 303.084C376.842 302.65 376.404 302.434 375.857 302.434C375.322 302.434 374.891 302.646 374.562 303.072C374.234 303.498 374.07 304.107 374.07 304.9ZM380.645 308V302.498H379.643V301.66H380.645V301.01C380.645 300.33 380.826 299.805 381.189 299.434C381.553 299.062 382.066 298.877 382.73 298.877C382.98 298.877 383.229 298.91 383.475 298.977L383.416 299.855C383.232 299.82 383.037 299.803 382.83 299.803C382.479 299.803 382.207 299.906 382.016 300.113C381.824 300.316 381.729 300.609 381.729 300.992V301.66H383.082V302.498H381.729V308H380.645ZM384.816 308V302.498H383.814V301.66H384.816V301.01C384.816 300.33 384.998 299.805 385.361 299.434C385.725 299.062 386.238 298.877 386.902 298.877C387.152 298.877 387.4 298.91 387.646 298.977L387.588 299.855C387.404 299.82 387.209 299.803 387.002 299.803C386.65 299.803 386.379 299.906 386.188 300.113C385.996 300.316 385.9 300.609 385.9 300.992V301.66H387.254V302.498H385.9V308H384.816ZM349.379 314.125V315.66H350.562V316.498H349.379V320.43C349.379 320.684 349.432 320.875 349.537 321.004C349.643 321.129 349.822 321.191 350.076 321.191C350.201 321.191 350.373 321.168 350.592 321.121V322C350.307 322.078 350.029 322.117 349.76 322.117C349.275 322.117 348.91 321.971 348.664 321.678C348.418 321.385 348.295 320.969 348.295 320.43V316.498H347.141V315.66H348.295V314.125H349.379ZM353.012 322H351.928V315.66H353.012V322ZM351.84 313.979C351.84 313.803 351.893 313.654 351.998 313.533C352.107 313.412 352.268 313.352 352.479 313.352C352.689 313.352 352.85 313.412 352.959 313.533C353.068 313.654 353.123 313.803 353.123 313.979C353.123 314.154 353.068 314.301 352.959 314.418C352.85 314.535 352.689 314.594 352.479 314.594C352.268 314.594 352.107 314.535 351.998 314.418C351.893 314.301 351.84 314.154 351.84 313.979ZM355.771 315.66L355.801 316.363C356.266 315.816 356.893 315.543 357.682 315.543C358.568 315.543 359.172 315.883 359.492 316.562C359.703 316.258 359.977 316.012 360.312 315.824C360.652 315.637 361.053 315.543 361.514 315.543C362.904 315.543 363.611 316.279 363.635 317.752V322H362.551V317.816C362.551 317.363 362.447 317.025 362.24 316.803C362.033 316.576 361.686 316.463 361.197 316.463C360.795 316.463 360.461 316.584 360.195 316.826C359.93 317.064 359.775 317.387 359.732 317.793V322H358.643V317.846C358.643 316.924 358.191 316.463 357.289 316.463C356.578 316.463 356.092 316.766 355.83 317.371V322H354.746V315.66H355.771ZM367.906 322.117C367.047 322.117 366.348 321.836 365.809 321.273C365.27 320.707 365 319.951 365 319.006V318.807C365 318.178 365.119 317.617 365.357 317.125C365.6 316.629 365.936 316.242 366.365 315.965C366.799 315.684 367.268 315.543 367.771 315.543C368.596 315.543 369.236 315.814 369.693 316.357C370.15 316.9 370.379 317.678 370.379 318.689V319.141H366.084C366.1 319.766 366.281 320.271 366.629 320.658C366.98 321.041 367.426 321.232 367.965 321.232C368.348 321.232 368.672 321.154 368.938 320.998C369.203 320.842 369.436 320.635 369.635 320.377L370.297 320.893C369.766 321.709 368.969 322.117 367.906 322.117ZM367.771 316.434C367.334 316.434 366.967 316.594 366.67 316.914C366.373 317.23 366.189 317.676 366.119 318.25H369.295V318.168C369.264 317.617 369.115 317.191 368.85 316.891C368.584 316.586 368.225 316.434 367.771 316.434ZM372.852 319.592H371.873L371.797 313.469H372.934L372.852 319.592ZM371.756 321.455C371.756 321.279 371.809 321.133 371.914 321.016C372.023 320.895 372.184 320.834 372.395 320.834C372.605 320.834 372.766 320.895 372.875 321.016C372.984 321.133 373.039 321.279 373.039 321.455C373.039 321.631 372.984 321.777 372.875 321.895C372.766 322.008 372.605 322.064 372.395 322.064C372.184 322.064 372.023 322.008 371.914 321.895C371.809 321.777 371.756 321.631 371.756 321.455ZM336.535 333.293C336.43 334.195 336.096 334.893 335.533 335.385C334.975 335.873 334.23 336.117 333.301 336.117C332.293 336.117 331.484 335.756 330.875 335.033C330.27 334.311 329.967 333.344 329.967 332.133V331.312C329.967 330.52 330.107 329.822 330.389 329.221C330.674 328.619 331.076 328.158 331.596 327.838C332.115 327.514 332.717 327.352 333.4 327.352C334.307 327.352 335.033 327.605 335.58 328.113C336.127 328.617 336.445 329.316 336.535 330.211H335.404C335.307 329.531 335.094 329.039 334.766 328.734C334.441 328.43 333.986 328.277 333.4 328.277C332.682 328.277 332.117 328.543 331.707 329.074C331.301 329.605 331.098 330.361 331.098 331.342V332.168C331.098 333.094 331.291 333.83 331.678 334.377C332.064 334.924 332.605 335.197 333.301 335.197C333.926 335.197 334.404 335.057 334.736 334.775C335.072 334.49 335.295 333.996 335.404 333.293H336.535ZM337.619 332.771C337.619 332.15 337.74 331.592 337.982 331.096C338.229 330.6 338.568 330.217 339.002 329.947C339.439 329.678 339.938 329.543 340.496 329.543C341.359 329.543 342.057 329.842 342.588 330.439C343.123 331.037 343.391 331.832 343.391 332.824V332.9C343.391 333.518 343.271 334.072 343.033 334.564C342.799 335.053 342.461 335.434 342.02 335.707C341.582 335.98 341.078 336.117 340.508 336.117C339.648 336.117 338.951 335.818 338.416 335.221C337.885 334.623 337.619 333.832 337.619 332.848V332.771ZM338.709 332.9C338.709 333.604 338.871 334.168 339.195 334.594C339.523 335.02 339.961 335.232 340.508 335.232C341.059 335.232 341.496 335.018 341.82 334.588C342.145 334.154 342.307 333.549 342.307 332.771C342.307 332.076 342.141 331.514 341.809 331.084C341.48 330.65 341.043 330.434 340.496 330.434C339.961 330.434 339.529 330.646 339.201 331.072C338.873 331.498 338.709 332.107 338.709 332.9ZM345.77 329.66L345.799 330.363C346.264 329.816 346.891 329.543 347.68 329.543C348.566 329.543 349.17 329.883 349.49 330.562C349.701 330.258 349.975 330.012 350.311 329.824C350.65 329.637 351.051 329.543 351.512 329.543C352.902 329.543 353.609 330.279 353.633 331.752V336H352.549V331.816C352.549 331.363 352.445 331.025 352.238 330.803C352.031 330.576 351.684 330.463 351.195 330.463C350.793 330.463 350.459 330.584 350.193 330.826C349.928 331.064 349.773 331.387 349.73 331.793V336H348.641V331.846C348.641 330.924 348.189 330.463 347.287 330.463C346.576 330.463 346.09 330.766 345.828 331.371V336H344.744V329.66H345.77ZM360.629 332.9C360.629 333.865 360.408 334.643 359.967 335.232C359.525 335.822 358.928 336.117 358.174 336.117C357.404 336.117 356.799 335.873 356.357 335.385V338.438H355.273V329.66H356.264L356.316 330.363C356.758 329.816 357.371 329.543 358.156 329.543C358.918 329.543 359.52 329.83 359.961 330.404C360.406 330.979 360.629 331.777 360.629 332.801V332.9ZM359.545 332.777C359.545 332.062 359.393 331.498 359.088 331.084C358.783 330.67 358.365 330.463 357.834 330.463C357.178 330.463 356.686 330.754 356.357 331.336V334.365C356.682 334.943 357.178 335.232 357.846 335.232C358.365 335.232 358.777 335.027 359.082 334.617C359.391 334.203 359.545 333.59 359.545 332.777ZM364.643 336.117C363.783 336.117 363.084 335.836 362.545 335.273C362.006 334.707 361.736 333.951 361.736 333.006V332.807C361.736 332.178 361.855 331.617 362.094 331.125C362.336 330.629 362.672 330.242 363.102 329.965C363.535 329.684 364.004 329.543 364.508 329.543C365.332 329.543 365.973 329.814 366.43 330.357C366.887 330.9 367.115 331.678 367.115 332.689V333.141H362.82C362.836 333.766 363.018 334.271 363.365 334.658C363.717 335.041 364.162 335.232 364.701 335.232C365.084 335.232 365.408 335.154 365.674 334.998C365.939 334.842 366.172 334.635 366.371 334.377L367.033 334.893C366.502 335.709 365.705 336.117 364.643 336.117ZM364.508 330.434C364.07 330.434 363.703 330.594 363.406 330.914C363.109 331.23 362.926 331.676 362.855 332.25H366.031V332.168C366 331.617 365.852 331.191 365.586 330.891C365.32 330.586 364.961 330.434 364.508 330.434ZM369.846 328.125V329.66H371.029V330.498H369.846V334.43C369.846 334.684 369.898 334.875 370.004 335.004C370.109 335.129 370.289 335.191 370.543 335.191C370.668 335.191 370.84 335.168 371.059 335.121V336C370.773 336.078 370.496 336.117 370.227 336.117C369.742 336.117 369.377 335.971 369.131 335.678C368.885 335.385 368.762 334.969 368.762 334.43V330.498H367.607V329.66H368.762V328.125H369.846ZM373.479 336H372.395V329.66H373.479V336ZM372.307 327.979C372.307 327.803 372.359 327.654 372.465 327.533C372.574 327.412 372.734 327.352 372.945 327.352C373.156 327.352 373.316 327.412 373.426 327.533C373.535 327.654 373.59 327.803 373.59 327.979C373.59 328.154 373.535 328.301 373.426 328.418C373.316 328.535 373.156 328.594 372.945 328.594C372.734 328.594 372.574 328.535 372.465 328.418C372.359 328.301 372.307 328.154 372.307 327.979ZM376.689 328.125V329.66H377.873V330.498H376.689V334.43C376.689 334.684 376.742 334.875 376.848 335.004C376.953 335.129 377.133 335.191 377.387 335.191C377.512 335.191 377.684 335.168 377.902 335.121V336C377.617 336.078 377.34 336.117 377.07 336.117C376.586 336.117 376.221 335.971 375.975 335.678C375.729 335.385 375.605 334.969 375.605 334.43V330.498H374.451V329.66H375.605V328.125H376.689ZM380.322 336H379.238V329.66H380.322V336ZM379.15 327.979C379.15 327.803 379.203 327.654 379.309 327.533C379.418 327.412 379.578 327.352 379.789 327.352C380 327.352 380.16 327.412 380.27 327.533C380.379 327.654 380.434 327.803 380.434 327.979C380.434 328.154 380.379 328.301 380.27 328.418C380.16 328.535 380 328.594 379.789 328.594C379.578 328.594 379.418 328.535 379.309 328.418C379.203 328.301 379.15 328.154 379.15 327.979ZM381.775 332.771C381.775 332.15 381.896 331.592 382.139 331.096C382.385 330.6 382.725 330.217 383.158 329.947C383.596 329.678 384.094 329.543 384.652 329.543C385.516 329.543 386.213 329.842 386.744 330.439C387.279 331.037 387.547 331.832 387.547 332.824V332.9C387.547 333.518 387.428 334.072 387.189 334.564C386.955 335.053 386.617 335.434 386.176 335.707C385.738 335.98 385.234 336.117 384.664 336.117C383.805 336.117 383.107 335.818 382.572 335.221C382.041 334.623 381.775 333.832 381.775 332.848V332.771ZM382.865 332.9C382.865 333.604 383.027 334.168 383.352 334.594C383.68 335.02 384.117 335.232 384.664 335.232C385.215 335.232 385.652 335.018 385.977 334.588C386.301 334.154 386.463 333.549 386.463 332.771C386.463 332.076 386.297 331.514 385.965 331.084C385.637 330.65 385.199 330.434 384.652 330.434C384.117 330.434 383.686 330.646 383.357 331.072C383.029 331.498 382.865 332.107 382.865 332.9ZM389.932 329.66L389.967 330.457C390.451 329.848 391.084 329.543 391.865 329.543C393.205 329.543 393.881 330.299 393.893 331.811V336H392.809V331.805C392.805 331.348 392.699 331.01 392.492 330.791C392.289 330.572 391.971 330.463 391.537 330.463C391.186 330.463 390.877 330.557 390.611 330.744C390.346 330.932 390.139 331.178 389.99 331.482V336H388.906V329.66H389.932ZM348.904 346.9C348.904 347.869 348.682 348.648 348.236 349.238C347.791 349.824 347.193 350.117 346.443 350.117C345.643 350.117 345.023 349.834 344.586 349.268L344.533 350H343.537V341H344.621V344.357C345.059 343.814 345.662 343.543 346.432 343.543C347.201 343.543 347.805 343.834 348.242 344.416C348.684 344.998 348.904 345.795 348.904 346.807V346.9ZM347.82 346.777C347.82 346.039 347.678 345.469 347.393 345.066C347.107 344.664 346.697 344.463 346.162 344.463C345.447 344.463 344.934 344.795 344.621 345.459V348.201C344.953 348.865 345.471 349.197 346.174 349.197C346.693 349.197 347.098 348.996 347.387 348.594C347.676 348.191 347.82 347.586 347.82 346.777ZM352.906 350.117C352.047 350.117 351.348 349.836 350.809 349.273C350.27 348.707 350 347.951 350 347.006V346.807C350 346.178 350.119 345.617 350.357 345.125C350.6 344.629 350.936 344.242 351.365 343.965C351.799 343.684 352.268 343.543 352.771 343.543C353.596 343.543 354.236 343.814 354.693 344.357C355.15 344.9 355.379 345.678 355.379 346.689V347.141H351.084C351.1 347.766 351.281 348.271 351.629 348.658C351.98 349.041 352.426 349.232 352.965 349.232C353.348 349.232 353.672 349.154 353.938 348.998C354.203 348.842 354.436 348.635 354.635 348.377L355.297 348.893C354.766 349.709 353.969 350.117 352.906 350.117ZM352.771 344.434C352.334 344.434 351.967 344.594 351.67 344.914C351.373 345.23 351.189 345.676 351.119 346.25H354.295V346.168C354.264 345.617 354.115 345.191 353.85 344.891C353.584 344.586 353.225 344.434 352.771 344.434ZM356.381 346.777C356.381 345.789 356.609 345.004 357.066 344.422C357.523 343.836 358.129 343.543 358.883 343.543C359.656 343.543 360.26 343.816 360.693 344.363L360.746 343.66H361.736V349.848C361.736 350.668 361.492 351.314 361.004 351.787C360.52 352.26 359.867 352.496 359.047 352.496C358.59 352.496 358.143 352.398 357.705 352.203C357.268 352.008 356.934 351.74 356.703 351.4L357.266 350.75C357.73 351.324 358.299 351.611 358.971 351.611C359.498 351.611 359.908 351.463 360.201 351.166C360.498 350.869 360.646 350.451 360.646 349.912V349.367C360.213 349.867 359.621 350.117 358.871 350.117C358.129 350.117 357.527 349.818 357.066 349.221C356.609 348.623 356.381 347.809 356.381 346.777ZM357.471 346.9C357.471 347.615 357.617 348.178 357.91 348.588C358.203 348.994 358.613 349.197 359.141 349.197C359.824 349.197 360.326 348.887 360.646 348.266V345.371C360.314 344.766 359.816 344.463 359.152 344.463C358.625 344.463 358.213 344.668 357.916 345.078C357.619 345.488 357.471 346.096 357.471 346.9ZM364.555 350H363.471V343.66H364.555V350ZM363.383 341.979C363.383 341.803 363.436 341.654 363.541 341.533C363.65 341.412 363.811 341.352 364.021 341.352C364.232 341.352 364.393 341.412 364.502 341.533C364.611 341.654 364.666 341.803 364.666 341.979C364.666 342.154 364.611 342.301 364.502 342.418C364.393 342.535 364.232 342.594 364.021 342.594C363.811 342.594 363.65 342.535 363.541 342.418C363.436 342.301 363.383 342.154 363.383 341.979ZM367.32 343.66L367.355 344.457C367.84 343.848 368.473 343.543 369.254 343.543C370.594 343.543 371.27 344.299 371.281 345.811V350H370.197V345.805C370.193 345.348 370.088 345.01 369.881 344.791C369.678 344.572 369.359 344.463 368.926 344.463C368.574 344.463 368.266 344.557 368 344.744C367.734 344.932 367.527 345.178 367.379 345.482V350H366.295V343.66H367.32ZM376.607 348.318C376.607 348.025 376.496 347.799 376.273 347.639C376.055 347.475 375.67 347.334 375.119 347.217C374.572 347.1 374.137 346.959 373.812 346.795C373.492 346.631 373.254 346.436 373.098 346.209C372.945 345.982 372.869 345.713 372.869 345.4C372.869 344.881 373.088 344.441 373.525 344.082C373.967 343.723 374.529 343.543 375.213 343.543C375.932 343.543 376.514 343.729 376.959 344.1C377.408 344.471 377.633 344.945 377.633 345.523H376.543C376.543 345.227 376.416 344.971 376.162 344.756C375.912 344.541 375.596 344.434 375.213 344.434C374.818 344.434 374.51 344.52 374.287 344.691C374.064 344.863 373.953 345.088 373.953 345.365C373.953 345.627 374.057 345.824 374.264 345.957C374.471 346.09 374.844 346.217 375.383 346.338C375.926 346.459 376.365 346.604 376.701 346.771C377.037 346.939 377.285 347.143 377.445 347.381C377.609 347.615 377.691 347.902 377.691 348.242C377.691 348.809 377.465 349.264 377.012 349.607C376.559 349.947 375.971 350.117 375.248 350.117C374.74 350.117 374.291 350.027 373.9 349.848C373.51 349.668 373.203 349.418 372.98 349.098C372.762 348.773 372.652 348.424 372.652 348.049H373.736C373.756 348.412 373.9 348.701 374.17 348.916C374.443 349.127 374.803 349.232 375.248 349.232C375.658 349.232 375.986 349.15 376.232 348.986C376.482 348.818 376.607 348.596 376.607 348.318Z" fill="#18FFFF"/>
<path d="M4.52148 187.549H2.51758V191H1.38672V182.469H4.21094C5.17188 182.469 5.91016 182.688 6.42578 183.125C6.94531 183.562 7.20508 184.199 7.20508 185.035C7.20508 185.566 7.06055 186.029 6.77148 186.424C6.48633 186.818 6.08789 187.113 5.57617 187.309L7.58008 190.93V191H6.37305L4.52148 187.549ZM2.51758 186.629H4.24609C4.80469 186.629 5.24805 186.484 5.57617 186.195C5.9082 185.906 6.07422 185.52 6.07422 185.035C6.07422 184.508 5.91602 184.104 5.59961 183.822C5.28711 183.541 4.83398 183.398 4.24023 183.395H2.51758V186.629ZM11.248 191.117C10.3887 191.117 9.68945 190.836 9.15039 190.273C8.61133 189.707 8.3418 188.951 8.3418 188.006V187.807C8.3418 187.178 8.46094 186.617 8.69922 186.125C8.94141 185.629 9.27734 185.242 9.70703 184.965C10.1406 184.684 10.6094 184.543 11.1133 184.543C11.9375 184.543 12.5781 184.814 13.0352 185.357C13.4922 185.9 13.7207 186.678 13.7207 187.689V188.141H9.42578C9.44141 188.766 9.62305 189.271 9.9707 189.658C10.3223 190.041 10.7676 190.232 11.3066 190.232C11.6895 190.232 12.0137 190.154 12.2793 189.998C12.5449 189.842 12.7773 189.635 12.9766 189.377L13.6387 189.893C13.1074 190.709 12.3105 191.117 11.248 191.117ZM11.1133 185.434C10.6758 185.434 10.3086 185.594 10.0117 185.914C9.71484 186.23 9.53125 186.676 9.46094 187.25H12.6367V187.168C12.6055 186.617 12.457 186.191 12.1914 185.891C11.9258 185.586 11.5664 185.434 11.1133 185.434ZM14.7227 187.777C14.7227 186.789 14.9512 186.004 15.4082 185.422C15.8652 184.836 16.4707 184.543 17.2246 184.543C17.998 184.543 18.6016 184.816 19.0352 185.363L19.0879 184.66H20.0781V190.848C20.0781 191.668 19.834 192.314 19.3457 192.787C18.8613 193.26 18.209 193.496 17.3887 193.496C16.9316 193.496 16.4844 193.398 16.0469 193.203C15.6094 193.008 15.2754 192.74 15.0449 192.4L15.6074 191.75C16.0723 192.324 16.6406 192.611 17.3125 192.611C17.8398 192.611 18.25 192.463 18.543 192.166C18.8398 191.869 18.9883 191.451 18.9883 190.912V190.367C18.5547 190.867 17.9629 191.117 17.2129 191.117C16.4707 191.117 15.8691 190.818 15.4082 190.221C14.9512 189.623 14.7227 188.809 14.7227 187.777ZM15.8125 187.9C15.8125 188.615 15.959 189.178 16.252 189.588C16.5449 189.994 16.9551 190.197 17.4824 190.197C18.166 190.197 18.668 189.887 18.9883 189.266V186.371C18.6562 185.766 18.1582 185.463 17.4941 185.463C16.9668 185.463 16.5547 185.668 16.2578 186.078C15.9609 186.488 15.8125 187.096 15.8125 187.9ZM22.8965 191H21.8125V184.66H22.8965V191ZM21.7246 182.979C21.7246 182.803 21.7773 182.654 21.8828 182.533C21.9922 182.412 22.1523 182.352 22.3633 182.352C22.5742 182.352 22.7344 182.412 22.8438 182.533C22.9531 182.654 23.0078 182.803 23.0078 182.979C23.0078 183.154 22.9531 183.301 22.8438 183.418C22.7344 183.535 22.5742 183.594 22.3633 183.594C22.1523 183.594 21.9922 183.535 21.8828 183.418C21.7773 183.301 21.7246 183.154 21.7246 182.979ZM28.3281 189.318C28.3281 189.025 28.2168 188.799 27.9941 188.639C27.7754 188.475 27.3906 188.334 26.8398 188.217C26.293 188.1 25.8574 187.959 25.5332 187.795C25.2129 187.631 24.9746 187.436 24.8184 187.209C24.666 186.982 24.5898 186.713 24.5898 186.4C24.5898 185.881 24.8086 185.441 25.2461 185.082C25.6875 184.723 26.25 184.543 26.9336 184.543C27.6523 184.543 28.2344 184.729 28.6797 185.1C29.1289 185.471 29.3535 185.945 29.3535 186.523H28.2637C28.2637 186.227 28.1367 185.971 27.8828 185.756C27.6328 185.541 27.3164 185.434 26.9336 185.434C26.5391 185.434 26.2305 185.52 26.0078 185.691C25.7852 185.863 25.6738 186.088 25.6738 186.365C25.6738 186.627 25.7773 186.824 25.9844 186.957C26.1914 187.09 26.5645 187.217 27.1035 187.338C27.6465 187.459 28.0859 187.604 28.4219 187.771C28.7578 187.939 29.0059 188.143 29.166 188.381C29.3301 188.615 29.4121 188.902 29.4121 189.242C29.4121 189.809 29.1855 190.264 28.7324 190.607C28.2793 190.947 27.6914 191.117 26.9688 191.117C26.4609 191.117 26.0117 191.027 25.6211 190.848C25.2305 190.668 24.9238 190.418 24.7012 190.098C24.4824 189.773 24.373 189.424 24.373 189.049H25.457C25.4766 189.412 25.6211 189.701 25.8906 189.916C26.1641 190.127 26.5234 190.232 26.9688 190.232C27.3789 190.232 27.707 190.15 27.9531 189.986C28.2031 189.818 28.3281 189.596 28.3281 189.318ZM32.2949 183.125V184.66H33.4785V185.498H32.2949V189.43C32.2949 189.684 32.3477 189.875 32.4531 190.004C32.5586 190.129 32.7383 190.191 32.9922 190.191C33.1172 190.191 33.2891 190.168 33.5078 190.121V191C33.2227 191.078 32.9453 191.117 32.6758 191.117C32.1914 191.117 31.8262 190.971 31.5801 190.678C31.334 190.385 31.2109 189.969 31.2109 189.43V185.498H30.0566V184.66H31.2109V183.125H32.2949ZM37.8145 185.633C37.6504 185.605 37.4727 185.592 37.2812 185.592C36.5703 185.592 36.0879 185.895 35.834 186.5V191H34.75V184.66H35.8047L35.8223 185.393C36.1777 184.826 36.6816 184.543 37.334 184.543C37.5449 184.543 37.7051 184.57 37.8145 184.625V185.633ZM42.4961 191C42.4336 190.875 42.3828 190.652 42.3438 190.332C41.8398 190.855 41.2383 191.117 40.5391 191.117C39.9141 191.117 39.4004 190.941 38.998 190.59C38.5996 190.234 38.4004 189.785 38.4004 189.242C38.4004 188.582 38.6504 188.07 39.1504 187.707C39.6543 187.34 40.3613 187.156 41.2715 187.156H42.3262V186.658C42.3262 186.279 42.2129 185.979 41.9863 185.756C41.7598 185.529 41.4258 185.416 40.9844 185.416C40.5977 185.416 40.2734 185.514 40.0117 185.709C39.75 185.904 39.6191 186.141 39.6191 186.418H38.5293C38.5293 186.102 38.6406 185.797 38.8633 185.504C39.0898 185.207 39.3945 184.973 39.7773 184.801C40.1641 184.629 40.5879 184.543 41.0488 184.543C41.7793 184.543 42.3516 184.727 42.7656 185.094C43.1797 185.457 43.3945 185.959 43.4102 186.6V189.518C43.4102 190.1 43.4844 190.562 43.6328 190.906V191H42.4961ZM40.6973 190.174C41.0371 190.174 41.3594 190.086 41.6641 189.91C41.9688 189.734 42.1895 189.506 42.3262 189.225V187.924H41.4766C40.1484 187.924 39.4844 188.312 39.4844 189.09C39.4844 189.43 39.5977 189.695 39.8242 189.887C40.0508 190.078 40.3418 190.174 40.6973 190.174ZM46.5801 183.125V184.66H47.7637V185.498H46.5801V189.43C46.5801 189.684 46.6328 189.875 46.7383 190.004C46.8438 190.129 47.0234 190.191 47.2773 190.191C47.4023 190.191 47.5742 190.168 47.793 190.121V191C47.5078 191.078 47.2305 191.117 46.9609 191.117C46.4766 191.117 46.1113 190.971 45.8652 190.678C45.6191 190.385 45.4961 189.969 45.4961 189.43V185.498H44.3418V184.66H45.4961V183.125H46.5801ZM50.2129 191H49.1289V184.66H50.2129V191ZM49.041 182.979C49.041 182.803 49.0938 182.654 49.1992 182.533C49.3086 182.412 49.4688 182.352 49.6797 182.352C49.8906 182.352 50.0508 182.412 50.1602 182.533C50.2695 182.654 50.3242 182.803 50.3242 182.979C50.3242 183.154 50.2695 183.301 50.1602 183.418C50.0508 183.535 49.8906 183.594 49.6797 183.594C49.4688 183.594 49.3086 183.535 49.1992 183.418C49.0938 183.301 49.041 183.154 49.041 182.979ZM51.666 187.771C51.666 187.15 51.7871 186.592 52.0293 186.096C52.2754 185.6 52.6152 185.217 53.0488 184.947C53.4863 184.678 53.9844 184.543 54.543 184.543C55.4062 184.543 56.1035 184.842 56.6348 185.439C57.1699 186.037 57.4375 186.832 57.4375 187.824V187.9C57.4375 188.518 57.3184 189.072 57.0801 189.564C56.8457 190.053 56.5078 190.434 56.0664 190.707C55.6289 190.98 55.125 191.117 54.5547 191.117C53.6953 191.117 52.998 190.818 52.4629 190.221C51.9316 189.623 51.666 188.832 51.666 187.848V187.771ZM52.7559 187.9C52.7559 188.604 52.918 189.168 53.2422 189.594C53.5703 190.02 54.0078 190.232 54.5547 190.232C55.1055 190.232 55.543 190.018 55.8672 189.588C56.1914 189.154 56.3535 188.549 56.3535 187.771C56.3535 187.076 56.1875 186.514 55.8555 186.084C55.5273 185.65 55.0898 185.434 54.543 185.434C54.0078 185.434 53.5762 185.646 53.248 186.072C52.9199 186.498 52.7559 187.107 52.7559 187.9ZM59.8223 184.66L59.8574 185.457C60.3418 184.848 60.9746 184.543 61.7559 184.543C63.0957 184.543 63.7715 185.299 63.7832 186.811V191H62.6992V186.805C62.6953 186.348 62.5898 186.01 62.3828 185.791C62.1797 185.572 61.8613 185.463 61.4277 185.463C61.0762 185.463 60.7676 185.557 60.502 185.744C60.2363 185.932 60.0293 186.178 59.8809 186.482V191H58.7969V184.66H59.8223ZM22.9785 205.117C22.1191 205.117 21.4199 204.836 20.8809 204.273C20.3418 203.707 20.0723 202.951 20.0723 202.006V201.807C20.0723 201.178 20.1914 200.617 20.4297 200.125C20.6719 199.629 21.0078 199.242 21.4375 198.965C21.8711 198.684 22.3398 198.543 22.8438 198.543C23.668 198.543 24.3086 198.814 24.7656 199.357C25.2227 199.9 25.4512 200.678 25.4512 201.689V202.141H21.1562C21.1719 202.766 21.3535 203.271 21.7012 203.658C22.0527 204.041 22.498 204.232 23.0371 204.232C23.4199 204.232 23.7441 204.154 24.0098 203.998C24.2754 203.842 24.5078 203.635 24.707 203.377L25.3691 203.893C24.8379 204.709 24.041 205.117 22.9785 205.117ZM22.8438 199.434C22.4062 199.434 22.0391 199.594 21.7422 199.914C21.4453 200.23 21.2617 200.676 21.1914 201.25H24.3672V201.168C24.3359 200.617 24.1875 200.191 23.9219 199.891C23.6562 199.586 23.2969 199.434 22.8438 199.434ZM27.7363 198.66L27.7715 199.457C28.2559 198.848 28.8887 198.543 29.6699 198.543C31.0098 198.543 31.6855 199.299 31.6973 200.811V205H30.6133V200.805C30.6094 200.348 30.5039 200.01 30.2969 199.791C30.0938 199.572 29.7754 199.463 29.3418 199.463C28.9902 199.463 28.6816 199.557 28.416 199.744C28.1504 199.932 27.9434 200.178 27.7949 200.482V205H26.7109V198.66H27.7363ZM33.0684 201.777C33.0684 200.805 33.2988 200.023 33.7598 199.434C34.2207 198.84 34.8242 198.543 35.5703 198.543C36.3125 198.543 36.9004 198.797 37.334 199.305V196H38.418V205H37.4219L37.3691 204.32C36.9355 204.852 36.332 205.117 35.5586 205.117C34.8242 205.117 34.2246 204.816 33.7598 204.215C33.2988 203.613 33.0684 202.828 33.0684 201.859V201.777ZM34.1523 201.9C34.1523 202.619 34.3008 203.182 34.5977 203.588C34.8945 203.994 35.3047 204.197 35.8281 204.197C36.5156 204.197 37.0176 203.889 37.334 203.271V200.359C37.0098 199.762 36.5117 199.463 35.8398 199.463C35.3086 199.463 34.8945 199.668 34.5977 200.078C34.3008 200.488 34.1523 201.096 34.1523 201.9ZM43.7969 203.318C43.7969 203.025 43.6855 202.799 43.4629 202.639C43.2441 202.475 42.8594 202.334 42.3086 202.217C41.7617 202.1 41.3262 201.959 41.002 201.795C40.6816 201.631 40.4434 201.436 40.2871 201.209C40.1348 200.982 40.0586 200.713 40.0586 200.4C40.0586 199.881 40.2773 199.441 40.7148 199.082C41.1562 198.723 41.7188 198.543 42.4023 198.543C43.1211 198.543 43.7031 198.729 44.1484 199.1C44.5977 199.471 44.8223 199.945 44.8223 200.523H43.7324C43.7324 200.227 43.6055 199.971 43.3516 199.756C43.1016 199.541 42.7852 199.434 42.4023 199.434C42.0078 199.434 41.6992 199.52 41.4766 199.691C41.2539 199.863 41.1426 200.088 41.1426 200.365C41.1426 200.627 41.2461 200.824 41.4531 200.957C41.6602 201.09 42.0332 201.217 42.5723 201.338C43.1152 201.459 43.5547 201.604 43.8906 201.771C44.2266 201.939 44.4746 202.143 44.6348 202.381C44.7988 202.615 44.8809 202.902 44.8809 203.242C44.8809 203.809 44.6543 204.264 44.2012 204.607C43.748 204.947 43.1602 205.117 42.4375 205.117C41.9297 205.117 41.4805 205.027 41.0898 204.848C40.6992 204.668 40.3926 204.418 40.1699 204.098C39.9512 203.773 39.8418 203.424 39.8418 203.049H40.9258C40.9453 203.412 41.0898 203.701 41.3594 203.916C41.6328 204.127 41.9922 204.232 42.4375 204.232C42.8477 204.232 43.1758 204.15 43.4219 203.986C43.6719 203.818 43.7969 203.596 43.7969 203.318Z" fill="#18FFFF"/>
<path d="M8.66211 422.197C7.69727 421.92 6.99414 421.58 6.55273 421.178C6.11523 420.771 5.89648 420.271 5.89648 419.678C5.89648 419.006 6.16406 418.451 6.69922 418.014C7.23828 417.572 7.9375 417.352 8.79688 417.352C9.38281 417.352 9.9043 417.465 10.3613 417.691C10.8223 417.918 11.1777 418.23 11.4277 418.629C11.6816 419.027 11.8086 419.463 11.8086 419.936H10.6777C10.6777 419.42 10.5137 419.016 10.1855 418.723C9.85742 418.426 9.39453 418.277 8.79688 418.277C8.24219 418.277 7.80859 418.4 7.49609 418.646C7.1875 418.889 7.0332 419.227 7.0332 419.66C7.0332 420.008 7.17969 420.303 7.47266 420.545C7.76953 420.783 8.27148 421.002 8.97852 421.201C9.68945 421.4 10.2441 421.621 10.6426 421.863C11.0449 422.102 11.3418 422.381 11.5332 422.701C11.7285 423.021 11.8262 423.398 11.8262 423.832C11.8262 424.523 11.5566 425.078 11.0176 425.496C10.4785 425.91 9.75781 426.117 8.85547 426.117C8.26953 426.117 7.72266 426.006 7.21484 425.783C6.70703 425.557 6.31445 425.248 6.03711 424.857C5.76367 424.467 5.62695 424.023 5.62695 423.527H6.75781C6.75781 424.043 6.94727 424.451 7.32617 424.752C7.70898 425.049 8.21875 425.197 8.85547 425.197C9.44922 425.197 9.9043 425.076 10.2207 424.834C10.5371 424.592 10.6953 424.262 10.6953 423.844C10.6953 423.426 10.5488 423.104 10.2559 422.877C9.96289 422.646 9.43164 422.42 8.66211 422.197ZM17.0176 425.373C16.5957 425.869 15.9766 426.117 15.1602 426.117C14.4844 426.117 13.9688 425.922 13.6133 425.531C13.2617 425.137 13.084 424.555 13.0801 423.785V419.66H14.1641V423.756C14.1641 424.717 14.5547 425.197 15.3359 425.197C16.1641 425.197 16.7148 424.889 16.9883 424.271V419.66H18.0723V426H17.041L17.0176 425.373ZM25.0918 422.9C25.0918 423.869 24.8691 424.648 24.4238 425.238C23.9785 425.824 23.3809 426.117 22.6309 426.117C21.8301 426.117 21.2109 425.834 20.7734 425.268L20.7207 426H19.7246V417H20.8086V420.357C21.2461 419.814 21.8496 419.543 22.6191 419.543C23.3887 419.543 23.9922 419.834 24.4297 420.416C24.8711 420.998 25.0918 421.795 25.0918 422.807V422.9ZM24.0078 422.777C24.0078 422.039 23.8652 421.469 23.5801 421.066C23.2949 420.664 22.8848 420.463 22.3496 420.463C21.6348 420.463 21.1211 420.795 20.8086 421.459V424.201C21.1406 424.865 21.6582 425.197 22.3613 425.197C22.8809 425.197 23.2852 424.996 23.5742 424.594C23.8633 424.191 24.0078 423.586 24.0078 422.777ZM27.4824 419.66L27.5117 420.363C27.9766 419.816 28.6035 419.543 29.3926 419.543C30.2793 419.543 30.8828 419.883 31.2031 420.562C31.4141 420.258 31.6875 420.012 32.0234 419.824C32.3633 419.637 32.7637 419.543 33.2246 419.543C34.6152 419.543 35.3223 420.279 35.3457 421.752V426H34.2617V421.816C34.2617 421.363 34.1582 421.025 33.9512 420.803C33.7441 420.576 33.3965 420.463 32.9082 420.463C32.5059 420.463 32.1719 420.584 31.9062 420.826C31.6406 421.064 31.4863 421.387 31.4434 421.793V426H30.3535V421.846C30.3535 420.924 29.9023 420.463 29 420.463C28.2891 420.463 27.8027 420.766 27.541 421.371V426H26.457V419.66H27.4824ZM38.1641 426H37.0801V419.66H38.1641V426ZM36.9922 417.979C36.9922 417.803 37.0449 417.654 37.1504 417.533C37.2598 417.412 37.4199 417.352 37.6309 417.352C37.8418 417.352 38.002 417.412 38.1113 417.533C38.2207 417.654 38.2754 417.803 38.2754 417.979C38.2754 418.154 38.2207 418.301 38.1113 418.418C38.002 418.535 37.8418 418.594 37.6309 418.594C37.4199 418.594 37.2598 418.535 37.1504 418.418C37.0449 418.301 36.9922 418.154 36.9922 417.979ZM43.5957 424.318C43.5957 424.025 43.4844 423.799 43.2617 423.639C43.043 423.475 42.6582 423.334 42.1074 423.217C41.5605 423.1 41.125 422.959 40.8008 422.795C40.4805 422.631 40.2422 422.436 40.0859 422.209C39.9336 421.982 39.8574 421.713 39.8574 421.4C39.8574 420.881 40.0762 420.441 40.5137 420.082C40.9551 419.723 41.5176 419.543 42.2012 419.543C42.9199 419.543 43.502 419.729 43.9473 420.1C44.3965 420.471 44.6211 420.945 44.6211 421.523H43.5312C43.5312 421.227 43.4043 420.971 43.1504 420.756C42.9004 420.541 42.584 420.434 42.2012 420.434C41.8066 420.434 41.498 420.52 41.2754 420.691C41.0527 420.863 40.9414 421.088 40.9414 421.365C40.9414 421.627 41.0449 421.824 41.252 421.957C41.459 422.09 41.832 422.217 42.3711 422.338C42.9141 422.459 43.3535 422.604 43.6895 422.771C44.0254 422.939 44.2734 423.143 44.4336 423.381C44.5977 423.615 44.6797 423.902 44.6797 424.242C44.6797 424.809 44.4531 425.264 44 425.607C43.5469 425.947 42.959 426.117 42.2363 426.117C41.7285 426.117 41.2793 426.027 40.8887 425.848C40.498 425.668 40.1914 425.418 39.9688 425.098C39.75 424.773 39.6406 424.424 39.6406 424.049H40.7246C40.7441 424.412 40.8887 424.701 41.1582 424.916C41.4316 425.127 41.791 425.232 42.2363 425.232C42.6465 425.232 42.9746 425.15 43.2207 424.986C43.4707 424.818 43.5957 424.596 43.5957 424.318ZM49.7832 424.318C49.7832 424.025 49.6719 423.799 49.4492 423.639C49.2305 423.475 48.8457 423.334 48.2949 423.217C47.748 423.1 47.3125 422.959 46.9883 422.795C46.668 422.631 46.4297 422.436 46.2734 422.209C46.1211 421.982 46.0449 421.713 46.0449 421.4C46.0449 420.881 46.2637 420.441 46.7012 420.082C47.1426 419.723 47.7051 419.543 48.3887 419.543C49.1074 419.543 49.6895 419.729 50.1348 420.1C50.584 420.471 50.8086 420.945 50.8086 421.523H49.7188C49.7188 421.227 49.5918 420.971 49.3379 420.756C49.0879 420.541 48.7715 420.434 48.3887 420.434C47.9941 420.434 47.6855 420.52 47.4629 420.691C47.2402 420.863 47.1289 421.088 47.1289 421.365C47.1289 421.627 47.2324 421.824 47.4395 421.957C47.6465 422.09 48.0195 422.217 48.5586 422.338C49.1016 422.459 49.541 422.604 49.877 422.771C50.2129 422.939 50.4609 423.143 50.6211 423.381C50.7852 423.615 50.8672 423.902 50.8672 424.242C50.8672 424.809 50.6406 425.264 50.1875 425.607C49.7344 425.947 49.1465 426.117 48.4238 426.117C47.916 426.117 47.4668 426.027 47.0762 425.848C46.6855 425.668 46.3789 425.418 46.1562 425.098C45.9375 424.773 45.8281 424.424 45.8281 424.049H46.9121C46.9316 424.412 47.0762 424.701 47.3457 424.916C47.6191 425.127 47.9785 425.232 48.4238 425.232C48.834 425.232 49.1621 425.15 49.4082 424.986C49.6582 424.818 49.7832 424.596 49.7832 424.318ZM53.457 426H52.373V419.66H53.457V426ZM52.2852 417.979C52.2852 417.803 52.3379 417.654 52.4434 417.533C52.5527 417.412 52.7129 417.352 52.9238 417.352C53.1348 417.352 53.2949 417.412 53.4043 417.533C53.5137 417.654 53.5684 417.803 53.5684 417.979C53.5684 418.154 53.5137 418.301 53.4043 418.418C53.2949 418.535 53.1348 418.594 52.9238 418.594C52.7129 418.594 52.5527 418.535 52.4434 418.418C52.3379 418.301 52.2852 418.154 52.2852 417.979ZM54.9102 422.771C54.9102 422.15 55.0312 421.592 55.2734 421.096C55.5195 420.6 55.8594 420.217 56.293 419.947C56.7305 419.678 57.2285 419.543 57.7871 419.543C58.6504 419.543 59.3477 419.842 59.8789 420.439C60.4141 421.037 60.6816 421.832 60.6816 422.824V422.9C60.6816 423.518 60.5625 424.072 60.3242 424.564C60.0898 425.053 59.752 425.434 59.3105 425.707C58.873 425.98 58.3691 426.117 57.7988 426.117C56.9395 426.117 56.2422 425.818 55.707 425.221C55.1758 424.623 54.9102 423.832 54.9102 422.848V422.771ZM56 422.9C56 423.604 56.1621 424.168 56.4863 424.594C56.8145 425.02 57.252 425.232 57.7988 425.232C58.3496 425.232 58.7871 425.018 59.1113 424.588C59.4355 424.154 59.5977 423.549 59.5977 422.771C59.5977 422.076 59.4316 421.514 59.0996 421.084C58.7715 420.65 58.334 420.434 57.7871 420.434C57.252 420.434 56.8203 420.646 56.4922 421.072C56.1641 421.498 56 422.107 56 422.9ZM63.0664 419.66L63.1016 420.457C63.5859 419.848 64.2188 419.543 65 419.543C66.3398 419.543 67.0156 420.299 67.0273 421.811V426H65.9434V421.805C65.9395 421.348 65.834 421.01 65.627 420.791C65.4238 420.572 65.1055 420.463 64.6719 420.463C64.3203 420.463 64.0117 420.557 63.7461 420.744C63.4805 420.932 63.2734 421.178 63.125 421.482V426H62.041V419.66H63.0664ZM26.9785 440.117C26.1191 440.117 25.4199 439.836 24.8809 439.273C24.3418 438.707 24.0723 437.951 24.0723 437.006V436.807C24.0723 436.178 24.1914 435.617 24.4297 435.125C24.6719 434.629 25.0078 434.242 25.4375 433.965C25.8711 433.684 26.3398 433.543 26.8438 433.543C27.668 433.543 28.3086 433.814 28.7656 434.357C29.2227 434.9 29.4512 435.678 29.4512 436.689V437.141H25.1562C25.1719 437.766 25.3535 438.271 25.7012 438.658C26.0527 439.041 26.498 439.232 27.0371 439.232C27.4199 439.232 27.7441 439.154 28.0098 438.998C28.2754 438.842 28.5078 438.635 28.707 438.377L29.3691 438.893C28.8379 439.709 28.041 440.117 26.9785 440.117ZM26.8438 434.434C26.4062 434.434 26.0391 434.594 25.7422 434.914C25.4453 435.23 25.2617 435.676 25.1914 436.25H28.3672V436.168C28.3359 435.617 28.1875 435.191 27.9219 434.891C27.6562 434.586 27.2969 434.434 26.8438 434.434ZM31.7363 433.66L31.7715 434.457C32.2559 433.848 32.8887 433.543 33.6699 433.543C35.0098 433.543 35.6855 434.299 35.6973 435.811V440H34.6133V435.805C34.6094 435.348 34.5039 435.01 34.2969 434.791C34.0938 434.572 33.7754 434.463 33.3418 434.463C32.9902 434.463 32.6816 434.557 32.416 434.744C32.1504 434.932 31.9434 435.178 31.7949 435.482V440H30.7109V433.66H31.7363ZM37.0684 436.777C37.0684 435.805 37.2988 435.023 37.7598 434.434C38.2207 433.84 38.8242 433.543 39.5703 433.543C40.3125 433.543 40.9004 433.797 41.334 434.305V431H42.418V440H41.4219L41.3691 439.32C40.9355 439.852 40.332 440.117 39.5586 440.117C38.8242 440.117 38.2246 439.816 37.7598 439.215C37.2988 438.613 37.0684 437.828 37.0684 436.859V436.777ZM38.1523 436.9C38.1523 437.619 38.3008 438.182 38.5977 438.588C38.8945 438.994 39.3047 439.197 39.8281 439.197C40.5156 439.197 41.0176 438.889 41.334 438.271V435.359C41.0098 434.762 40.5117 434.463 39.8398 434.463C39.3086 434.463 38.8945 434.668 38.5977 435.078C38.3008 435.488 38.1523 436.096 38.1523 436.9ZM47.7969 438.318C47.7969 438.025 47.6855 437.799 47.4629 437.639C47.2441 437.475 46.8594 437.334 46.3086 437.217C45.7617 437.1 45.3262 436.959 45.002 436.795C44.6816 436.631 44.4434 436.436 44.2871 436.209C44.1348 435.982 44.0586 435.713 44.0586 435.4C44.0586 434.881 44.2773 434.441 44.7148 434.082C45.1562 433.723 45.7188 433.543 46.4023 433.543C47.1211 433.543 47.7031 433.729 48.1484 434.1C48.5977 434.471 48.8223 434.945 48.8223 435.523H47.7324C47.7324 435.227 47.6055 434.971 47.3516 434.756C47.1016 434.541 46.7852 434.434 46.4023 434.434C46.0078 434.434 45.6992 434.52 45.4766 434.691C45.2539 434.863 45.1426 435.088 45.1426 435.365C45.1426 435.627 45.2461 435.824 45.4531 435.957C45.6602 436.09 46.0332 436.217 46.5723 436.338C47.1152 436.459 47.5547 436.604 47.8906 436.771C48.2266 436.939 48.4746 437.143 48.6348 437.381C48.7988 437.615 48.8809 437.902 48.8809 438.242C48.8809 438.809 48.6543 439.264 48.2012 439.607C47.748 439.947 47.1602 440.117 46.4375 440.117C45.9297 440.117 45.4805 440.027 45.0898 439.848C44.6992 439.668 44.3926 439.418 44.1699 439.098C43.9512 438.773 43.8418 438.424 43.8418 438.049H44.9258C44.9453 438.412 45.0898 438.701 45.3594 438.916C45.6328 439.127 45.9922 439.232 46.4375 439.232C46.8477 439.232 47.1758 439.15 47.4219 438.986C47.6719 438.818 47.7969 438.596 47.7969 438.318Z" fill="#18FFFF"/>
<path d="M183.898 72H182.264V61.1631L178.985 62.3672V60.8906L183.644 59.1416H183.898V72ZM189.409 65.584L190.06 59.2031H196.616V60.7061H191.439L191.053 64.1953C191.68 63.8262 192.392 63.6416 193.188 63.6416C194.354 63.6416 195.28 64.0283 195.966 64.8018C196.651 65.5693 196.994 66.6094 196.994 67.9219C196.994 69.2402 196.637 70.2803 195.922 71.042C195.213 71.7979 194.22 72.1758 192.942 72.1758C191.812 72.1758 190.889 71.8623 190.174 71.2354C189.459 70.6084 189.052 69.7412 188.952 68.6338H190.49C190.59 69.3662 190.851 69.9199 191.272 70.2949C191.694 70.6641 192.251 70.8486 192.942 70.8486C193.698 70.8486 194.29 70.5908 194.718 70.0752C195.151 69.5596 195.368 68.8477 195.368 67.9395C195.368 67.084 195.134 66.3984 194.665 65.8828C194.202 65.3613 193.584 65.1006 192.811 65.1006C192.102 65.1006 191.545 65.2559 191.141 65.5664L190.71 65.918L189.409 65.584ZM201.143 60.1875V62.4902H202.918V63.7471H201.143V69.6445C201.143 70.0254 201.222 70.3125 201.38 70.5059C201.538 70.6934 201.808 70.7871 202.188 70.7871C202.376 70.7871 202.634 70.752 202.962 70.6816V72C202.534 72.1172 202.118 72.1758 201.714 72.1758C200.987 72.1758 200.439 71.9561 200.07 71.5166C199.701 71.0771 199.517 70.4531 199.517 69.6445V63.7471H197.785V62.4902H199.517V60.1875H201.143ZM206.451 63.6416C207.172 62.7568 208.109 62.3145 209.264 62.3145C211.273 62.3145 212.287 63.4482 212.305 65.7158V72H210.679V65.707C210.673 65.0215 210.515 64.5146 210.204 64.1865C209.899 63.8584 209.422 63.6943 208.771 63.6943C208.244 63.6943 207.781 63.835 207.383 64.1162C206.984 64.3975 206.674 64.7666 206.451 65.2236V72H204.825V58.5H206.451V63.6416ZM195.219 87.0146C195.219 88.2686 195.008 89.3643 194.586 90.3018C194.164 91.2334 193.566 91.9453 192.793 92.4375C192.02 92.9297 191.117 93.1758 190.086 93.1758C189.078 93.1758 188.185 92.9297 187.405 92.4375C186.626 91.9395 186.02 91.2334 185.586 90.3193C185.158 89.3994 184.938 88.3359 184.927 87.1289V86.2061C184.927 84.9756 185.141 83.8887 185.568 82.9453C185.996 82.002 186.6 81.2812 187.379 80.7832C188.164 80.2793 189.061 80.0273 190.068 80.0273C191.094 80.0273 191.996 80.2764 192.775 80.7744C193.561 81.2666 194.164 81.9844 194.586 82.9277C195.008 83.8652 195.219 84.958 195.219 86.2061V87.0146ZM193.54 86.1885C193.54 84.6709 193.235 83.5078 192.626 82.6992C192.017 81.8848 191.164 81.4775 190.068 81.4775C189.002 81.4775 188.161 81.8848 187.546 82.6992C186.937 83.5078 186.623 84.6328 186.605 86.0742V87.0146C186.605 88.4854 186.913 89.6426 187.528 90.4863C188.149 91.3242 189.002 91.7432 190.086 91.7432C191.176 91.7432 192.02 91.3477 192.617 90.5566C193.215 89.7598 193.522 88.6201 193.54 87.1377V86.1885ZM201.31 91.8486C201.89 91.8486 202.396 91.6729 202.83 91.3213C203.264 90.9697 203.504 90.5303 203.551 90.0029H205.089C205.06 90.5479 204.872 91.0664 204.526 91.5586C204.181 92.0508 203.718 92.4434 203.138 92.7363C202.563 93.0293 201.954 93.1758 201.31 93.1758C200.015 93.1758 198.983 92.7451 198.216 91.8838C197.454 91.0166 197.073 89.833 197.073 88.333V88.0605C197.073 87.1348 197.243 86.3115 197.583 85.5908C197.923 84.8701 198.409 84.3105 199.042 83.9121C199.681 83.5137 200.434 83.3145 201.301 83.3145C202.367 83.3145 203.252 83.6338 203.955 84.2725C204.664 84.9111 205.042 85.7402 205.089 86.7598H203.551C203.504 86.1445 203.27 85.6406 202.848 85.248C202.432 84.8496 201.916 84.6504 201.301 84.6504C200.475 84.6504 199.833 84.9492 199.376 85.5469C198.925 86.1387 198.699 86.9971 198.699 88.1221V88.4297C198.699 89.5254 198.925 90.3691 199.376 90.9609C199.827 91.5527 200.472 91.8486 201.31 91.8486ZM209.123 81.1875V83.4902H210.898V84.7471H209.123V90.6445C209.123 91.0254 209.202 91.3125 209.36 91.5059C209.519 91.6934 209.788 91.7871 210.169 91.7871C210.356 91.7871 210.614 91.752 210.942 91.6816V93C210.515 93.1172 210.099 93.1758 209.694 93.1758C208.968 93.1758 208.42 92.9561 208.051 92.5166C207.682 92.0771 207.497 91.4531 207.497 90.6445V84.7471H205.766V83.4902H207.497V81.1875H209.123Z" fill="white"/>
<path d="M183.898 189H182.264V178.163L178.985 179.367V177.891L183.644 176.142H183.898V189ZM195.043 176.194V177.574H194.744C193.479 177.598 192.471 177.973 191.721 178.699C190.971 179.426 190.537 180.448 190.42 181.767C191.094 180.993 192.014 180.606 193.18 180.606C194.293 180.606 195.181 180.999 195.843 181.784C196.511 182.569 196.845 183.583 196.845 184.825C196.845 186.144 196.484 187.198 195.764 187.989C195.049 188.78 194.088 189.176 192.881 189.176C191.656 189.176 190.663 188.707 189.901 187.77C189.14 186.826 188.759 185.613 188.759 184.131V183.507C188.759 181.151 189.26 179.353 190.262 178.11C191.27 176.862 192.767 176.224 194.753 176.194H195.043ZM192.907 181.96C192.351 181.96 191.838 182.127 191.369 182.461C190.9 182.795 190.575 183.214 190.394 183.718V184.315C190.394 185.37 190.631 186.22 191.105 186.864C191.58 187.509 192.172 187.831 192.881 187.831C193.613 187.831 194.188 187.562 194.604 187.022C195.025 186.483 195.236 185.777 195.236 184.904C195.236 184.025 195.022 183.316 194.595 182.777C194.173 182.232 193.61 181.96 192.907 181.96ZM201.143 177.188V179.49H202.918V180.747H201.143V186.645C201.143 187.025 201.222 187.312 201.38 187.506C201.538 187.693 201.808 187.787 202.188 187.787C202.376 187.787 202.634 187.752 202.962 187.682V189C202.534 189.117 202.118 189.176 201.714 189.176C200.987 189.176 200.439 188.956 200.07 188.517C199.701 188.077 199.517 187.453 199.517 186.645V180.747H197.785V179.49H199.517V177.188H201.143ZM206.451 180.642C207.172 179.757 208.109 179.314 209.264 179.314C211.273 179.314 212.287 180.448 212.305 182.716V189H210.679V182.707C210.673 182.021 210.515 181.515 210.204 181.187C209.899 180.858 209.422 180.694 208.771 180.694C208.244 180.694 207.781 180.835 207.383 181.116C206.984 181.397 206.674 181.767 206.451 182.224V189H204.825V175.5H206.451V180.642ZM195.219 204.015C195.219 205.269 195.008 206.364 194.586 207.302C194.164 208.233 193.566 208.945 192.793 209.438C192.02 209.93 191.117 210.176 190.086 210.176C189.078 210.176 188.185 209.93 187.405 209.438C186.626 208.939 186.02 208.233 185.586 207.319C185.158 206.399 184.938 205.336 184.927 204.129V203.206C184.927 201.976 185.141 200.889 185.568 199.945C185.996 199.002 186.6 198.281 187.379 197.783C188.164 197.279 189.061 197.027 190.068 197.027C191.094 197.027 191.996 197.276 192.775 197.774C193.561 198.267 194.164 198.984 194.586 199.928C195.008 200.865 195.219 201.958 195.219 203.206V204.015ZM193.54 203.188C193.54 201.671 193.235 200.508 192.626 199.699C192.017 198.885 191.164 198.478 190.068 198.478C189.002 198.478 188.161 198.885 187.546 199.699C186.937 200.508 186.623 201.633 186.605 203.074V204.015C186.605 205.485 186.913 206.643 187.528 207.486C188.149 208.324 189.002 208.743 190.086 208.743C191.176 208.743 192.02 208.348 192.617 207.557C193.215 206.76 193.522 205.62 193.54 204.138V203.188ZM201.31 208.849C201.89 208.849 202.396 208.673 202.83 208.321C203.264 207.97 203.504 207.53 203.551 207.003H205.089C205.06 207.548 204.872 208.066 204.526 208.559C204.181 209.051 203.718 209.443 203.138 209.736C202.563 210.029 201.954 210.176 201.31 210.176C200.015 210.176 198.983 209.745 198.216 208.884C197.454 208.017 197.073 206.833 197.073 205.333V205.061C197.073 204.135 197.243 203.312 197.583 202.591C197.923 201.87 198.409 201.311 199.042 200.912C199.681 200.514 200.434 200.314 201.301 200.314C202.367 200.314 203.252 200.634 203.955 201.272C204.664 201.911 205.042 202.74 205.089 203.76H203.551C203.504 203.145 203.27 202.641 202.848 202.248C202.432 201.85 201.916 201.65 201.301 201.65C200.475 201.65 199.833 201.949 199.376 202.547C198.925 203.139 198.699 203.997 198.699 205.122V205.43C198.699 206.525 198.925 207.369 199.376 207.961C199.827 208.553 200.472 208.849 201.31 208.849ZM209.123 198.188V200.49H210.898V201.747H209.123V207.645C209.123 208.025 209.202 208.312 209.36 208.506C209.519 208.693 209.788 208.787 210.169 208.787C210.356 208.787 210.614 208.752 210.942 208.682V210C210.515 210.117 210.099 210.176 209.694 210.176C208.968 210.176 208.42 209.956 208.051 209.517C207.682 209.077 207.497 208.453 207.497 207.645V201.747H205.766V200.49H207.497V198.188H209.123Z" fill="white"/>
<path d="M183.898 306H182.264V295.163L178.985 296.367V294.891L183.644 293.142H183.898V306ZM196.924 294.117L191.624 306H189.919L195.201 294.539H188.275V293.203H196.924V294.117ZM201.143 294.188V296.49H202.918V297.747H201.143V303.645C201.143 304.025 201.222 304.312 201.38 304.506C201.538 304.693 201.808 304.787 202.188 304.787C202.376 304.787 202.634 304.752 202.962 304.682V306C202.534 306.117 202.118 306.176 201.714 306.176C200.987 306.176 200.439 305.956 200.07 305.517C199.701 305.077 199.517 304.453 199.517 303.645V297.747H197.785V296.49H199.517V294.188H201.143ZM206.451 297.642C207.172 296.757 208.109 296.314 209.264 296.314C211.273 296.314 212.287 297.448 212.305 299.716V306H210.679V299.707C210.673 299.021 210.515 298.515 210.204 298.187C209.899 297.858 209.422 297.694 208.771 297.694C208.244 297.694 207.781 297.835 207.383 298.116C206.984 298.397 206.674 298.767 206.451 299.224V306H204.825V292.5H206.451V297.642ZM195.219 321.015C195.219 322.269 195.008 323.364 194.586 324.302C194.164 325.233 193.566 325.945 192.793 326.438C192.02 326.93 191.117 327.176 190.086 327.176C189.078 327.176 188.185 326.93 187.405 326.438C186.626 325.939 186.02 325.233 185.586 324.319C185.158 323.399 184.938 322.336 184.927 321.129V320.206C184.927 318.976 185.141 317.889 185.568 316.945C185.996 316.002 186.6 315.281 187.379 314.783C188.164 314.279 189.061 314.027 190.068 314.027C191.094 314.027 191.996 314.276 192.775 314.774C193.561 315.267 194.164 315.984 194.586 316.928C195.008 317.865 195.219 318.958 195.219 320.206V321.015ZM193.54 320.188C193.54 318.671 193.235 317.508 192.626 316.699C192.017 315.885 191.164 315.478 190.068 315.478C189.002 315.478 188.161 315.885 187.546 316.699C186.937 317.508 186.623 318.633 186.605 320.074V321.015C186.605 322.485 186.913 323.643 187.528 324.486C188.149 325.324 189.002 325.743 190.086 325.743C191.176 325.743 192.02 325.348 192.617 324.557C193.215 323.76 193.522 322.62 193.54 321.138V320.188ZM201.31 325.849C201.89 325.849 202.396 325.673 202.83 325.321C203.264 324.97 203.504 324.53 203.551 324.003H205.089C205.06 324.548 204.872 325.066 204.526 325.559C204.181 326.051 203.718 326.443 203.138 326.736C202.563 327.029 201.954 327.176 201.31 327.176C200.015 327.176 198.983 326.745 198.216 325.884C197.454 325.017 197.073 323.833 197.073 322.333V322.061C197.073 321.135 197.243 320.312 197.583 319.591C197.923 318.87 198.409 318.311 199.042 317.912C199.681 317.514 200.434 317.314 201.301 317.314C202.367 317.314 203.252 317.634 203.955 318.272C204.664 318.911 205.042 319.74 205.089 320.76H203.551C203.504 320.145 203.27 319.641 202.848 319.248C202.432 318.85 201.916 318.65 201.301 318.65C200.475 318.65 199.833 318.949 199.376 319.547C198.925 320.139 198.699 320.997 198.699 322.122V322.43C198.699 323.525 198.925 324.369 199.376 324.961C199.827 325.553 200.472 325.849 201.31 325.849ZM209.123 315.188V317.49H210.898V318.747H209.123V324.645C209.123 325.025 209.202 325.312 209.36 325.506C209.519 325.693 209.788 325.787 210.169 325.787C210.356 325.787 210.614 325.752 210.942 325.682V327C210.515 327.117 210.099 327.176 209.694 327.176C208.968 327.176 208.42 326.956 208.051 326.517C207.682 326.077 207.497 325.453 207.497 324.645V318.747H205.766V317.49H207.497V315.188H209.123Z" fill="white"/>
<path d="M183.898 423H182.264V412.163L178.985 413.367V411.891L183.644 410.142H183.898V423ZM196.423 413.543C196.423 414.182 196.253 414.75 195.913 415.248C195.579 415.746 195.125 416.136 194.551 416.417C195.219 416.704 195.746 417.123 196.133 417.674C196.525 418.225 196.722 418.849 196.722 419.546C196.722 420.653 196.347 421.535 195.597 422.191C194.853 422.848 193.871 423.176 192.652 423.176C191.422 423.176 190.435 422.848 189.69 422.191C188.952 421.529 188.583 420.647 188.583 419.546C188.583 418.854 188.771 418.23 189.146 417.674C189.526 417.117 190.051 416.695 190.719 416.408C190.15 416.127 189.702 415.737 189.374 415.239C189.046 414.741 188.882 414.176 188.882 413.543C188.882 412.465 189.228 411.609 189.919 410.977C190.61 410.344 191.521 410.027 192.652 410.027C193.777 410.027 194.686 410.344 195.377 410.977C196.074 411.609 196.423 412.465 196.423 413.543ZM195.096 419.511C195.096 418.796 194.867 418.213 194.41 417.762C193.959 417.311 193.367 417.085 192.635 417.085C191.902 417.085 191.313 417.308 190.868 417.753C190.429 418.198 190.209 418.784 190.209 419.511C190.209 420.237 190.423 420.809 190.851 421.225C191.284 421.641 191.885 421.849 192.652 421.849C193.414 421.849 194.012 421.641 194.445 421.225C194.879 420.803 195.096 420.231 195.096 419.511ZM192.652 411.363C192.014 411.363 191.495 411.562 191.097 411.961C190.704 412.354 190.508 412.89 190.508 413.569C190.508 414.22 190.701 414.747 191.088 415.151C191.48 415.55 192.002 415.749 192.652 415.749C193.303 415.749 193.821 415.55 194.208 415.151C194.601 414.747 194.797 414.22 194.797 413.569C194.797 412.919 194.595 412.389 194.19 411.979C193.786 411.568 193.273 411.363 192.652 411.363ZM201.143 411.188V413.49H202.918V414.747H201.143V420.645C201.143 421.025 201.222 421.312 201.38 421.506C201.538 421.693 201.808 421.787 202.188 421.787C202.376 421.787 202.634 421.752 202.962 421.682V423C202.534 423.117 202.118 423.176 201.714 423.176C200.987 423.176 200.439 422.956 200.07 422.517C199.701 422.077 199.517 421.453 199.517 420.645V414.747H197.785V413.49H199.517V411.188H201.143ZM206.451 414.642C207.172 413.757 208.109 413.314 209.264 413.314C211.273 413.314 212.287 414.448 212.305 416.716V423H210.679V416.707C210.673 416.021 210.515 415.515 210.204 415.187C209.899 414.858 209.422 414.694 208.771 414.694C208.244 414.694 207.781 414.835 207.383 415.116C206.984 415.397 206.674 415.767 206.451 416.224V423H204.825V409.5H206.451V414.642ZM195.219 438.015C195.219 439.269 195.008 440.364 194.586 441.302C194.164 442.233 193.566 442.945 192.793 443.438C192.02 443.93 191.117 444.176 190.086 444.176C189.078 444.176 188.185 443.93 187.405 443.438C186.626 442.939 186.02 442.233 185.586 441.319C185.158 440.399 184.938 439.336 184.927 438.129V437.206C184.927 435.976 185.141 434.889 185.568 433.945C185.996 433.002 186.6 432.281 187.379 431.783C188.164 431.279 189.061 431.027 190.068 431.027C191.094 431.027 191.996 431.276 192.775 431.774C193.561 432.267 194.164 432.984 194.586 433.928C195.008 434.865 195.219 435.958 195.219 437.206V438.015ZM193.54 437.188C193.54 435.671 193.235 434.508 192.626 433.699C192.017 432.885 191.164 432.478 190.068 432.478C189.002 432.478 188.161 432.885 187.546 433.699C186.937 434.508 186.623 435.633 186.605 437.074V438.015C186.605 439.485 186.913 440.643 187.528 441.486C188.149 442.324 189.002 442.743 190.086 442.743C191.176 442.743 192.02 442.348 192.617 441.557C193.215 440.76 193.522 439.62 193.54 438.138V437.188ZM201.31 442.849C201.89 442.849 202.396 442.673 202.83 442.321C203.264 441.97 203.504 441.53 203.551 441.003H205.089C205.06 441.548 204.872 442.066 204.526 442.559C204.181 443.051 203.718 443.443 203.138 443.736C202.563 444.029 201.954 444.176 201.31 444.176C200.015 444.176 198.983 443.745 198.216 442.884C197.454 442.017 197.073 440.833 197.073 439.333V439.061C197.073 438.135 197.243 437.312 197.583 436.591C197.923 435.87 198.409 435.311 199.042 434.912C199.681 434.514 200.434 434.314 201.301 434.314C202.367 434.314 203.252 434.634 203.955 435.272C204.664 435.911 205.042 436.74 205.089 437.76H203.551C203.504 437.145 203.27 436.641 202.848 436.248C202.432 435.85 201.916 435.65 201.301 435.65C200.475 435.65 199.833 435.949 199.376 436.547C198.925 437.139 198.699 437.997 198.699 439.122V439.43C198.699 440.525 198.925 441.369 199.376 441.961C199.827 442.553 200.472 442.849 201.31 442.849ZM209.123 432.188V434.49H210.898V435.747H209.123V441.645C209.123 442.025 209.202 442.312 209.36 442.506C209.519 442.693 209.788 442.787 210.169 442.787C210.356 442.787 210.614 442.752 210.942 442.682V444C210.515 444.117 210.099 444.176 209.694 444.176C208.968 444.176 208.42 443.956 208.051 443.517C207.682 443.077 207.497 442.453 207.497 441.645V435.747H205.766V434.49H207.497V432.188H209.123Z" fill="white"/>
</svg>
