<svg width="389" height="48" viewBox="0 0 389 48" fill="none" xmlns="http://www.w3.org/2000/svg">
<path d="M21.3753 23.704C21.3753 25.9867 20.9166 27.9813 19.9993 29.688C19.0819 31.3733 17.7273 32.6853 15.9353 33.624C14.1646 34.5413 12.0313 35 9.53525 35H2.36725V12.44H9.53525C12.0313 12.44 14.1646 12.8987 15.9353 13.816C17.7273 14.712 19.0819 16.0133 19.9993 17.72C20.9166 19.4053 21.3753 21.4 21.3753 23.704ZM9.31125 32.376C12.2553 32.376 14.5059 31.6187 16.0633 30.104C17.6206 28.5893 18.3993 26.456 18.3993 23.704C18.3993 20.952 17.6206 18.8187 16.0633 17.304C14.5273 15.768 12.2766 15 9.31125 15H5.27925V32.376H9.31125Z" fill="#BF00FF"/>
<path d="M148.664 12.44V35H145.72V24.568H134.264V35H131.352V12.44H134.264V22.2H145.72V12.44H148.664Z" fill="#BF00FF"/>
<path d="M270.303 12.824V35H267.391V17.304L260.319 35H257.727L250.623 17.368V35H247.711V12.824H251.199L259.071 31.448L266.815 12.824H270.303Z" fill="#BF00FF"/>
<path d="M387.014 29.144C387.014 30.2107 386.758 31.2027 386.246 32.12C385.734 33.0373 384.956 33.784 383.91 34.36C382.865 34.936 381.574 35.224 380.038 35.224C378.545 35.224 377.212 34.9573 376.038 34.424C374.886 33.8693 373.958 33.1227 373.254 32.184C372.572 31.224 372.177 30.136 372.07 28.92H375.174C375.238 29.56 375.452 30.1893 375.814 30.808C376.198 31.4053 376.732 31.9067 377.414 32.312C378.118 32.696 378.961 32.888 379.942 32.888C381.222 32.888 382.204 32.5467 382.886 31.864C383.569 31.1813 383.91 30.3067 383.91 29.24C383.91 28.3227 383.665 27.576 383.174 27C382.705 26.424 382.118 25.976 381.414 25.656C380.71 25.3147 379.75 24.952 378.534 24.568C377.105 24.0987 375.953 23.6613 375.078 23.256C374.225 22.8293 373.489 22.2 372.87 21.368C372.273 20.536 371.974 19.4373 371.974 18.072C371.974 16.8987 372.252 15.864 372.806 14.968C373.382 14.072 374.193 13.3787 375.238 12.888C376.305 12.3973 377.553 12.152 378.982 12.152C381.201 12.152 382.961 12.696 384.262 13.784C385.564 14.8507 386.321 16.216 386.534 17.88H383.398C383.228 16.984 382.769 16.1947 382.022 15.512C381.276 14.8293 380.262 14.488 378.982 14.488C377.809 14.488 376.87 14.7973 376.166 15.416C375.462 16.0133 375.11 16.8667 375.11 17.976C375.11 18.8507 375.334 19.5653 375.782 20.12C376.252 20.6533 376.828 21.08 377.51 21.4C378.193 21.6987 379.132 22.04 380.326 22.424C381.777 22.8933 382.94 23.3413 383.814 23.768C384.71 24.1947 385.468 24.8453 386.086 25.72C386.705 26.5733 387.014 27.7147 387.014 29.144Z" fill="#BF00FF"/>
</svg>
