<svg width="293" height="182" viewBox="0 0 293 182" fill="none" xmlns="http://www.w3.org/2000/svg">
<g clip-path="url(#clip0_24:1986)">
<path d="M106.873 127.98C106.535 127.98 106.211 128.115 105.972 128.354C105.733 128.592 105.599 128.916 105.599 129.254V180.121C105.599 180.458 105.733 180.782 105.972 181.021C106.211 181.259 106.535 181.394 106.873 181.394H115.517C115.855 181.394 116.179 181.259 116.417 181.021C116.656 180.782 116.791 180.458 116.791 180.121V129.254C116.791 128.916 116.656 128.592 116.417 128.354C116.179 128.115 115.855 127.98 115.517 127.98H106.873Z" fill="#651FFF"/>
<path d="M178.75 127.98C178.412 127.98 178.088 128.115 177.849 128.353C177.61 128.592 177.476 128.916 177.476 129.254V180.121C177.476 180.458 177.61 180.782 177.849 181.021C178.088 181.259 178.412 181.394 178.75 181.394H187.394C187.732 181.394 188.056 181.259 188.294 181.021C188.533 180.782 188.668 180.458 188.668 180.121V129.254C188.668 128.916 188.533 128.592 188.294 128.353C188.056 128.115 187.732 127.98 187.394 127.98H178.75Z" fill="#651FFF"/>
<path d="M219.132 87.566L152.859 82.4544L205.731 91.4606L218.401 89.2699L219.132 87.566Z" fill="#651FFF"/>
<path d="M206.219 90.6593L218.889 88.4686L219.013 88.1785L219.619 88.2253L218.889 89.9292L206.219 92.1199L153.347 82.4544L169.015 84.3221L206.219 90.6593Z" fill="#9135D5"/>
<path d="M69.0434 87.566L2.77026 82.4544L55.6426 91.4606L68.3125 89.2699L69.0434 87.566Z" fill="#651FFF"/>
<path d="M54.9119 90.6593L67.5815 88.4686L67.7062 88.1785L68.3126 88.2253L67.5815 89.9292L54.9119 92.1199L2.03955 82.4544L17.7081 84.3221L54.9119 90.6593Z" fill="#9135D5"/>
<path d="M230.34 114.098L224.736 114.341L173.397 135.981L170.458 138.439L161.143 146.228H131.905L123.1 138.439L119.752 135.477L70.5053 114.585L66.1196 114.098L80.7387 107.039H80.8166C84.1303 103.897 112.827 101.441 147.743 101.441C182.658 101.441 211.355 103.897 214.668 107.039H214.99L230.34 114.098Z" fill="#651FFF"/>
<path d="M80.3371 107.4C80.441 107.108 80.4944 106.801 80.495 106.491V94.9297C80.4949 94.2033 80.2061 93.5067 79.692 92.993C79.1778 92.4794 78.4805 92.1909 77.7534 92.1909H76.6403C77.5542 91.2693 78.1748 90.0982 78.4237 88.825C78.6727 87.5518 78.5389 86.2334 78.0392 85.0361C77.5395 83.8387 76.6963 82.8158 75.6157 82.0963C74.5352 81.3768 73.2657 80.9929 71.9672 80.9929C70.6686 80.9929 69.3991 81.3768 68.3186 82.0963C67.2381 82.8158 66.3949 83.8387 65.8952 85.0361C65.3955 86.2334 65.2617 87.5518 65.5106 88.825C65.7596 90.0982 66.3801 91.2693 67.2941 92.1909H66.181C65.821 92.1908 65.4644 92.2617 65.1318 92.3993C64.7992 92.537 64.497 92.7387 64.2424 92.993C63.9878 93.2474 63.7859 93.5493 63.6481 93.8816C63.5103 94.2139 63.4394 94.57 63.4394 94.9297V106.491C63.4393 106.964 63.5626 107.43 63.7973 107.841C62.9699 107.986 62.1424 108.143 61.315 108.325C60.8109 108.437 60.3604 108.718 60.0378 109.121C59.7153 109.525 59.54 110.025 59.541 110.541V113.288C59.541 113.89 59.7804 114.468 60.2066 114.894C60.6328 115.319 61.2108 115.558 61.8135 115.558H87.5608V108.743C85.1834 108.145 82.7707 107.696 80.3371 107.4Z" fill="#651FFF"/>
<path d="M232.708 108.325C231.881 108.143 231.053 107.986 230.226 107.841C230.46 107.429 230.584 106.964 230.584 106.491V94.9297C230.584 94.57 230.513 94.2138 230.375 93.8815C230.237 93.5492 230.035 93.2473 229.781 92.993C229.526 92.7387 229.224 92.5369 228.891 92.3993C228.559 92.2616 228.202 92.1908 227.842 92.1908H226.729C227.643 91.2693 228.263 90.0981 228.512 88.8249C228.761 87.5517 228.628 86.2334 228.128 85.036C227.628 83.8386 226.785 82.8158 225.704 82.0963C224.624 81.3768 223.354 80.9929 222.056 80.9929C220.757 80.9929 219.488 81.3768 218.407 82.0963C217.327 82.8158 216.483 83.8386 215.984 85.036C215.484 86.2334 215.35 87.5517 215.599 88.8249C215.848 90.0981 216.469 91.2693 217.383 92.1908H216.27C215.91 92.1908 215.553 92.2616 215.22 92.3993C214.888 92.5369 214.586 92.7387 214.331 92.993C214.076 93.2473 213.875 93.5492 213.737 93.8815C213.599 94.2138 213.528 94.57 213.528 94.9297V106.491C213.529 106.801 213.582 107.108 213.686 107.4C211.252 107.696 208.84 108.145 206.462 108.743V115.558H232.21C232.812 115.558 233.39 115.319 233.816 114.893C234.243 114.468 234.482 113.89 234.482 113.288V110.541C234.483 110.025 234.308 109.524 233.985 109.121C233.663 108.718 233.212 108.437 232.708 108.325Z" fill="#651FFF"/>
<path d="M224.98 87.566L291.253 82.4544L238.381 91.4606L225.711 89.2699L224.98 87.566Z" fill="#651FFF"/>
<path d="M151.665 144.038H141.384C141.003 144.038 140.626 144.113 140.274 144.258C139.922 144.404 139.602 144.617 139.333 144.886C139.064 145.155 138.85 145.475 138.705 145.826C138.559 146.178 138.484 146.554 138.484 146.935V149.173C138.484 149.761 138.664 150.336 138.999 150.819C139.334 151.303 139.808 151.673 140.359 151.881C139.934 152.39 139.701 153.033 139.702 153.697V154.339C139.702 154.797 139.813 155.248 140.025 155.653C140.237 156.059 140.544 156.408 140.92 156.669V165.215H152.128V156.669C152.504 156.408 152.812 156.059 153.024 155.653C153.236 155.248 153.347 154.797 153.347 154.339V153.697C153.347 153.033 153.115 152.39 152.69 151.881C153.241 151.673 153.715 151.303 154.05 150.819C154.385 150.336 154.564 149.761 154.565 149.173V146.935C154.565 146.554 154.49 146.178 154.344 145.826C154.198 145.475 153.985 145.155 153.715 144.886C153.446 144.617 153.127 144.404 152.775 144.258C152.423 144.113 152.046 144.038 151.665 144.038Z" fill="#651FFF"/>
<path d="M136.076 164.005C135.618 164.006 135.179 164.188 134.856 164.511C134.532 164.834 134.35 165.273 134.349 165.73V179.547C134.35 180.005 134.532 180.443 134.856 180.767C135.179 181.09 135.618 181.272 136.076 181.273H156.972C157.43 181.272 157.869 181.09 158.193 180.767C158.516 180.443 158.698 180.005 158.699 179.547V165.73C158.698 165.273 158.516 164.835 158.193 164.511C157.869 164.188 157.43 164.006 156.972 164.005H136.076Z" fill="#9135D5"/>
<path d="M170.458 138.439L161.143 146.229H131.905L123.1 138.439H131.857L132.239 136.533C132.351 135.973 132.654 135.468 133.097 135.106C133.539 134.743 134.094 134.545 134.666 134.545H159.114C159.686 134.545 160.24 134.743 160.683 135.106C161.125 135.468 161.428 135.973 161.54 136.533L161.923 138.439H170.458Z" fill="#9135D5"/>
<path d="M146.524 179.454C150.292 179.454 153.346 176.403 153.346 172.639C153.346 168.875 150.292 165.823 146.524 165.823C142.756 165.823 139.702 168.875 139.702 172.639C139.702 176.403 142.756 179.454 146.524 179.454Z" fill="#651FFF"/>
<path d="M146.524 176.533C148.677 176.533 150.423 174.79 150.423 172.639C150.423 170.488 148.677 168.744 146.524 168.744C144.371 168.744 142.626 170.488 142.626 172.639C142.626 174.79 144.371 176.533 146.524 176.533Z" fill="#D500F9"/>
<path d="M148.881 169.541C149.452 170.29 149.733 171.221 149.67 172.16C149.607 173.1 149.205 173.985 148.538 174.651C147.872 175.317 146.986 175.719 146.045 175.781C145.105 175.844 144.173 175.564 143.424 174.993C143.76 175.436 144.187 175.802 144.677 176.066C145.166 176.33 145.707 176.486 146.262 176.524C146.817 176.562 147.373 176.481 147.894 176.286C148.415 176.091 148.888 175.787 149.282 175.394C149.675 175.001 149.98 174.528 150.175 174.008C150.37 173.487 150.452 172.931 150.414 172.376C150.376 171.822 150.219 171.282 149.955 170.793C149.69 170.304 149.324 169.877 148.881 169.541Z" fill="white"/>
<path d="M234.604 111.228H59.663V112.343H234.604V111.228Z" fill="#D500F9"/>
<path d="M238.868 90.6593L226.198 88.4686L226.073 88.1785L225.467 88.2253L226.198 89.9292L238.868 92.1199L291.74 82.4544L276.071 84.3221L238.868 90.6593Z" fill="#9135D5"/>
<path d="M74.891 87.566L141.164 82.4544L88.2918 91.4606L75.6222 89.2699L74.891 87.566Z" fill="#651FFF"/>
<path d="M89.0229 90.6593L76.3529 88.4686L76.2285 88.1785L75.6221 88.2253L76.3529 89.9292L89.0229 92.1199L141.895 82.4544L126.226 84.3221L89.0229 90.6593Z" fill="#9135D5"/>
<path d="M156.636 136.614H137.144V140.508H156.636V136.614Z" fill="#D500F9"/>
<path d="M293 181.261H0V182H293V181.261Z" fill="#651FFF"/>
</g>
<defs>
<clipPath id="clip0_24:1986">
<rect width="293" height="182" fill="white"/>
</clipPath>
</defs>
</svg>
