<svg width="96" height="187" viewBox="0 0 96 187" fill="none" xmlns="http://www.w3.org/2000/svg">
<path d="M26.9757 144.675C26.3242 144.791 25.6863 144.973 25.0719 145.218C11.3801 150.686 11.6086 186.476 11.6086 186.476H7.57771C7.57771 186.476 6.30854 171.117 0.777506 149.203C-4.20525 129.488 16.2309 111.819 20.3811 108.468C20.8481 108.095 21.107 107.897 21.107 107.897C41.6904 115.461 26.9757 144.675 26.9757 144.675Z" fill="#651FFF"/>
<path opacity="0.2" d="M22.6047 108.519C22.13 108.301 21.6401 108.092 21.1197 107.902C21.1197 107.902 20.8659 108.1 20.3938 108.473C16.2436 111.824 -4.19255 129.493 0.790202 149.208C6.32124 171.122 7.57771 186.476 7.57771 186.476H9.84444C9.84444 186.476 8.58797 171.117 3.04425 149.203C-1.9182 129.579 18.3199 111.976 22.6047 108.519Z" fill="white"/>
<path d="M94.8864 149.209C89.3427 171.122 88.0938 186.476 88.0938 186.476H84.0553C84.0553 186.476 84.3091 149.071 69.6553 144.896C69.3379 144.801 69.0149 144.725 68.6882 144.67C68.6882 144.67 53.9659 115.456 74.5569 107.897C74.5569 107.897 74.765 108.052 75.1407 108.354C78.9558 111.408 99.925 129.265 94.8864 149.209Z" fill="#651FFF"/>
<path opacity="0.1" d="M26.9759 144.675C26.3245 144.791 25.6866 144.973 25.0722 145.218C22.5968 133.104 21.0288 120.821 20.3813 108.473C20.8484 108.1 21.1073 107.902 21.1073 107.902C41.6907 115.461 26.9759 144.675 26.9759 144.675Z" fill="black"/>
<path opacity="0.1" d="M75.148 108.359C74.3087 120.671 72.4743 132.895 69.6627 144.911C69.3453 144.816 69.0223 144.74 68.6955 144.685C68.6955 144.685 53.9732 115.471 74.5642 107.912C74.5566 107.902 74.7647 108.057 75.148 108.359Z" fill="black"/>
<path d="M67.5898 150.214C66.1683 155.822 64.5023 161.575 62.5918 167.474C62.5918 167.474 53.5249 176.919 31.6241 167.474C31.6241 167.474 29.4361 161.306 27.0297 150.82C21.7322 127.765 15.3788 83.8285 28.9157 38.6995C32.9469 25.1328 38.6764 12.1299 45.9683 0C45.9683 0 57.5329 13.278 66.0211 38.6918C74.5093 64.1057 79.9109 101.66 67.5898 150.214Z" fill="#E3E8F4"/>
<path d="M47.8305 92.7077C57.8722 92.7077 66.0126 84.5673 66.0126 74.5256C66.0126 64.4839 57.8722 56.3435 47.8305 56.3435C37.7888 56.3435 29.6484 64.4839 29.6484 74.5256C29.6484 84.5673 37.7888 92.7077 47.8305 92.7077Z" fill="#651FFF"/>
<path d="M60.7254 74.5356C60.7254 76.9775 60.032 79.3691 58.7259 81.4323C57.4199 83.4955 55.5548 85.1454 53.3478 86.1902C51.1408 87.235 48.6824 87.6316 46.2588 87.3339C43.8352 87.0362 41.5459 86.0565 39.6572 84.5088C38.7354 83.7496 37.9223 82.8673 37.2408 81.8867C36.9347 81.4486 36.6566 80.9916 36.4082 80.5185C35.4411 78.6726 34.9368 76.6195 34.9385 74.5356C34.9385 74.4316 34.9385 74.33 34.9385 74.2285C35.0046 71.471 35.9522 68.8072 37.6423 66.6274C39.3324 64.4476 41.6762 62.8664 44.3303 62.1156C45.3437 61.8363 46.3866 61.6778 47.4372 61.6434H47.8231C49.5169 61.6424 51.1943 61.9751 52.7594 62.6226C54.3246 63.27 55.7469 64.2194 56.9451 65.4166C58.1432 66.6138 59.0938 68.0354 59.7424 69.6001C60.3911 71.1647 60.7251 72.8419 60.7254 74.5356Z" fill="#D500F9"/>
<path d="M66.0408 38.6918C45.4118 48.5685 28.9253 38.6918 28.9253 38.6918C32.961 25.1272 38.6949 12.1269 45.9905 0C45.9905 0 57.5552 13.278 66.0408 38.6918Z" fill="#651FFF"/>
<path d="M67.6122 150.214C66.6476 154.011 65.5731 157.873 64.3885 161.801C63.8267 163.674 63.2344 165.563 62.6117 167.467C62.6117 167.467 53.5447 176.912 31.644 167.467C31.644 167.467 30.9333 165.464 29.8672 161.801C29.0701 159.034 28.0776 155.326 27.042 150.813C27.042 150.813 35.1951 154.293 46.7674 154.293C53.9163 154.317 60.9998 152.931 67.6122 150.214Z" fill="#651FFF"/>
<path d="M64.3881 161.801C63.8262 163.674 63.234 165.563 62.6112 167.467C62.6112 167.467 53.5443 176.912 31.6435 167.467C31.6435 167.467 30.9328 165.464 29.8667 161.801C29.8642 161.801 52.1863 168.223 64.3881 161.801Z" fill="#E3E8F4"/>
<path opacity="0.2" d="M44.3377 62.0979L44.3098 62.1182L34.9434 74.2108C34.9434 74.3123 34.9434 74.4139 34.9434 74.5179C34.9417 76.6018 35.446 78.6549 36.4131 80.5008L47.4497 61.6257L44.3377 62.0979Z" fill="white"/>
<path opacity="0.2" d="M47.3281 73.0127L39.6572 84.4987C38.7354 83.7396 37.9222 82.8573 37.2407 81.8766L46.3787 72.0685L47.3281 73.0127Z" fill="white"/>
<path opacity="0.2" d="M36.5451 167.469C36.5451 167.469 34.357 161.299 31.9507 150.815C26.6532 127.757 20.2997 83.8209 33.8367 38.6919C37.4755 26.481 42.4869 14.7219 48.7748 3.64C47.0563 1.23112 45.9826 0.00256348 45.9826 0.00256348C38.6896 12.1289 32.9584 25.1284 28.925 38.6919C15.3881 83.8209 21.7415 127.757 27.039 150.815C29.4454 161.299 31.6334 167.469 31.6334 167.469C40.2866 171.198 46.9345 171.98 51.8132 171.564C47.6452 171.246 42.5838 170.071 36.5451 167.469Z" fill="white"/>
</svg>
